<?xml version="1.0" encoding="utf-8"?>
<!-- Generator: Adobe Illustrator 22.0.1, SVG Export Plug-In . SVG Version: 6.00 Build 0)  -->
<svg version="1.1" id="Layer_1" xmlns="http://www.w3.org/2000/svg" xmlns:xlink="http://www.w3.org/1999/xlink" x="0px" y="0px"
	 viewBox="0 0 451.616 597.099" style="enable-background:new 0 0 451.616 597.099;" xml:space="preserve">
<style type="text/css">
	.st0{fill:#E40073;}
	.st1{fill:#EE97BF;}
	.st2{fill:#FFF206;}
	.st3{fill:#E970A8;}
	.st4{fill:#F9DEEA;}
	.st5{fill:#FFFFFF;}
</style>
<g>
	<path class="st0" d="M419.913,553.268c11.579,3.843,28.544-1.721,31.5,10.101c0.8,5.7-0.7,11.2-5.8,14.399
		c-9.9,3.301-21.7,1.2-31.4-0.899c-17.5-3.4-33.9-12.9-47.1-25.2c-34.4-33.3-44.984-78.652-50.4-124.1
		c-3.658-30.696-6.1-59.9-19.9-85.4c-5.1-8.4-10.2-18.3-19.2-23.6c-4.2,7.399-5.4,15.1-8.1,23.1c-17.9,65.3-30.4,137.9-31,207.1
		c30.1-7.699,63.9-5.8,90,9.801c10.2,6.399,21.3,13.3,27.1,24.3l-5.086,4.435c-11.5,7.8-25.394,9.062-38.613,9.664
		c-40.162,1.831-76.4-16-111.601-30.2l-0.199-0.699c8.1-31.601,16.2-63.801,22.3-96.5c5.9-29.5,10.7-61.2,14.4-90.7
		c1.9-12.601,3.3-24.8,4.8-38.2l1.754-13.203l-13.054-6.697l-0.4,0.5c-17.399,52.7-27.2,105.101-36.5,160.301l-11.5,75.3l-1.7,8.2
		c-43,10.6-92.699,22.3-135.6,4.8c-2.301-1.2-5.1-2.2-6.5-4.3c11.199-13.7,25.199-24.801,41-31c21.9-9.101,45.3-8.7,68.4-5.5
		c5.199-12.7,9.799-26,14-38.9c13.899-39.9,23.5-81.4,31.199-123.3c3.4-27.5,8-55.7,8.801-83.101
		c-13.4-31.5-23.301-65.399-22-102.199c-18.201,10.399-36.101,24.899-53.601,37.899l-2.299,1.448c-1.5-1.1-1.986-3.973-2.701-5.748
		c-9.976-24.769-19.2-50.6-31.2-74.2l-1-2.1l-6.9-13.5c-20.399,5.7-40.899-0.8-53.5-17.2c-8.799-3.7-18.799-4.6-26.699-10.4
		c-2.5-4.3-1.929-10.024,0.571-14.424c1.1-3,3.829-3.876,6.429-4.776c-0.301-5.4,2.6-10.2,7.4-12.7c9.5-0.2,16.998,4.617,24.5,9.6
		c4.382,2.91,8.199,7,12.5,9.101c11.199,1.2,24.5-1.3,35.5-5.2c1.299-9.1,5-17.9,13-23.6c5.299-2.1,11.399-0.7,15.299,3.6
		c3.601,3.6,4.201,9.5,3.101,13.7c-4.601,4.6-9,9.7-12.7,14.899c3.4,3.3,6.7,7,6,11.8c-3,7-7.8,13.4-11,20.4
		c9.5,19.6,18.938,40.192,30.838,59.692c20.4-12.6,38.963-27.992,56.063-43.892c6.199-5,10.462-11.275,16.861-15.374
		c4.133-1.762,8.439,0.575,10.939,3.875c4.4-6.1,5.534-13.558,7.321-20.315c-5.677-0.113-12.321,1.916-18.321,4.015
		c-5.101,6.2-10.899,11.4-18.5,13.4c-6.5,1.7-13.806,0.115-18.122-4.561c-7.847-8.501-10.263-21.563-11.178-34.839
		c-3.854-0.304-4.683-5.694-5.801-10c-2.323-8.948-0.6-18.4,7.201-24.5l-1.315-4.782c-0.83-3.421,0.594-7.717,4.214-7.718
		c20.399-0.3,38.5,3.2,57.6,6l0.7-3.6c0,0-2.818-0.66-5.798-1.074c0,0,4.056-1.656,6.599-1.327c1-2.8,2.2-5.6,4.5-7.9
		c4.3-4.2,10.1-7.7,15.9-5.5c3.7,1.4,5.946,4.38,6.9,7.9c0.714,2.635,1.446,5.419,1.7,8.2c3.2-4.9,8.1-9.7,13.9-10.4
		c4.1-0.399,7.1,2.2,9.6,5.101c7.5,0.399,15.969,2.707,19.469,10.007c2.073,6.22-2.969,12.293-8.169,16.393
		c3.188,1.283,5.5,2.4,8.4,3.3c1.3-6.8,5.1-13.6,11-17.7c4.648-2.362,10.986-1.869,14.686,1.531c6.9,7,8.694,17.234,5.494,26.435
		c-1.508,3.076-8.662,4.354-13.18,4.434c-2.942,0.051-6.657,0.252-9.305,0.334c1.6,3.1,2.979,7.202,3.305,11.366
		c-0.1,6-1.543,12.488-6.943,15.588c-13.737,6.23-30.398-0.311-45.198-0.311c-6.9,7.6-11.958,15.823-16.058,24.623
		c0,0.5,0.604,0.34,1,0.399c12.476,1.861,20.967,6.193,30.467,12.193c7.9,4.999,14.533,11.107,21.333,16.408
		c13.6,13.5,26.5,25.6,39.6,40.3c5.6,7.6,13.1,14.8,17.3,23.1c-3.5,6.2-9.9,9.2-15.8,12.2c-15.3,5.5-32.2,8-49,9.1
		c-4.5,6.801-9.4,13.7-14.9,19.9c8.8,9.1,13.1,21.3,14.4,32.7c0,0,13.084,8.678,24.7,26.1c20,31.9,23.202,69.993,28.002,107.493
		c6.8,31,11.198,61.907,30.798,88.107c13.8,18,32.3,32.1,53.6,36.5L419.913,553.268z M245.713,160.968
		c-3.4,16.9-1.3,34.601,2.9,50.8c2.4-1.399,3.7-4.8,6.9-6c4.7-0.8,9.2,0.2,13,2.2c3-3.5,7.3-5.399,11.8-3.8l4.3,1.4
		c3.5-3.2,7.8-6,12-7.7C281.014,182.668,265.014,168.668,245.713,160.968z"/>
	<path class="st1" d="M224.434,36.33c7.898,1.158,15.249,3.425,22.349,6.125c0.9-6-0.77-12.886-5.67-16.186c-4.2-2-8.5,0.3-11.7,2.9
		C227.166,31.115,225.234,33.83,224.434,36.33z"/>
	<path class="st1" d="M250.839,44.027c8.1,3.3,16.194,7.261,23.094,13.161c2.1-4.601,1.28-10.42,0.78-15.32
		c-0.78-4.38-2.5-7.5-6.2-9.3c-4.9-2.3-9.551,0.262-13,3.6C253.813,38.468,251.539,41.228,250.839,44.027z"/>
	<path class="st1" d="M279.113,51.269l-0.8,5c3.5,1,7.379-2.224,9.112-5.123c1.1-2,0.688-5.577-0.412-7.777c-2.4-3.9-6.4-5-9.9-6.7
		C278.213,40.869,279.713,45.869,279.113,51.269z"/>
	<path class="st2" d="M246.369,48.083c-7.6-2.1-15.556-5.015-23.456-6.415l0.7-3.4c8,1.2,17.249,4.555,22.922,6.669L246.369,48.083z
		"/>
	<path class="st0" d="M163.114,40.269c-3.9,5.7,1.6,11.7,5.1,16.5c2.5,3,5.5,5.8,8.6,7.9c8.201-3.7,16.601-8.4,25.5-11.3v-0.4
		c-10.5-6.7-21-11.399-33.199-13.899C167.014,39.069,164.713,38.769,163.114,40.269z"/>
	<path class="st3" d="M185.213,40.668c7.1,2.9,13.6,7.3,20.2,11.3c11.2-1.3,20.7-4.3,32.6-3.8
		C221.113,43.168,203.313,42.069,185.213,40.668z"/>
	<path class="st2" d="M254.613,62.069c2.6,2.399,5.7,3.6,9.3,3.6c3.7-0.5,7.6-2.6,9.2-6c-7.6-5-14.7-9.5-22.8-13
		C249.213,52.269,250.613,58.168,254.613,62.069z"/>
	<path class="st1" d="M281.561,63.827l-4.148-4.159c5.7,2.5,12.6,4.5,18.7,7.4c0.915-4.5,2.239-7.811,5-12.5
		c2.2-2.601,4-6.601,7.7-7.4c7.583-0.244,11.4,8,12.7,14.2c0.6,2.4,1.1,6-0.5,8.1c-4.286,4.772-13.06,4.854-19.9,4.8h-2.9
		c2.9,5.4,3.9,13.6,1,19.2c-3.6,5.5-9.359,7.471-15.6,7.9l-34.429-0.475l-1.771,1.675c-5.5,6.5-8.577,13.389-12.55,20.756
		c-1.005,1.879-2.649,5.628-2.649,5.628c-5.38,2.401-6.901,9.215-6.901,9.215c0,0.8-0.238,2.008,0.362,2.209
		c4.304-7.947,9.638-8.008,15.238-6.108c26.7,8.4,48.3,30.2,69.3,49.7c12.2,11.8,22.7,23.9,32.9,36.2
		c-7.3,4.4-14.577,8.584-22.8,10.8c-11.788,3.176-23.9,6.2-35.2,8c5.7-9.6,16-17.5,27.1-19c4-2.899,5.1-8.1,4.8-12.5l5.94-0.755
		c0.7-0.1,2.96-0.044,2.859-0.644c-2.9-1.2-6.3-1.5-9.8-1.5c-1.5-3.101-4.3-6.601-7.9-7.9c-2.3-1.3-4.219-0.287-7-3.1
		c-14.5-12.601-28.89-24.684-46.3-32.9c-7.742-3.654-15.6-6.2-23.5-6.9l-3.124,0.396c4.679,1.846,10.325,3.604,13.424,5.804
		l-1.7,4.8c-3.887,18.253,0.2,35.2,5.8,50.9c-0.7,0.7-1.3,2.3-2.2,1.7c-6.6-4.8-14.2-5.8-23.2-5.8l-1.2-7.4c-4-16-3-33-3.2-48.8
		c-0.9-6.3,1.131-14.339-4.469-18.839c-2-1.5-5.231-2.361-7.731-1.961c-16.5,7.5-21.5,24.899-23.5,41c-18.8,10-37,23-53.5,36.699
		c-11.8-30.5-25.699-60.6-41.8-88.8l3.274-1.964c0-0.6-1.49,0.166-2.649,0.166c-17.6,4.1-37.884,2.633-50.825-11.901
		c-5.544-6.227-9.4-14.1-13.6-21.8c1-2.399,3.5-3.2,5.699-3.8c7.571-2.065,21.742,14.819,26.443,24.919l-0.242-1.719
		c-1-4.2-2.572-8.296-5.386-12.187c-5.455-7.543-11.915-16.313-22.515-14.913c-3.9-0.4-7.7-2.5-12.2-2.4c-0.101-1.4,0.5-2.4,1-3.6
		c1.601-1.8,3.668-2.512,6.2-2.1c10.5,1.6,19.4,7.5,27.8,13.4c15.772,7.129,34.8,2.6,48-7.4c-1.5-1.3-3.3,0.7-4.8,0.2
		c3-6,5.4-13.5,11.3-17c2.3-1.1,5.101-1.1,7.5-0.3c3.7,1.899,5.8,5.8,6.399,9.6c-4.299,5.3-8.199,10.9-11.5,16.6
		c-2.899,4.7,3.9,7.8,3.9,12.5c-2.4,6.3-6.3,12-10.1,17.7c-0.5,1.8-0.162,2.546,0.699,4.3c7.9,20.6,18.801,40.2,28.301,59.8
		c1.63,4.168,3.4,7.1,5.1,10.6c1.166-2.623,0.586-4.61,0-6.3c23.2-12.4,44.301-30.4,63.301-51.1c2.899-3.5,6.426-7.752,10.6-9.6
		c4.163-1.843,6.977,0.061,9.1,2.9c-0.467,1.878-0.55,3.286-0.219,4.775c5.8-9,11.619-19.476,14.819-29.275l8-1.4
		c-10.154-2.351-27.786,0.38-27.786,0.38c2.152-2.483,3.311-5.96,3.311-5.96c11.5,1.3,24.274-2.92,33.075-9.621
		c2.7,1.601,5.7,2.7,9.1,2.4c3.2,0,5.7-2.6,7-4.8c-3.4,2.1-7.6,2.2-11.3,0.8c-4.7-2-8.4-6.9-9.1-11.8c-0.7-1.3,0.5-2.8-1-3.601
		c-1.4,5-0.9,11.5,3.1,15.4c-8,5.5-18.3,9.5-28,6.7c3.4-12.601,2.1-28.601-9.199-37.7c12.699-2.7,26-3.1,38.899-3.8l0.5,4.3
		c1.194,5.3,4.9,11.4,11,12.7c6.6,1.3,12.944-0.89,17.344-6.49C277.829,63.101,281.561,63.827,281.561,63.827z"/>
	<path class="st4" d="M158.313,79.569c4.801,1.2,12.897,4.024,15.201,1.399c0-5.3,0.66-9.45,0.961-14.549
		c-6.301-3-10.602-9.85-14.202-15.55C153.574,57.97,156.437,78.444,158.313,79.569z"/>
	<path class="st4" d="M178.514,66.569l-3.101,15.2c9.899,8.5,21.899,12.4,35.5,12.2c3.3-8.399,5.2-21.3,0.2-29.8l-6.4-8.4
		C195.313,57.968,187.114,62.668,178.514,66.569z"/>
	<path class="st0" d="M301.001,68.777l-1.087,2.191c6.1-0.399,14.083-0.453,17.1-6c0.79-1.737,0.4-4.1-1-5.1
		c-1.3-1.5-3.727-2.066-5.3-1.4C305.719,60.583,303.501,64.477,301.001,68.777z"/>
	<path class="st4" d="M302.313,68.968c4.3-0.3,10.772-0.688,12.5-4.3c0.3-1.5-0.3-2.9-1.7-3.6
		C309.113,60.086,305.113,65.369,302.313,68.968z"/>
	<path class="st1" d="M4.514,86.269c-1.201,2.3-1,5.8,0.699,7.7c6,3.8,12.7,5.9,19.2,8.4c-1.601-6-12.8-13.2-3.8-19.9
		C15.213,81.569,7.413,81.369,4.514,86.269z"/>
	<path class="st4" d="M161.913,83.369c1.601,12.8,4.744,28.699,18.5,32.7c12.399,1.6,22.101-7.601,27.399-17.5
		c-13,2-23.799-7.101-33.6-14.9C170.413,85.769,165.913,83.869,161.913,83.369z"/>
	<path class="st0" d="M65.713,96.869l-2.192,0.879c8.7,0.2,19.093-0.879,26.393,3.421c1.101,1.1,2.826,3.946,3.601,2.4
		c0.899-2.4-1.437-4.497-3.801-5.5C82.614,95.468,73.313,94.769,65.713,96.869z"/>
	<path class="st4" d="M195.114,144.168c3.5-3.9,7.8-8.2,13.199-6.8c2.4,0.9,4.201,3.258,4.5,5.8c0.5,22.6-0.699,47.7,4.8,69.1
		c-3.3,0.9-6.099,2.9-9.099,4.601c-4,3.8-2.601,10.399-1,14.899c1.399,3.101,4.699,4.7,7.699,5.5c-0.3,4.7,0.4,9,2.2,12.9
		c2.3,3.7,6.2,6.5,10.8,6.3l0.2,2.9c0.4,4.7,5.3,8.2,9.4,9.6c8.4,10.5,6.7,25.601,7.9,38.4c-0.133,5.345-0.4,11.2-2.2,15.8
		l-14.6-7.4c-9.1-10.3-16.899-21.5-23-33.199c-6.399-11-9.3-24-13-35.7c-6.2-28.9-12.8-63.601-3.601-92.9
		C190.782,149.355,195.114,144.168,195.114,144.168z"/>
	<path class="st1" d="M234.713,260.569c-3.6-2.9-2.427-6.295-1.7-10.4c1.9-5.1,7.8-5.5,12-6.4c4.1-0.3,8,1.601,12,0.2
		c-6.6-3-15.108-3.589-22.6,0c-3.283,1.573-4.3,4.7-5.5,7.4c-3.4-0.9-5.712-3.508-7.9-6.9c-1.3-3.7-3.7-7.899-1-11.5
		c4.3-3.2,10.4-2,15.6-2.899c4.3,0.3,8.2,2.399,12.5,1.899c-5.8-3.8-13-4.5-20.2-3.8c-3.9,0.7-9,1-11.5,4.8
		c-1.5-0.6-3.399-0.6-4.5-2.2c-1.5-2.899-3.399-6.899-1.2-10.1c10.5-6.5,23.6-5.5,33.8,1l1.7-1.5l10.1-9.3
		c3.227-1.662,7-1.4,10.3-0.5c-2.5,3.8-5.8,7.6-6,12c2.312-2.831,4.6-6,7.2-8.9c4.3-3.399,9.3-7.5,15.3-4.8c2.4,0.3,4.4,2.9,6.8,1.9
		c-0.5-1.4-1-1.9-1.5-3.301l5-2.899c5.2-1.601,11.3-4.601,16.4-0.7c1.9,3.3,2.7,8.8,0,12c-6.2,2-11.9,5.3-17.3,9.1
		c-10.2,7.101-13.547,18.046-21.4,26.9c-2.31,2.605-7.298,8.661-7.298,8.661c-5.879,1.247-22.325,4.137-24.048,3.563
		C236.561,262.823,234.713,260.569,234.713,260.569z"/>
	<path class="st1" d="M241.113,268.968c8.5,14.2,7.9,33.101,7,49.4c-3.8,27.2-4.8,57.1-9.4,84.2c-7.5,54.899-18.3,110.6-32.4,162.5
		c33.8,13.899,68.701,27.1,108.3,25.899c-4.7-10.1-11.2-19.399-19.5-28.1c0.7-1.101,1.7,0.3,2.4,0.5c9,7.8,15.2,17.5,19.9,27.399
		c6-0.3,11.6-1.3,17.1-2.699c-6.4-9.4-14.5-18.7-23.3-25.9c4.4,0.6,7.2,4.7,11,7.2c6,5.5,11.8,11.2,15.4,18.3
		c4-1.1,7.7-2.8,11.3-4.8c-27.6-29.5-70.9-39.8-111.4-30.3l-11.5,2.399l-3.72,0.936c2.4-2.6,9.32-4.835,12.12-6.436l0.5-11.5
		l3.1-58.3c5-52.4,14.3-101.1,29.8-150c3.1-11.1,9.7-21.5,8.1-33.6c-0.8-11.601-4.795-22.023-11-32.2
		C257.014,265.569,249.03,266.386,241.113,268.968z"/>
	<path class="st1" d="M162.213,535.069c-27.6-5.801-55.8-6.5-81.6,4.8c-11.6,5.7-23.5,12.8-32.9,23.3c3,2.2,7.301,2.5,10.801,4.1
		c4-6.5,9.199-13.699,15.6-18.5l0.199,0.2l-13.199,18.7c4.6,1.6,9.6,2.8,14.699,3.6c4.701-8.8,10.701-17.899,19.4-24.199
		l0.301,0.199c-6.601,7.5-12.4,15.801-17.101,24.301c33,4.199,66.5-2.5,97.899-9.101c1.094-7.618,1.201-15.2,2.9-23.3
		c10.2-75.4,22.6-148.6,46.8-219.4l0.179-0.732c-4.957-2.968-9.167-6.744-9.167-6.744l7.797,2.529
		c-6.1-6.5-13.208-14.652-18.009-21.853c-2,25.7-5.199,48.5-9.299,73.9c-11.201,55-24.9,110.8-44.201,162.899
		C160.442,532.512,162.213,535.069,162.213,535.069z"/>
	<path class="st1" d="M429.313,559.069c0.004,0.001,0.008,0.002,0.012,0.003c4.801,0.595,11.648-0.654,14.388,1.896
		c2.694,2.507,2.817,7.387,1.4,10.601c-2.014,4.567-8.882,3.125-13.7,2.899c-20-2.2-38.1-8.399-54.2-20.7l-0.2-0.699
		c-10.6-7.2-20.003-18.668-26.2-30.2c-19.206-35.743-24.722-60.313-30.5-101.5c-5.255-37.461-9.624-74.19-35.2-103.2
		c-2.022-2.294-4.13-3.031-5.8-4.8c0.9-4.101,2.408-7.819,2.408-11.719l0.192-1.081c32.2,26,40.7,67,46.3,105.6
		c6.1,55.2,16.28,116.16,71.6,145.2C409.444,556.424,429.313,559.069,429.313,559.069z"/>
	<polygon points="274.77,4.576 267.114,10.444 279.003,26.401 285.989,22.339 	"/>
	<polygon points="240.213,0 246.158,6.527 232.484,19.147 226.39,13.635 	"/>
	<g>
		<path d="M163.077,64.74l-0.316,1.183c-17.663-6.798-56.443-15.981-56.443-15.981C137.196,53.557,163.077,64.74,163.077,64.74z"/>
		<path d="M162.564,69.389l-0.096,1.223c-18.565-3.713-58.282-6.191-58.282-6.191C135.141,62.743,162.564,69.389,162.564,69.389z"/>
	</g>
	<g>
		<path d="M198.687,75.15l-0.625,1.414c19.776,7.176,58.883,28.587,58.883,28.587C228.587,84.461,198.687,75.15,198.687,75.15z"/>
		<path d="M195.617,80.13l-0.84,1.281c18.205,10.921,53.046,39.669,53.046,39.669C223.382,95.121,195.617,80.13,195.617,80.13z"/>
	</g>
	<path d="M260.212,51.614c1.804,0.871,8.514,5.146,8.514,5.146l-0.274,0.926c-0.729,2.408-3.338,3.404-5.827,2.222
		c-2.49-1.18-3.89-4.335-3.26-6.769C259.511,52.576,260.212,51.614,260.212,51.614z"/>
	<path class="st5" d="M267.339,55.965c-0.434,1.195-1.591,1.611-2.66,1.131c-1.071-0.482-1.589-1.841-1.155-3.039l0.184-0.442
		L267.339,55.965z"/>
	<path d="M236.769,41.557c1.589,0.427,7.74,2.626,7.74,2.626l0.004,0.562c-0.002,1.458-1.779,2.176-3.966,1.599
		c-2.189-0.575-3.996-2.372-4.075-3.842C236.453,42.161,236.769,41.557,236.769,41.557z"/>
	<path class="st5" d="M243.159,43.698c-0.049,0.708-0.846,0.993-1.791,0.756c-0.948-0.238-1.677-1.004-1.63-1.712l0.038-0.263
		L243.159,43.698z"/>
</g>
</svg>
