<?xml version="1.0" encoding="utf-8"?>
<!-- Generator: Adobe Illustrator 22.0.1, SVG Export Plug-In . SVG Version: 6.00 Build 0)  -->
<svg version="1.1" id="_x221A__xF8FF_ÛÔÔ_x2021__x5F_1_x5F_1_x5F_"
	 xmlns="http://www.w3.org/2000/svg" xmlns:xlink="http://www.w3.org/1999/xlink" x="0px" y="0px" viewBox="0 0 473.133 138.771"
	 style="enable-background:new 0 0 473.133 138.771;" xml:space="preserve">
<style type="text/css">
	.st0{fill:#9EC075;}
	.st1{fill:#85A262;}
	.st2{fill-rule:evenodd;clip-rule:evenodd;fill:#98BB66;}
	.st3{fill-rule:evenodd;clip-rule:evenodd;fill:#BADB8A;}
	.st4{fill:#F1EEE9;}
	.st5{fill-rule:evenodd;clip-rule:evenodd;fill:#E2DBCF;}
	.st6{opacity:0.2;}
	.st7{fill-rule:evenodd;clip-rule:evenodd;}
	.st8{opacity:0.0314;}
	.st9{fill:#6F8C4C;}
	.st10{fill-rule:evenodd;clip-rule:evenodd;fill:#82A451;}
	.st11{fill:#698744;}
	.st12{fill-rule:evenodd;clip-rule:evenodd;fill:#7CA048;}
	.st13{opacity:0.102;}
	.st14{fill:#90AC6F;}
	.st15{fill:#8EAD60;}
	.st16{fill-rule:evenodd;clip-rule:evenodd;fill:#C5E99A;}
</style>
<g>
	<g id="_x2018_Ë_x201E_Û_xF8FF__x2021__x5F_10_x5F__x5F_x28_x5F_ÍÓÔË_x2C7__x5F_x29_x5F__x5F_4">
		<rect x="415.899" y="115.212" class="st0" width="57.234" height="22.893"/>
	</g>
	<g id="_x2018_Ë_x201E_Û_xF8FF__x2021__x5F_8_x5F__x5F_x28_x5F_ÍÓÔË_x2C7__x5F_x29_x5F__x5F_15">
		<rect x="335.771" y="115.212" class="st1" width="114.469" height="22.893"/>
	</g>
	<g id="_x2018_Ë_x201E_Û_xF8FF__x2021__x5F_8_x5F__x5F_x28_x5F_ÍÓÔË_x2C7__x5F_x29_x5F__x5F_16">
		<path class="st2" d="M335.771,137.467v0.639H450.24v-0.777l-14.45-0.207L335.771,137.467z M335.771,115.212v0.617l99.925,0.346
			l14.544-0.208v-0.755H335.771z M335.771,120.851v0.282l27.62,0.281l-27.62,0.281v0.954l18.23,0.248l-18.23,0.248v0.886l16.54,0.24
			l-16.54,0.24v0.959l34.306,0.296l-34.306,0.296v0.919l23.792,0.27l-23.792,0.27v0.865l16.417,0.239l-16.417,0.239v0.643
			l63.517,0.374l-63.517,0.374v0.735l82.554,0.375l-82.554,0.375v0.705l99.925,0.346l14.544-0.208v-0.88l-17.891-0.24l17.891-0.24
			v-0.946l-27.279-0.273l27.279-0.273v-0.595l-106.424-0.368l106.424-0.368v-0.616l-82.214-0.367l82.214-0.367v-0.727l-63.177-0.366
			l63.177-0.366v-0.737l-106.424-0.368l106.424-0.368v-0.616l-82.214-0.367l82.214-0.367v-0.727l-63.177-0.366l63.177-0.366v-0.594
			l-14.45-0.207L335.771,120.851z M335.771,133.184v0.677l63.517,0.374l-63.517,0.374v0.734l82.554,0.376l-82.554,0.375v0.635
			l100.018,0.346l14.45-0.207v-0.859l-23.452-0.262l23.452-0.261v-0.911l-33.966-0.288l33.966-0.288v-0.952l-14.544-0.208
			L335.771,133.184z M335.771,116.567v0.405l63.517,0.374l-63.517,0.374v0.735l82.554,0.375l-82.554,0.375v0.907l100.017,0.345
			l14.451-0.206v-0.86l-23.452-0.262l23.452-0.262v-0.91l-33.966-0.288l33.966-0.288v-0.952l-14.544-0.208L335.771,116.567z"/>
	</g>
	<g id="_x2018_Ë_x201E_Û_xF8FF__x2021__x5F_8_x5F__x5F_x28_x5F_ÍÓÔË_x2C7__x5F_x29_x5F__x5F_20">
		<polygon class="st3" points="473.133,116.417 459.394,116.198 473.133,115.979 473.133,115.212 450.24,115.212 450.24,115.973 
			457.707,116.198 450.24,116.424 450.24,117.398 454.864,117.671 450.24,117.942 450.24,118.874 463.344,119.126 450.24,119.379 
			450.24,120.264 471.349,120.485 450.24,120.707 450.24,121.324 455.814,121.672 450.24,122.019 450.24,122.775 461.881,123.135 
			450.24,123.492 450.24,124.126 471.359,124.483 450.24,124.841 450.24,125.575 459.357,125.939 450.24,126.305 450.24,127.052 
			453.742,127.409 450.24,127.768 450.24,128.406 464.535,128.764 450.24,129.121 450.24,129.732 456,130.002 450.24,130.27 
			450.24,131.239 462.554,131.465 450.24,131.69 450.24,132.599 454.808,132.814 450.24,133.031 450.24,134.024 458.483,134.29 
			450.24,134.556 450.24,135.491 468.426,135.741 450.24,135.991 450.24,136.877 453.87,137.098 450.24,137.32 450.24,138.105 
			473.133,138.105 473.133,137.314 461.406,137.098 473.133,136.883 473.133,135.942 471.014,135.741 473.133,135.539 
			473.133,134.545 462.989,134.29 473.133,134.035 473.133,133.02 466.043,132.814 473.133,132.611 473.133,131.677 
			465.864,131.465 473.133,131.253 473.133,130.264 460.122,130.002 473.133,129.74 473.133,129.092 467.731,128.764 
			473.133,128.435 473.133,127.749 466.099,127.409 473.133,127.07 473.133,126.292 461.56,125.939 473.133,125.588 
			473.133,124.717 472.191,124.483 473.133,124.247 473.133,123.471 465.884,123.135 473.133,122.797 473.133,122.007 
			462.69,121.672 473.133,121.338 473.133,120.646 471.841,120.485 473.133,120.324 473.133,119.36 467.258,119.126 
			473.133,118.893 473.133,117.932 463.477,117.671 473.133,117.409 		"/>
	</g>
	<g id="_x2018_Ë_x201E_Û_xF8FF__x2021__x5F_9_x5F__x5F_x28_x5F_ÍÓÔË_x2C7__x5F_x29_x5F__x5F_28">
		<rect x="383.466" y="114.546" class="st4" width="19.078" height="24.226"/>
	</g>
	<g id="_x2018_Ë_x201E_Û_xF8FF__x2021__x5F_9_x5F__x5F_x28_x5F_ÍÓÔË_x2C7__x5F_x29_x5F__x5F_29">
		<path class="st5" d="M383.466,138.771h2.385v-24.226h-2.385V138.771z M400.16,114.546v24.226h2.385v-24.226H400.16z"/>
	</g>
	<g id="_x2018_Ë_x201E_Û_xF8FF__x2021__x5F_8_x5F__x5F_x28_x5F_ÍÓÔË_x2C7__x5F_x29_x5F__x5F_43" class="st6">
		<polygon class="st7" points="415.368,115.212 335.771,115.212 335.771,138.105 420.872,138.105 		"/>
	</g>
	<g id="_x2018_Ë_x201E_Û_xF8FF__x2021__x5F_9_x5F__x5F_x28_x5F_ÍÓÔË_x2C7__x5F_x29_x5F__x5F_30">
		<path class="st5" d="M383.466,114.546v0.666h41.972v-0.666H383.466z M383.466,138.771h41.972v-0.666h-41.972V138.771z"/>
	</g>
	<g id="_x2018_Ë_x201E_Û_xF8FF__x2021__x5F_9_x5F__x5F_x28_x5F_ÍÓÔË_x2C7__x5F_x29_x5F__x5F_31" class="st8">
		<path class="st7" d="M383.466,114.546v0.666h19.078v-0.666H383.466z M383.466,138.771h19.078v-0.666h-19.078V138.771z"/>
	</g>
	<g id="_x2018_Ë_x201E_Û_xF8FF__x2021__x5F_8_x5F__x5F_x28_x5F_ÍÓÔË_x2C7__x5F_x29_x5F__x5F_44">
		<rect x="221.382" y="92.318" class="st9" width="137.362" height="22.894"/>
	</g>
	<g id="_x2018_Ë_x201E_Û_xF8FF__x2021__x5F_8_x5F__x5F_x28_x5F_ÍÓÔË_x2C7__x5F_x29_x5F__x5F_45">
		<path class="st10" d="M221.382,92.318v0.617l119.911,0.346l17.451-0.208v-0.755H221.382z M221.382,114.573v0.639h137.362v-0.777
			l-17.34-0.207L221.382,114.573z M221.382,97.957v0.282l33.144,0.281l-33.144,0.281v0.954l21.876,0.248l-21.876,0.248v0.886
			l19.848,0.24l-19.848,0.24v0.959l41.166,0.296l-41.166,0.296v0.919l28.55,0.27l-28.55,0.27v0.865l19.7,0.239l-19.7,0.239v0.643
			l76.22,0.374l-76.22,0.374v0.735l99.064,0.375l-99.064,0.375v0.705l119.911,0.346l17.451-0.208v-0.88l-21.468-0.24l21.468-0.24
			v-0.946l-32.735-0.273l32.735-0.273v-0.595l-127.708-0.368l127.708-0.368v-0.616l-98.656-0.367l98.656-0.367v-0.727l-75.811-0.366
			l75.811-0.366v-0.737l-127.708-0.368l127.708-0.368v-0.616l-98.656-0.367l98.656-0.367v-0.727l-75.811-0.366l75.811-0.366v-0.594
			l-17.34-0.207L221.382,97.957z M221.382,93.674v0.405l76.22,0.374l-76.22,0.374v0.735l99.064,0.375l-99.064,0.375v0.907
			l120.022,0.345l17.34-0.206v-0.86l-28.143-0.262l28.143-0.262v-0.91l-40.759-0.288l40.759-0.288v-0.952l-17.451-0.208
			L221.382,93.674z M221.382,110.29v0.677l76.22,0.374l-76.22,0.374v0.734l99.064,0.375l-99.064,0.376v0.635l120.022,0.346
			l17.34-0.207v-0.859l-28.143-0.262l28.143-0.262v-0.91l-40.759-0.288l40.759-0.288v-0.952l-17.451-0.208L221.382,110.29z"/>
	</g>
	<g id="_x2018_Ë_x201E_Û_xF8FF__x2021__x5F_9_x5F__x5F_x28_x5F_ÍÓÔË_x2C7__x5F_x29_x5F__x5F_63">
		<rect x="278.616" y="91.652" class="st4" width="22.893" height="24.226"/>
	</g>
	<g id="_x2018_Ë_x201E_Û_xF8FF__x2021__x5F_9_x5F__x5F_x28_x5F_ÍÓÔË_x2C7__x5F_x29_x5F__x5F_64">
		<path class="st5" d="M278.616,115.878h2.861V91.652h-2.861V115.878z M298.648,91.652v24.226h2.861V91.652H298.648z"/>
	</g>
	<g id="_x2018_Ë_x201E_Û_xF8FF__x2021__x5F_9_x5F__x5F_x28_x5F_ÍÓÔË_x2C7__x5F_x29_x5F__x5F_65" class="st8">
		<path class="st7" d="M278.616,91.652v0.666h22.893v-0.666H278.616z M278.616,115.878h22.893v-0.666h-22.893V115.878z"/>
	</g>
	<g id="_x2018_Ë_x201E_Û_xF8FF__x2021__x5F_8_x5F__x5F_x28_x5F_ÍÓÔË_x2C7__x5F_x29_x5F__x5F_46">
		<rect x="205.814" y="69.425" class="st9" width="137.362" height="22.893"/>
	</g>
	<g id="_x2018_Ë_x201E_Û_xF8FF__x2021__x5F_8_x5F__x5F_x28_x5F_ÍÓÔË_x2C7__x5F_x29_x5F__x5F_47">
		<path class="st10" d="M205.814,87.396v0.676l76.22,0.374l-76.22,0.374v0.735l99.064,0.375l-99.064,0.375v0.636l120.021,0.346
			l17.341-0.207v-0.859l-28.142-0.262l28.142-0.262v-0.91l-40.759-0.288l40.759-0.288v-0.952l-17.452-0.208L205.814,87.396z
			 M205.814,69.425v0.617l119.91,0.346l17.452-0.208v-0.755H205.814z M205.814,91.68v0.639h137.362v-0.777l-17.341-0.207
			L205.814,91.68z M205.814,70.78v0.405l76.22,0.374l-76.22,0.374v0.734l99.064,0.375l-99.064,0.376v0.906l120.021,0.346
			l17.341-0.207v-0.859l-28.142-0.262l28.142-0.262v-0.91l-40.759-0.288l40.759-0.288v-0.952l-17.452-0.208L205.814,70.78z
			 M205.814,75.063v0.281l33.144,0.281l-33.144,0.281v0.955l21.876,0.248l-21.876,0.248v0.886l19.848,0.24l-19.848,0.24v0.959
			l41.167,0.296l-41.167,0.296v0.919l28.55,0.27l-28.55,0.27v0.864l19.7,0.24l-19.7,0.239v0.643l76.22,0.374l-76.22,0.374v0.735
			l99.064,0.375l-99.064,0.375v0.705l119.91,0.346l17.452-0.208v-0.88l-21.469-0.24l21.469-0.24v-0.946l-32.735-0.273l32.735-0.273
			v-0.595l-127.708-0.368l127.708-0.368v-0.616l-98.656-0.367l98.656-0.367v-0.727l-75.813-0.365l75.813-0.366v-0.737
			l-127.708-0.368l127.708-0.368v-0.616l-98.656-0.367l98.656-0.367V76.25l-75.813-0.365l75.813-0.366v-0.594l-17.341-0.207
			L205.814,75.063z"/>
	</g>
	<g id="_x2018_Ë_x201E_Û_xF8FF__x2021__x5F_9_x5F__x5F_x28_x5F_ÍÓÔË_x2C7__x5F_x29_x5F__x5F_66">
		<rect x="263.048" y="68.759" class="st4" width="22.894" height="24.226"/>
	</g>
	<g id="_x2018_Ë_x201E_Û_xF8FF__x2021__x5F_9_x5F__x5F_x28_x5F_ÍÓÔË_x2C7__x5F_x29_x5F__x5F_67">
		<path class="st5" d="M263.048,92.984h2.861V68.759h-2.861V92.984z M283.081,68.759v24.226h2.861V68.759H283.081z"/>
	</g>
	<g id="_x2018_Ë_x201E_Û_xF8FF__x2021__x5F_9_x5F__x5F_x28_x5F_ÍÓÔË_x2C7__x5F_x29_x5F__x5F_68" class="st8">
		<path class="st7" d="M263.048,68.759v0.666h22.894v-0.666H263.048z M263.048,92.984h22.894v-0.666h-22.894V92.984z"/>
	</g>
	<g id="_x2018_Ë_x201E_Û_xF8FF__x2021__x5F_8_x5F__x5F_x28_x5F_ÍÓÔË_x2C7__x5F_x29_x5F__x5F_48">
		<rect x="173.763" y="46.531" class="st9" width="137.362" height="22.894"/>
	</g>
	<g id="_x2018_Ë_x201E_Û_xF8FF__x2021__x5F_8_x5F__x5F_x28_x5F_ÍÓÔË_x2C7__x5F_x29_x5F__x5F_49">
		<path class="st10" d="M173.763,46.531v0.617l119.911,0.346l17.451-0.208v-0.755H173.763z M173.763,64.503v0.676l76.22,0.374
			l-76.22,0.374v0.735l99.064,0.375l-99.064,0.375v0.636l120.022,0.346l17.34-0.207v-0.859l-28.142-0.262l28.142-0.262v-0.911
			l-40.759-0.287l40.759-0.288v-0.952l-17.451-0.208L173.763,64.503z M173.763,68.786v0.639h137.362v-0.777l-17.34-0.207
			L173.763,68.786z M173.763,52.17v0.281l33.143,0.281l-33.143,0.281v0.955l21.876,0.248l-21.876,0.248v0.886l19.848,0.24
			l-19.848,0.24v0.959l41.167,0.296l-41.167,0.296v0.919l28.551,0.269l-28.551,0.27v0.864l19.7,0.239l-19.7,0.239v0.644l76.22,0.374
			l-76.22,0.374v0.734l99.064,0.376l-99.064,0.375v0.705l119.911,0.346l17.451-0.208v-0.88l-21.468-0.24l21.468-0.24v-0.947
			l-32.735-0.272l32.735-0.273v-0.595l-127.708-0.368l127.708-0.368v-0.616l-98.656-0.367l98.656-0.367V57.64l-75.812-0.365
			l75.812-0.366v-0.737l-127.708-0.368l127.708-0.368v-0.616l-98.656-0.367l98.656-0.367v-0.728l-75.812-0.366l75.812-0.365v-0.594
			l-17.34-0.207L173.763,52.17z M173.763,47.887v0.404l76.22,0.375l-76.22,0.374v0.734l99.064,0.375l-99.064,0.375v0.907
			l120.022,0.346l17.34-0.207v-0.859l-28.142-0.262l28.142-0.262v-0.91l-40.759-0.288l40.759-0.288v-0.952l-17.451-0.208
			L173.763,47.887z"/>
	</g>
	<g id="_x2018_Ë_x201E_Û_xF8FF__x2021__x5F_9_x5F__x5F_x28_x5F_ÍÓÔË_x2C7__x5F_x29_x5F__x5F_69">
		<rect x="230.997" y="45.865" class="st4" width="22.894" height="24.226"/>
	</g>
	<g id="_x2018_Ë_x201E_Û_xF8FF__x2021__x5F_9_x5F__x5F_x28_x5F_ÍÓÔË_x2C7__x5F_x29_x5F__x5F_70">
		<path class="st5" d="M230.997,70.091h2.861V45.865h-2.861V70.091z M251.029,45.865v24.226h2.862V45.865H251.029z"/>
	</g>
	<g id="_x2018_Ë_x201E_Û_xF8FF__x2021__x5F_9_x5F__x5F_x28_x5F_ÍÓÔË_x2C7__x5F_x29_x5F__x5F_71" class="st8">
		<path class="st7" d="M230.997,45.865v0.666h22.894v-0.666H230.997z M230.997,70.091h22.894v-0.666h-22.894V70.091z"/>
	</g>
	<g id="_x2018_Ë_x201E_Û_xF8FF__x2021__x5F_8_x5F__x5F_x28_x5F_ÍÓÔË_x2C7__x5F_x29_x5F__x5F_50">
		<rect x="105.082" y="69.425" class="st9" width="137.362" height="22.893"/>
	</g>
	<g id="_x2018_Ë_x201E_Û_xF8FF__x2021__x5F_8_x5F__x5F_x28_x5F_ÍÓÔË_x2C7__x5F_x29_x5F__x5F_51">
		<path class="st10" d="M105.082,69.425v0.617l119.91,0.346l17.452-0.208v-0.755H105.082z M105.082,91.68v0.639h137.362v-0.777
			l-17.34-0.207L105.082,91.68z M105.082,87.396v0.676l76.22,0.374l-76.22,0.374v0.735l99.064,0.375l-99.064,0.375v0.636
			l120.022,0.346l17.34-0.207v-0.859l-28.142-0.262l28.142-0.262v-0.91l-40.759-0.288l40.759-0.288v-0.952l-17.452-0.208
			L105.082,87.396z M105.082,70.78v0.405l76.22,0.374l-76.22,0.374v0.734l99.064,0.375l-99.064,0.376v0.906l120.022,0.346
			l17.34-0.207v-0.859l-28.142-0.262l28.142-0.262v-0.91l-40.759-0.288l40.759-0.288v-0.952l-17.452-0.208L105.082,70.78z
			 M105.082,75.063v0.281l33.144,0.281l-33.144,0.281v0.955l21.877,0.248l-21.877,0.248v0.886l19.848,0.24l-19.848,0.24v0.959
			l41.166,0.296l-41.166,0.296v0.919l28.55,0.27l-28.55,0.27v0.864l19.7,0.24l-19.7,0.239v0.643l76.22,0.374l-76.22,0.374v0.735
			l99.064,0.375l-99.064,0.375v0.705l119.91,0.346l17.452-0.208v-0.88l-21.468-0.24l21.468-0.24v-0.946l-32.735-0.273l32.735-0.273
			v-0.595l-127.708-0.368l127.708-0.368v-0.616l-98.656-0.367l98.656-0.367v-0.727l-75.812-0.365l75.812-0.366v-0.737
			l-127.708-0.368l127.708-0.368v-0.616l-98.656-0.367l98.656-0.367V76.25l-75.812-0.365l75.812-0.366v-0.594l-17.34-0.207
			L105.082,75.063z"/>
	</g>
	<g id="_x2018_Ë_x201E_Û_xF8FF__x2021__x5F_9_x5F__x5F_x28_x5F_ÍÓÔË_x2C7__x5F_x29_x5F__x5F_72">
		<rect x="162.316" y="68.759" class="st4" width="22.893" height="24.226"/>
	</g>
	<g id="_x2018_Ë_x201E_Û_xF8FF__x2021__x5F_9_x5F__x5F_x28_x5F_ÍÓÔË_x2C7__x5F_x29_x5F__x5F_73">
		<path class="st5" d="M162.316,92.984h2.862V68.759h-2.862V92.984z M182.348,68.759v24.226h2.861V68.759H182.348z"/>
	</g>
	<g id="_x2018_Ë_x201E_Û_xF8FF__x2021__x5F_9_x5F__x5F_x28_x5F_ÍÓÔË_x2C7__x5F_x29_x5F__x5F_74" class="st8">
		<path class="st7" d="M162.316,92.984h22.893v-0.666h-22.893V92.984z M162.316,68.759v0.666h22.893v-0.666H162.316z"/>
	</g>
	<g id="_x2018_Ë_x201E_Û_xF8FF__x2021__x5F_8_x5F__x5F_x28_x5F_ÍÓÔË_x2C7__x5F_x29_x5F__x5F_52" class="st6">
		<polygon class="st7" points="137.575,69.425 105.082,69.425 105.082,92.318 121.657,92.318 		"/>
	</g>
	<g id="_x2018_Ë_x201E_Û_xF8FF__x2021__x5F_8_x5F__x5F_x28_x5F_ÍÓÔË_x2C7__x5F_x29_x5F__x5F_21">
		<rect x="188.872" y="115.212" class="st1" width="137.362" height="22.893"/>
	</g>
	<g id="_x2018_Ë_x201E_Û_xF8FF__x2021__x5F_8_x5F__x5F_x28_x5F_ÍÓÔË_x2C7__x5F_x29_x5F__x5F_53">
		<path class="st2" d="M188.872,137.467v0.639h137.362v-0.777l-17.341-0.207L188.872,137.467z M188.872,116.567v0.405l76.22,0.374
			l-76.22,0.374v0.735l99.064,0.375l-99.064,0.375v0.907l120.021,0.345l17.341-0.206v-0.86l-28.143-0.262l28.143-0.261v-0.911
			l-40.759-0.288l40.759-0.288v-0.952l-17.452-0.208L188.872,116.567z M188.872,115.212v0.617l119.91,0.346l17.452-0.208v-0.755
			H188.872z M188.872,120.851v0.282l33.144,0.281l-33.144,0.281v0.954l21.876,0.248l-21.876,0.249v0.885l19.848,0.24l-19.848,0.24
			v0.959l41.167,0.296l-41.167,0.296v0.919l28.551,0.27l-28.551,0.27v0.865l19.7,0.239l-19.7,0.239v0.643l76.22,0.374l-76.22,0.374
			v0.735l99.064,0.375l-99.064,0.375v0.705l119.91,0.346l17.452-0.208v-0.88l-21.469-0.24l21.469-0.24v-0.946l-32.735-0.273
			l32.735-0.273v-0.595l-127.709-0.368l127.709-0.368v-0.616l-98.657-0.367l98.657-0.367v-0.727l-75.813-0.366l75.813-0.366v-0.737
			l-127.709-0.368l127.709-0.368v-0.616l-98.657-0.367l98.657-0.367v-0.727l-75.813-0.366l75.813-0.366v-0.594l-17.341-0.207
			L188.872,120.851z M188.872,133.184v0.677l76.22,0.374l-76.22,0.374v0.734l99.064,0.376l-99.064,0.375v0.635l120.021,0.346
			l17.341-0.207v-0.859l-28.143-0.262l28.143-0.261v-0.911l-40.759-0.288l40.759-0.288v-0.952l-17.452-0.208L188.872,133.184z"/>
	</g>
	<g id="_x2018_Ë_x201E_Û_xF8FF__x2021__x5F_9_x5F__x5F_x28_x5F_ÍÓÔË_x2C7__x5F_x29_x5F__x5F_75">
		<rect x="246.107" y="114.546" class="st4" width="22.893" height="24.226"/>
	</g>
	<g id="_x2018_Ë_x201E_Û_xF8FF__x2021__x5F_9_x5F__x5F_x28_x5F_ÍÓÔË_x2C7__x5F_x29_x5F__x5F_76">
		<path class="st5" d="M246.107,138.771h2.861v-24.226h-2.861V138.771z M266.139,114.546v24.226H269v-24.226H266.139z"/>
	</g>
	<g id="_x2018_Ë_x201E_Û_xF8FF__x2021__x5F_9_x5F__x5F_x28_x5F_ÍÓÔË_x2C7__x5F_x29_x5F__x5F_77" class="st8">
		<path class="st7" d="M246.107,138.771H269v-0.666h-22.893V138.771z M246.107,114.546v0.666H269v-0.666H246.107z"/>
	</g>
	<g id="_x2018_Ë_x201E_Û_xF8FF__x2021__x5F_8_x5F__x5F_x28_x5F_ÍÓÔË_x2C7__x5F_x29_x5F__x5F_54" class="st6">
		<polygon points="285.876,44.932 262.94,100.651 284.169,115.2 298.618,115.213 326.235,138.105 326.235,82.176 		"/>
	</g>
	<g id="_x2018_Ë_x201E_Û_xF8FF__x2021__x5F_10_x5F__x5F_x28_x5F_ÍÓÔË_x2C7__x5F_x29_x5F__x5F_9">
		<rect x="220.008" y="23.638" class="st1" width="57.235" height="22.894"/>
	</g>
	<g id="_x2018_Ë_x201E_Û_xF8FF__x2021__x5F_8_x5F__x5F_x28_x5F_ÍÓÔË_x2C7__x5F_x29_x5F__x5F_55">
		<rect x="139.88" y="23.638" class="st9" width="114.468" height="22.894"/>
	</g>
	<g id="_x2018_Ë_x201E_Û_xF8FF__x2021__x5F_8_x5F__x5F_x28_x5F_ÍÓÔË_x2C7__x5F_x29_x5F__x5F_56">
		<path class="st10" d="M139.88,23.638v0.617l99.925,0.346l14.543-0.208v-0.755H139.88z M139.88,45.893v0.639h114.468v-0.777
			l-14.45-0.207L139.88,45.893z M139.88,41.609v0.676l63.517,0.374l-63.517,0.374v0.735l82.554,0.375l-82.554,0.375v0.636
			L239.898,45.5l14.45-0.207v-0.859l-23.452-0.262l23.452-0.262v-0.911l-33.965-0.287l33.965-0.288v-0.952l-14.543-0.208
			L139.88,41.609z M139.88,29.276v0.281l27.62,0.281l-27.62,0.281v0.955l18.23,0.248l-18.23,0.248v0.886l16.54,0.24l-16.54,0.24
			v0.959l34.306,0.296l-34.306,0.296v0.919l23.792,0.269l-23.792,0.27v0.864l16.417,0.239l-16.417,0.239v0.644l63.517,0.374
			l-63.517,0.374v0.734l82.554,0.375l-82.554,0.375v0.706l99.925,0.346l14.543-0.208v-0.88l-17.89-0.24l17.89-0.24v-0.947
			l-27.279-0.274l27.279-0.272V37.56l-106.423-0.368l106.423-0.368v-0.616l-82.213-0.367l82.213-0.367v-0.728l-63.176-0.366
			l63.176-0.365v-0.737l-106.423-0.368l106.423-0.368v-0.616l-82.213-0.367l82.213-0.367v-0.727l-63.176-0.366l63.176-0.366v-0.593
			l-14.45-0.207L139.88,29.276z M139.88,24.993v0.404l63.517,0.374l-63.517,0.375v0.734l82.554,0.375l-82.554,0.375v0.907
			l100.018,0.346l14.45-0.207v-0.859l-23.452-0.262l23.452-0.262v-0.911l-33.965-0.287l33.965-0.288v-0.952l-14.543-0.208
			L139.88,24.993z"/>
	</g>
	<g id="_x2018_Ë_x201E_Û_xF8FF__x2021__x5F_8_x5F__x5F_x28_x5F_ÍÓÔË_x2C7__x5F_x29_x5F__x5F_57">
		<polygon class="st2" points="277.243,24.843 263.502,24.624 277.243,24.405 277.243,23.638 254.348,23.638 254.348,24.398 
			261.817,24.624 254.348,24.85 254.348,25.824 258.973,26.097 254.348,26.367 254.348,27.299 267.454,27.552 254.348,27.804 
			254.348,28.688 275.458,28.91 254.348,29.131 254.348,29.749 259.923,30.098 254.348,30.444 254.348,31.201 265.991,31.56 
			254.348,31.918 254.348,32.552 275.467,32.909 254.348,33.267 254.348,34.001 263.465,34.365 254.348,34.729 254.348,35.476 
			257.85,35.835 254.348,36.192 254.348,36.831 268.644,37.189 254.348,37.547 254.348,38.158 260.11,38.428 254.348,38.695 
			254.348,39.664 266.663,39.891 254.348,40.116 254.348,41.023 258.917,41.24 254.348,41.456 254.348,42.45 262.592,42.716 
			254.348,42.98 254.348,43.917 272.536,44.167 254.348,44.416 254.348,45.302 257.979,45.523 254.348,45.745 254.348,46.531 
			277.243,46.531 277.243,45.739 265.515,45.523 277.243,45.308 277.243,44.367 275.124,44.167 277.243,43.965 277.243,42.97 
			267.098,42.716 277.243,42.461 277.243,41.444 270.153,41.24 277.243,41.036 277.243,40.102 269.972,39.891 277.243,39.678 
			277.243,38.688 264.231,38.428 277.243,38.166 277.243,37.518 271.84,37.189 277.243,36.859 277.243,36.174 270.208,35.835 
			277.243,35.495 277.243,34.717 265.668,34.365 277.243,34.014 277.243,33.143 276.3,32.909 277.243,32.673 277.243,31.896 
			269.993,31.56 277.243,31.223 277.243,30.432 266.799,30.098 277.243,29.763 277.243,29.07 275.951,28.91 277.243,28.749 
			277.243,27.785 271.368,27.552 277.243,27.317 277.243,26.356 267.586,26.097 277.243,25.835 		"/>
	</g>
	<g id="_x2018_Ë_x201E_Û_xF8FF__x2021__x5F_8_x5F__x5F_x28_x5F_ÍÓÔË_x2C7__x5F_x29_x5F__x5F_58" class="st6">
		<polygon class="st7" points="259.437,23.638 254.348,23.638 254.348,46.531 261.754,46.531 		"/>
	</g>
	<g id="_x2018_Ë_x201E_Û_xF8FF__x2021__x5F_9_x5F__x5F_x28_x5F_ÍÓÔË_x2C7__x5F_x29_x5F__x5F_78">
		<rect x="187.575" y="22.971" class="st4" width="19.078" height="24.227"/>
	</g>
	<g id="_x2018_Ë_x201E_Û_xF8FF__x2021__x5F_9_x5F__x5F_x28_x5F_ÍÓÔË_x2C7__x5F_x29_x5F__x5F_79">
		<path class="st5" d="M187.575,47.197h2.385V22.971h-2.385V47.197z M204.268,22.971v24.227h2.385V22.971H204.268z"/>
	</g>
	<g id="_x2018_Ë_x201E_Û_xF8FF__x2021__x5F_9_x5F__x5F_x28_x5F_ÍÓÔË_x2C7__x5F_x29_x5F__x5F_80">
		<path class="st5" d="M187.575,47.197h41.972v-0.666h-41.972V47.197z M187.575,22.971v0.667h41.972v-0.667H187.575z"/>
	</g>
	<g id="_x2018_Ë_x201E_Û_xF8FF__x2021__x5F_9_x5F__x5F_x28_x5F_ÍÓÔË_x2C7__x5F_x29_x5F__x5F_81" class="st8">
		<path class="st7" d="M187.575,22.971v0.667h19.078v-0.667H187.575z M187.575,47.197h19.078v-0.666h-19.078V47.197z"/>
	</g>
	<g id="_x2018_Ë_x201E_Û_xF8FF__x2021__x5F_10_x5F__x5F_x28_x5F_ÍÓÔË_x2C7__x5F_x29_x5F__x5F_10">
		<rect x="133.928" y="92.318" class="st0" width="57.234" height="22.894"/>
	</g>
	<g id="_x2018_Ë_x201E_Û_xF8FF__x2021__x5F_8_x5F__x5F_x28_x5F_ÍÓÔË_x2C7__x5F_x29_x5F__x5F_59">
		<rect x="53.8" y="92.318" class="st1" width="114.468" height="22.894"/>
	</g>
	<g id="_x2018_Ë_x201E_Û_xF8FF__x2021__x5F_8_x5F__x5F_x28_x5F_ÍÓÔË_x2C7__x5F_x29_x5F__x5F_60">
		<path class="st2" d="M53.8,114.573v0.639h114.468v-0.777l-14.45-0.207L53.8,114.573z M53.8,92.318v0.617l99.925,0.346
			l14.543-0.208v-0.755H53.8z M53.8,93.674v0.405l63.517,0.374L53.8,94.827v0.735l82.554,0.375L53.8,96.313v0.906l100.018,0.346
			l14.45-0.207v-0.859l-23.452-0.262l23.452-0.262v-0.91l-33.965-0.288l33.965-0.288v-0.952l-14.543-0.208L53.8,93.674z
			 M53.8,97.957v0.281l27.62,0.281L53.8,98.801v0.955l18.23,0.248l-18.23,0.248v0.886l16.54,0.24l-16.54,0.24v0.959l34.305,0.296
			L53.8,103.169v0.919l23.792,0.27l-23.792,0.27v0.865l16.417,0.239L53.8,105.971v0.643l63.517,0.374L53.8,107.361v0.735
			l82.554,0.375L53.8,108.847v0.705l99.925,0.346l14.543-0.208v-0.88l-17.89-0.24l17.89-0.24v-0.946l-27.279-0.273l27.279-0.273
			v-0.595l-106.423-0.368l106.423-0.368v-0.616l-82.213-0.367l82.213-0.367v-0.727l-63.176-0.366l63.176-0.366v-0.737L61.845,101.59
			l106.423-0.368v-0.616l-82.213-0.367l82.213-0.367v-0.727l-63.176-0.366l63.176-0.366v-0.594l-14.45-0.207L53.8,97.957z
			 M53.8,110.29v0.677l63.517,0.374L53.8,111.715v0.734l82.554,0.375L53.8,113.2v0.635l100.018,0.346l14.45-0.207v-0.859
			l-23.452-0.262l23.452-0.262v-0.91l-33.965-0.288l33.965-0.288v-0.952l-14.543-0.208L53.8,110.29z"/>
	</g>
	<g id="_x2018_Ë_x201E_Û_xF8FF__x2021__x5F_8_x5F__x5F_x28_x5F_ÍÓÔË_x2C7__x5F_x29_x5F__x5F_61">
		<polygon class="st3" points="191.162,93.523 177.423,93.305 191.162,93.086 191.162,92.318 168.268,92.318 168.268,93.079 
			175.736,93.305 168.268,93.53 168.268,94.505 172.893,94.777 168.268,95.049 168.268,95.98 181.373,96.232 168.268,96.485 
			168.268,97.37 189.378,97.592 168.268,97.813 168.268,98.43 173.843,98.778 168.268,99.125 168.268,99.882 179.91,100.24 
			168.268,100.599 168.268,101.232 189.388,101.59 168.268,101.947 168.268,102.682 177.386,103.046 168.268,103.411 
			168.268,104.158 171.77,104.516 168.268,104.874 168.268,105.513 182.564,105.87 168.268,106.228 168.268,106.839 174.03,107.108 
			168.268,107.377 168.268,108.346 180.583,108.571 168.268,108.797 168.268,109.705 172.837,109.921 168.268,110.137 
			168.268,111.131 176.512,111.396 168.268,111.662 168.268,112.598 186.455,112.848 168.268,113.098 168.268,113.983 
			171.898,114.204 168.268,114.427 168.268,115.212 191.162,115.212 191.162,114.42 179.434,114.204 191.162,113.988 
			191.162,113.049 189.043,112.848 191.162,112.646 191.162,111.651 181.018,111.396 191.162,111.142 191.162,110.125 
			184.072,109.921 191.162,109.718 191.162,108.783 183.892,108.571 191.162,108.359 191.162,107.37 178.151,107.108 
			191.162,106.847 191.162,106.198 185.76,105.87 191.162,105.541 191.162,104.855 184.128,104.516 191.162,104.177 
			191.162,103.398 179.589,103.046 191.162,102.694 191.162,101.823 190.22,101.59 191.162,101.354 191.162,100.577 183.913,100.24 
			191.162,99.903 191.162,99.112 180.719,98.778 191.162,98.443 191.162,97.752 189.871,97.592 191.162,97.431 191.162,96.467 
			185.288,96.232 191.162,95.999 191.162,95.038 181.506,94.777 191.162,94.516 		"/>
	</g>
	<g id="_x2018_Ë_x201E_Û_xF8FF__x2021__x5F_9_x5F__x5F_x28_x5F_ÍÓÔË_x2C7__x5F_x29_x5F__x5F_82">
		<rect x="101.495" y="91.652" class="st4" width="19.078" height="24.226"/>
	</g>
	<g id="_x2018_Ë_x201E_Û_xF8FF__x2021__x5F_9_x5F__x5F_x28_x5F_ÍÓÔË_x2C7__x5F_x29_x5F__x5F_83">
		<path class="st5" d="M101.495,115.878h2.385V91.652h-2.385V115.878z M118.188,91.652v24.226h2.385V91.652H118.188z"/>
	</g>
	<g id="_x2018_Ë_x201E_Û_xF8FF__x2021__x5F_9_x5F__x5F_x28_x5F_ÍÓÔË_x2C7__x5F_x29_x5F__x5F_84">
		<path class="st5" d="M101.495,91.652v0.666h41.972v-0.666H101.495z M101.495,115.878h41.972v-0.666h-41.972V115.878z"/>
	</g>
	<g id="_x2018_Ë_x201E_Û_xF8FF__x2021__x5F_9_x5F__x5F_x28_x5F_ÍÓÔË_x2C7__x5F_x29_x5F__x5F_85" class="st8">
		<path class="st7" d="M101.495,91.652v0.666h19.078v-0.666H101.495z M101.495,115.878h19.078v-0.666h-19.078V115.878z"/>
	</g>
	<g id="_x2018_Ë_x201E_Û_xF8FF__x2021__x5F_8_x5F__x5F_x28_x5F_ÍÓÔË_x2C7__x5F_x29_x5F__x5F_62" class="st6">
		<polygon class="st7" points="98.348,92.318 53.8,92.318 53.8,115.212 81.464,115.212 		"/>
	</g>
	<g id="_x2018_Ë_x201E_Û_xF8FF__x2021__x5F_10_x5F__x5F_x28_x5F_ÍÓÔË_x2C7__x5F_x29_x5F__x5F_11">
		<rect x="78.296" y="46.531" class="st11" width="57.234" height="22.894"/>
	</g>
	<g id="_x2018_Ë_x201E_Û_xF8FF__x2021__x5F_8_x5F__x5F_x28_x5F_ÍÓÔË_x2C7__x5F_x29_x5F__x5F_63">
		<rect x="101.19" y="46.531" class="st1" width="114.468" height="22.894"/>
	</g>
	<g id="_x2018_Ë_x201E_Û_xF8FF__x2021__x5F_8_x5F__x5F_x28_x5F_ÍÓÔË_x2C7__x5F_x29_x5F__x5F_64">
		<path class="st2" d="M101.19,68.647v0.777h114.468v-0.639L115.64,68.44L101.19,68.647z M101.19,64.365v0.952l33.965,0.288
			l-33.965,0.287v0.911l23.452,0.262l-23.452,0.262v0.859l14.45,0.207l100.019-0.346v-0.636l-82.554-0.375l82.554-0.375v-0.735
			l-63.517-0.374l63.517-0.374v-0.676l-99.925-0.346L101.19,64.365z M101.19,47.749v0.952l33.965,0.288l-33.965,0.288v0.91
			l23.452,0.262l-23.452,0.262v0.859l14.45,0.207l100.019-0.346v-0.907l-82.554-0.375l82.554-0.375V49.04l-63.517-0.374
			l63.517-0.375v-0.404l-99.925-0.346L101.19,47.749z M101.19,46.531v0.755l14.543,0.208l99.925-0.346v-0.617H101.19z
			 M101.19,52.031v0.594l63.176,0.365l-63.176,0.366v0.728l82.213,0.367l-82.213,0.367v0.616l106.423,0.368L101.19,56.171v0.737
			l63.176,0.365L101.19,57.64v0.728l82.213,0.367l-82.213,0.367v0.616l106.423,0.368L101.19,60.454v0.595l27.279,0.273
			l-27.279,0.272v0.947l17.89,0.24l-17.89,0.24v0.88l14.543,0.208l99.925-0.346V63.06l-82.554-0.375l82.554-0.376v-0.734
			L152.142,61.2l63.517-0.374v-0.644l-16.416-0.239l16.416-0.239V58.84l-23.792-0.27l23.792-0.269v-0.919l-34.306-0.296
			l34.306-0.296v-0.959l-16.54-0.24l16.54-0.24v-0.886l-18.23-0.248l18.23-0.248v-0.955l-27.62-0.281l27.62-0.281V52.17
			L115.64,51.824L101.19,52.031z"/>
	</g>
	<g id="_x2018_Ë_x201E_Û_xF8FF__x2021__x5F_8_x5F__x5F_x28_x5F_ÍÓÔË_x2C7__x5F_x29_x5F__x5F_65">
		<polygon class="st12" points="101.19,46.531 78.296,46.531 78.296,47.299 92.036,47.518 78.296,47.736 78.296,48.729 
			87.953,48.99 78.296,49.25 78.296,50.211 84.171,50.445 78.296,50.68 78.296,51.643 79.588,51.804 78.296,51.964 78.296,52.656 
			88.74,52.991 78.296,53.325 78.296,54.116 85.545,54.453 78.296,54.79 78.296,55.566 79.238,55.803 78.296,56.036 78.296,56.907 
			89.869,57.259 78.296,57.61 78.296,58.389 85.329,58.729 78.296,59.068 78.296,59.754 83.698,60.083 78.296,60.411 78.296,61.06 
			91.307,61.321 78.296,61.582 78.296,62.571 85.566,62.784 78.296,62.996 78.296,63.931 85.386,64.134 78.296,64.338 
			78.296,65.354 88.44,65.609 78.296,65.864 78.296,66.858 80.415,67.061 78.296,67.261 78.296,68.201 90.023,68.417 78.296,68.633 
			78.296,69.425 101.19,69.425 101.19,68.64 97.56,68.417 101.19,68.195 101.19,67.31 83.003,67.061 101.19,66.811 101.19,65.875 
			92.947,65.609 101.19,65.344 101.19,64.35 96.621,64.134 101.19,63.918 101.19,63.01 88.875,62.784 101.19,62.558 101.19,61.589 
			95.429,61.321 101.19,61.052 101.19,60.44 86.894,60.083 101.19,59.726 101.19,59.087 97.688,58.729 101.19,58.37 101.19,57.623 
			92.072,57.259 101.19,56.894 101.19,56.16 80.071,55.803 101.19,55.445 101.19,54.811 89.548,54.453 101.19,54.095 101.19,53.338 
			95.615,52.991 101.19,52.643 101.19,52.025 80.08,51.804 101.19,51.582 101.19,50.698 88.085,50.445 101.19,50.192 101.19,49.261 
			96.565,48.99 101.19,48.718 101.19,47.743 93.722,47.518 101.19,47.292 		"/>
	</g>
	<g id="_x2018_Ë_x201E_Û_xF8FF__x2021__x5F_9_x5F__x5F_x28_x5F_ÍÓÔË_x2C7__x5F_x29_x5F__x5F_86">
		<rect x="148.885" y="45.865" class="st4" width="19.078" height="24.226"/>
	</g>
	<g id="_x2018_Ë_x201E_Û_xF8FF__x2021__x5F_9_x5F__x5F_x28_x5F_ÍÓÔË_x2C7__x5F_x29_x5F__x5F_87">
		<path class="st5" d="M148.885,70.091h2.385V45.865h-2.385V70.091z M165.578,45.865v24.226h2.385V45.865H165.578z"/>
	</g>
	<g id="_x2018_Ë_x201E_Û_xF8FF__x2021__x5F_9_x5F__x5F_x28_x5F_ÍÓÔË_x2C7__x5F_x29_x5F__x5F_88">
		<path class="st5" d="M125.991,45.865v0.666h41.972v-0.666H125.991z M125.991,70.091h41.972v-0.666h-41.972V70.091z"/>
	</g>
	<g id="_x2018_Ë_x201E_Û_xF8FF__x2021__x5F_9_x5F__x5F_x28_x5F_ÍÓÔË_x2C7__x5F_x29_x5F__x5F_89" class="st8">
		<path class="st7" d="M148.885,45.865v0.666h19.078v-0.666H148.885z M148.885,70.091h19.078v-0.666h-19.078V70.091z"/>
	</g>
	<g id="_x2018_Ë_x201E_Û_xF8FF__x2021__x5F_6_x5F__x5F_x28_x5F_ÍÓÔË_x2C7__x5F_x29_x5F__x5F_16" class="st13">
		<polygon points="113.82,80.211 105.21,138.771 250.645,138.718 251.638,74.792 		"/>
	</g>
	<g id="_x2018_Ë_x201E_Û_xF8FF__x2021__x5F_6_x5F__x5F_x28_x5F_ÍÓÔË_x2C7__x5F_x29_x5F__x5F_17">
		
			<rect x="153.616" y="40.783" transform="matrix(0.0093 -1 1 0.0093 71.0813 290.673)" class="st14" width="57.234" height="137.362"/>
	</g>
	<g id="_x2018_Ë_x201E_Û_xF8FF__x2021__x5F_6_x5F__x5F_x28_x5F_ÍÓÔË_x2C7__x5F_x29_x5F__x5F_18">
		
			<rect x="114.097" y="80.49" transform="matrix(1 -0.0093 0.0093 1 -1.0052 1.7018)" class="st14" width="137.361" height="57.234"/>
	</g>
	<g id="_x2018_Ë_x201E_Û_xF8FF__x2021__x5F_6_x5F__x5F_x28_x5F_ÍÓÔË_x2C7__x5F_x29_x5F__x5F_19">
		<rect x="114.697" y="80.707" class="st15" width="137.362" height="57.234"/>
	</g>
	<g id="_x2018_Ë_x201E_Û_xF8FF__x2021__x5F_7_x5F__x5F_x28_x5F_ÍÓÔË_x2C7__x5F_x29_x5F__x5F_4">
		<path class="st16" d="M234.889,86.431H131.867c0,6.321-5.125,11.446-11.447,11.446v25.87c5.291,0,9.73,3.595,11.042,8.471h103.831
			c1.312-4.876,5.752-8.471,11.042-8.471v-25.87C240.014,97.877,234.889,92.752,234.889,86.431z M149.038,115.048
			c-3.161,0-5.723-2.563-5.723-5.724s2.562-5.724,5.723-5.724c3.161,0,5.723,2.562,5.723,5.724S152.198,115.048,149.038,115.048z
			 M183.492,126.494c-7.902,0-14.308-7.688-14.308-17.17c0-9.483,6.406-17.171,14.308-17.171c7.902,0,14.309,7.688,14.309,17.171
			C197.801,118.807,191.395,126.494,183.492,126.494z M217.719,115.048c-3.161,0-5.724-2.563-5.724-5.724s2.563-5.724,5.724-5.724
			c3.161,0,5.723,2.562,5.723,5.724S220.879,115.048,217.719,115.048z"/>
	</g>
	<g id="_x2018_Ë_x201E_Û_xF8FF__x2021__x5F_9_x5F__x5F_x28_x5F_ÍÓÔË_x2C7__x5F_x29_x5F__x5F_90">
		<rect x="156.821" y="79.99" class="st4" width="22.894" height="58.668"/>
	</g>
	<g id="_x2018_Ë_x201E_Û_xF8FF__x2021__x5F_9_x5F__x5F_x28_x5F_ÍÓÔË_x2C7__x5F_x29_x5F__x5F_91">
		<path class="st5" d="M156.821,138.658h2.862V79.99h-2.862V138.658z M176.854,79.99v58.668h2.862V79.99H176.854z"/>
	</g>
	<g id="_x2018_Ë_x201E_Û_xF8FF__x2021__x5F_9_x5F__x5F_x28_x5F_ÍÓÔË_x2C7__x5F_x29_x5F__x5F_92" class="st8">
		<path class="st7" d="M156.821,79.99v0.717h22.894V79.99H156.821z M156.821,138.658h22.894v-0.717h-22.894V138.658z"/>
	</g>
	<g id="_x2018_Ë_x201E_Û_xF8FF__x2021__x5F_11_x5F__x5F_x28_x5F_ÍÓÔË_x2C7__x5F_x29_x5F_" class="st6">
		<polygon points="254.729,45.962 199.428,23.788 189.474,138.771 265.763,138.771 		"/>
	</g>
	<g id="_x2018_Ë_x201E_Û_xF8FF__x2021__x5F_6_x5F__x5F_x28_x5F_ÍÓÔË_x2C7__x5F_x29_x5F__x5F_20">
		
			<rect x="159.616" y="41.209" transform="matrix(0.0093 -1 1 0.0093 156.353 297.4644)" class="st14" width="137.361" height="57.234"/>
	</g>
	<g id="_x2018_Ë_x201E_Û_xF8FF__x2021__x5F_6_x5F__x5F_x28_x5F_ÍÓÔË_x2C7__x5F_x29_x5F__x5F_21">
		<rect x="199.322" y="0.6" transform="matrix(1 -0.0093 0.0093 1 -0.6344 2.1225)" class="st14" width="57.234" height="137.362"/>
	</g>
	<g id="_x2018_Ë_x201E_Û_xF8FF__x2021__x5F_6_x5F__x5F_x28_x5F_ÍÓÔË_x2C7__x5F_x29_x5F__x5F_22">
		<rect x="199.539" class="st15" width="57.234" height="137.361"/>
	</g>
	<g id="_x2018_Ë_x201E_Û_xF8FF__x2021__x5F_7_x5F__x5F_x28_x5F_ÍÓÔË_x2C7__x5F_x29_x5F__x5F_7">
		<path class="st16" d="M242.579,5.724h-25.87c0,6.321-5.124,11.446-11.446,11.446v103.021c6.322,0,11.446,5.125,11.446,11.447
			h25.87c0-5.291,3.595-9.731,8.471-11.043V16.766C246.174,15.454,242.579,11.014,242.579,5.724z M228.157,28.617
			c3.161,0,5.723,2.562,5.723,5.723c0,3.161-2.563,5.724-5.723,5.724c-3.161,0-5.724-2.563-5.724-5.724
			C222.433,31.18,224.996,28.617,228.157,28.617z M228.157,108.744c-3.161,0-5.724-2.562-5.724-5.723
			c0-3.161,2.563-5.724,5.724-5.724c3.161,0,5.723,2.563,5.723,5.724C233.88,106.183,231.317,108.744,228.157,108.744z
			 M228.157,82.875c-9.483,0-17.17-6.406-17.17-14.309c0-7.902,7.688-14.309,17.17-14.309c9.482,0,17.17,6.406,17.17,14.309
			C245.327,76.469,237.639,82.875,228.157,82.875z"/>
	</g>
	<g id="_x2018_Ë_x201E_Û_xF8FF__x2021__x5F_9_x5F__x5F_x28_x5F_ÍÓÔË_x2C7__x5F_x29_x5F__x5F_93">
		<rect x="198.823" y="72.344" class="st4" width="58.668" height="22.894"/>
	</g>
	<g id="_x2018_Ë_x201E_Û_xF8FF__x2021__x5F_9_x5F__x5F_x28_x5F_ÍÓÔË_x2C7__x5F_x29_x5F__x5F_94">
		<path class="st5" d="M198.823,72.344v2.861h58.668v-2.861H198.823z M198.823,95.237h58.668v-2.861h-58.668V95.237z"/>
	</g>
	<g id="_x2018_Ë_x201E_Û_xF8FF__x2021__x5F_9_x5F__x5F_x28_x5F_ÍÓÔË_x2C7__x5F_x29_x5F__x5F_95" class="st8">
		<path class="st7" d="M198.823,95.237h0.717V72.344h-0.717V95.237z M256.774,72.344v22.894h0.717V72.344H256.774z"/>
	</g>
	<g id="_x2018_Ë_x201E_Û_xF8FF__x2021__x5F_6_x5F__x5F_x28_x5F_ÍÓÔË_x2C7__x5F_x29_x5F__x5F_23">
		
			<rect x="315.678" y="22.093" transform="matrix(0.2934 -0.956 0.956 0.2934 156.5136 393.2919)" class="st14" width="57.234" height="137.362"/>
	</g>
	<g id="_x2018_Ë_x201E_Û_xF8FF__x2021__x5F_6_x5F__x5F_x28_x5F_ÍÓÔË_x2C7__x5F_x29_x5F__x5F_24">
		
			<rect x="315.054" y="22.28" transform="matrix(0.2755 -0.9613 0.9613 0.2755 161.5393 396.2675)" class="st14" width="57.234" height="137.362"/>
	</g>
	<g id="_x2018_Ë_x201E_Û_xF8FF__x2021__x5F_6_x5F__x5F_x28_x5F_ÍÓÔË_x2C7__x5F_x29_x5F__x5F_25">
		
			<rect x="314.54" y="21.901" transform="matrix(0.2845 -0.9587 0.9587 0.2845 158.7015 393.7953)" class="st15" width="57.234" height="137.362"/>
	</g>
	<g id="_x2018_Ë_x201E_Û_xF8FF__x2021__x5F_7_x5F__x5F_x28_x5F_ÍÓÔË_x2C7__x5F_x29_x5F__x5F_8">
		<path class="st16" d="M399.44,83.402l-99.541-29.535c-2.645,4.301-7.923,6.484-12.995,4.979l-7.359,24.801
			c6.06,1.799,9.517,8.169,7.718,14.229l98.766,29.307v-0.001c1.799-6.061,8.17-9.516,14.229-7.718l7.359-24.801
			C402.544,93.158,399.311,88.45,399.44,83.402z M315.722,82.442c-0.898,3.03-4.084,4.758-7.114,3.858
			c-3.031-0.899-4.759-4.084-3.859-7.115c0.899-3.03,4.085-4.758,7.115-3.858C314.894,76.227,316.621,79.412,315.722,82.442z
			 M356.765,94.62c-2.697,9.091-11.025,14.639-18.602,12.391c-7.576-2.248-11.531-11.44-8.833-20.531
			c2.697-9.091,11.025-14.639,18.602-12.391C355.508,76.337,359.462,85.529,356.765,94.62z M381.566,101.979
			c-0.899,3.031-4.084,4.759-7.114,3.859c-3.031-0.899-4.759-4.085-3.859-7.115c0.9-3.03,4.085-4.758,7.115-3.858
			C380.738,95.763,382.465,98.948,381.566,101.979z"/>
	</g>
	<g id="_x2018_Ë_x201E_Û_xF8FF__x2021__x5F_9_x5F__x5F_x28_x5F_ÍÓÔË_x2C7__x5F_x29_x5F__x5F_96">
		
			<rect x="328.309" y="83.433" transform="matrix(0.2845 -0.9587 0.9587 0.2845 164.9486 410.7596)" class="st4" width="58.668" height="22.894"/>
	</g>
	<g id="_x2018_Ë_x201E_Û_xF8FF__x2021__x5F_9_x5F__x5F_x28_x5F_ÍÓÔË_x2C7__x5F_x29_x5F__x5F_97">
		<path class="st5" d="M355.013,63.502l-16.688,56.244l2.744,0.814l16.688-56.244L355.013,63.502z M374.217,69.2l-16.688,56.244
			l2.743,0.814l16.689-56.244L374.217,69.2z"/>
	</g>
	<g id="_x2018_Ë_x201E_Û_xF8FF__x2021__x5F_9_x5F__x5F_x28_x5F_ÍÓÔË_x2C7__x5F_x29_x5F__x5F_98" class="st8">
		<path class="st7" d="M355.013,63.502l-0.204,0.688l21.948,6.513l0.204-0.688L355.013,63.502z M338.325,119.746l21.948,6.513
			l0.204-0.688l-21.948-6.513L338.325,119.746z"/>
	</g>
	<g id="_x2018_Ë_x201E_Û_xF8FF__x2021__x5F_10_x5F__x5F_x28_x5F_ÍÓÔË_x2C7__x5F_x29_x5F__x5F_12">
		<rect x="80.128" y="115.212" class="st0" width="57.234" height="22.893"/>
	</g>
	<g id="_x2018_Ë_x201E_Û_xF8FF__x2021__x5F_8_x5F__x5F_x28_x5F_ÍÓÔË_x2C7__x5F_x29_x5F__x5F_66">
		<rect y="115.212" class="st1" width="114.468" height="22.893"/>
	</g>
	<g id="_x2018_Ë_x201E_Û_xF8FF__x2021__x5F_8_x5F__x5F_x28_x5F_ÍÓÔË_x2C7__x5F_x29_x5F__x5F_67">
		<path class="st2" d="M0,133.184v0.677l63.517,0.374L0,134.608v0.734l82.554,0.376L0,136.094v0.635l100.018,0.346l14.45-0.207
			v-0.859l-23.452-0.262l23.452-0.261v-0.911l-33.965-0.288l33.965-0.288v-0.952l-14.543-0.208L0,133.184z M0,137.467v0.639h114.468
			v-0.777l-14.45-0.207L0,137.467z M0,115.212v0.617l99.925,0.346l14.543-0.208v-0.755H0z M0,120.851v0.282l27.62,0.281L0,121.695
			v0.954l18.23,0.248L0,123.146v0.886l16.54,0.24L0,124.512v0.959l34.306,0.296L0,126.063v0.919l23.792,0.27L0,127.521v0.865
			l16.417,0.239L0,128.864v0.643l63.517,0.374L0,130.255v0.735l82.554,0.375L0,131.74v0.705l99.925,0.346l14.543-0.208v-0.88
			l-17.89-0.24l17.89-0.24v-0.946l-27.279-0.273l27.279-0.273v-0.595L8.045,128.767l106.423-0.368v-0.616l-82.213-0.367
			l82.213-0.367v-0.727l-63.176-0.366l63.176-0.366v-0.737L8.045,124.483l106.423-0.368v-0.616l-82.213-0.367l82.213-0.367v-0.727
			l-63.176-0.366l63.176-0.366v-0.594l-14.45-0.207L0,120.851z M0,116.567v0.405l63.517,0.374L0,117.721v0.735l82.554,0.375
			L0,119.206v0.907l100.018,0.345l14.45-0.206v-0.86l-23.452-0.262l23.452-0.262v-0.91l-33.965-0.288l33.965-0.288v-0.952
			l-14.543-0.208L0,116.567z"/>
	</g>
	<g id="_x2018_Ë_x201E_Û_xF8FF__x2021__x5F_8_x5F__x5F_x28_x5F_ÍÓÔË_x2C7__x5F_x29_x5F__x5F_68">
		<polygon class="st3" points="137.362,116.417 123.622,116.198 137.362,115.979 137.362,115.212 114.468,115.212 114.468,115.973 
			121.936,116.198 114.468,116.424 114.468,117.398 119.093,117.671 114.468,117.942 114.468,118.874 127.573,119.126 
			114.468,119.379 114.468,120.264 135.578,120.485 114.468,120.707 114.468,121.324 120.043,121.672 114.468,122.019 
			114.468,122.775 126.11,123.135 114.468,123.492 114.468,124.126 135.588,124.483 114.468,124.841 114.468,125.575 
			123.586,125.939 114.468,126.305 114.468,127.052 117.97,127.409 114.468,127.768 114.468,128.406 128.764,128.764 
			114.468,129.121 114.468,129.732 120.229,130.002 114.468,130.27 114.468,131.239 126.783,131.465 114.468,131.69 
			114.468,132.599 119.038,132.814 114.468,133.031 114.468,134.024 122.711,134.29 114.468,134.556 114.468,135.491 
			132.655,135.741 114.468,135.991 114.468,136.877 118.098,137.098 114.468,137.32 114.468,138.105 137.362,138.105 
			137.362,137.314 125.635,137.098 137.362,136.883 137.362,135.942 135.243,135.741 137.362,135.539 137.362,134.545 
			127.218,134.29 137.362,134.035 137.362,133.02 130.272,132.814 137.362,132.611 137.362,131.677 130.092,131.465 
			137.362,131.253 137.362,130.264 124.351,130.002 137.362,129.74 137.362,129.092 131.96,128.764 137.362,128.435 
			137.362,127.749 130.329,127.409 137.362,127.07 137.362,126.292 125.789,125.939 137.362,125.588 137.362,124.717 
			136.42,124.483 137.362,124.247 137.362,123.471 130.113,123.135 137.362,122.797 137.362,122.007 126.918,121.672 
			137.362,121.338 137.362,120.646 136.07,120.485 137.362,120.324 137.362,119.36 131.487,119.126 137.362,118.893 
			137.362,117.932 127.705,117.671 137.362,117.409 		"/>
	</g>
	<g id="_x2018_Ë_x201E_Û_xF8FF__x2021__x5F_9_x5F__x5F_x28_x5F_ÍÓÔË_x2C7__x5F_x29_x5F__x5F_99">
		<rect x="47.695" y="114.546" class="st4" width="19.078" height="24.226"/>
	</g>
	<g id="_x2018_Ë_x201E_Û_xF8FF__x2021__x5F_9_x5F__x5F_x28_x5F_ÍÓÔË_x2C7__x5F_x29_x5F__x5F_100">
		<path class="st5" d="M47.695,138.771h2.385v-24.226h-2.385V138.771z M64.388,114.546v24.226h2.385v-24.226H64.388z"/>
	</g>
	<g id="_x2018_Ë_x201E_Û_xF8FF__x2021__x5F_9_x5F__x5F_x28_x5F_ÍÓÔË_x2C7__x5F_x29_x5F__x5F_101">
		<path class="st5" d="M47.695,114.546v0.666h41.972v-0.666H47.695z M47.695,138.771h41.972v-0.666H47.695V138.771z"/>
	</g>
	<g id="_x2018_Ë_x201E_Û_xF8FF__x2021__x5F_9_x5F__x5F_x28_x5F_ÍÓÔË_x2C7__x5F_x29_x5F__x5F_102" class="st8">
		<path class="st7" d="M47.695,114.546v0.666h19.078v-0.666H47.695z M47.695,138.771h19.078v-0.666H47.695V138.771z"/>
	</g>
</g>
</svg>
