<?xml version="1.0" encoding="utf-8"?>
<!-- Generator: Adobe Illustrator 22.0.1, SVG Export Plug-In . SVG Version: 6.00 Build 0)  -->
<svg version="1.1" id="Layer_1" xmlns="http://www.w3.org/2000/svg" xmlns:xlink="http://www.w3.org/1999/xlink" x="0px" y="0px"
	 viewBox="0 0 524.883 347.183" style="enable-background:new 0 0 524.883 347.183;" xml:space="preserve">
<style type="text/css">
	.st0{fill:#0E444E;}
	.st1{fill:url(#SVGID_1_);}
	.st2{fill:url(#SVGID_2_);}
	.st3{fill:url(#SVGID_3_);}
	.st4{fill:url(#SVGID_4_);}
	.st5{fill:#BFA369;}
	.st6{fill:#FFF4DF;}
	.st7{fill:#5A2C29;}
	.st8{fill:#B4AB95;}
	.st9{fill:#CBC0A0;}
	.st10{fill:#D8D3C0;}
	.st11{fill:#D2BE8A;}
	.st12{fill:#C0B7A2;}
	.st13{fill:#7F3324;}
	.st14{fill:#42272B;}
	.st15{fill:none;stroke:#00B6DA;stroke-miterlimit:10;}
	.st16{opacity:0.3;}
	.st17{fill:#C1B28F;}
	.st18{fill:#797C7E;}
	.st19{opacity:0.57;}
	.st20{fill:#FFFFFF;}
	.st21{fill:#C3BBA3;}
	.st22{fill:#9A917C;}
	.st23{fill:#6B574F;}
	.st24{fill:#C8C1AB;}
	.st25{fill:#AFA78F;}
	.st26{fill:#9C4031;}
	.st27{fill:#B0A794;}
	.st28{fill:#EDE3CE;}
	.st29{fill:#E0D5BC;}
</style>
<g>
	<path class="st0" d="M262.441,302.152c139.362,0,252.319,9.682,252.319,21.516c0,11.931-112.957,21.516-252.319,21.516
		s-252.319-9.682-252.319-21.516C10.122,311.834,123.079,302.152,262.441,302.152z"/>
	<g>
		<g>
			<g>
				
					<linearGradient id="SVGID_1_" gradientUnits="userSpaceOnUse" x1="541.5124" y1="2664.1218" x2="541.5124" y2="3017.2468" gradientTransform="matrix(0.9833 0 0 0.9833 -17.835 -2619.5601)">
					<stop  offset="0" style="stop-color:#EB3A87"/>
					<stop  offset="1" style="stop-color:#F39AC1"/>
				</linearGradient>
				<path class="st1" d="M514.614,328.015c-0.685,0-1.271-0.293-1.76-0.685c-0.489-0.489-0.685-1.076-0.685-1.76
					c0-0.196,0-0.293,0.098-0.489c0-0.196,0.098-0.293,0.098-0.489c0.098-0.196,0.098-0.293,0.196-0.391
					c0.098-0.098,0.196-0.293,0.293-0.391s0.196-0.196,0.391-0.293c0.098-0.098,0.293-0.196,0.391-0.196
					c0.098-0.098,0.293-0.098,0.489-0.098c0.782-0.196,1.663,0.098,2.249,0.685c0.098,0.098,0.196,0.293,0.293,0.391
					c0.098,0.098,0.196,0.293,0.196,0.391c0.098,0.196,0.098,0.293,0.098,0.489s0.098,0.293,0.098,0.489
					c0,0.685-0.293,1.271-0.685,1.76C515.983,327.722,515.299,328.015,514.614,328.015z"/>
			</g>
			<g>
				
					<linearGradient id="SVGID_2_" gradientUnits="userSpaceOnUse" x1="285.0473" y1="2664.1506" x2="285.0473" y2="3011.991" gradientTransform="matrix(0.9833 0 0 0.9833 -17.835 -2619.5601)">
					<stop  offset="0" style="stop-color:#EB3A87"/>
					<stop  offset="1" style="stop-color:#F39AC1"/>
				</linearGradient>
				<path class="st2" d="M516.374,318.333c-1.369-0.293-2.152-1.565-1.956-2.934l0,0c0.293-1.369,1.565-2.152,2.934-1.858l0,0
					c1.369,0.293,2.152,1.565,1.858,2.934l0,0c-0.196,1.174-1.271,1.956-2.445,1.956l0,0
					C516.668,318.431,516.472,318.333,516.374,318.333z M5.477,316.181c-0.293-1.369,0.587-2.641,1.956-2.934l0,0
					c1.369-0.293,2.641,0.587,2.934,1.858l0,0l0,0l0,0c0.293,1.369-0.587,2.641-1.956,2.934l0,0c-0.196,0-0.391,0.098-0.489,0.098
					l0,0C6.748,318.137,5.77,317.355,5.477,316.181z M518.232,308.651c-1.369-0.196-2.249-1.467-2.054-2.836l0,0l0,0l0,0
					c0.196-1.369,1.467-2.249,2.836-2.054l0,0c1.369,0.196,2.249,1.467,2.054,2.836l0,0c-0.196,1.174-1.271,2.054-2.445,2.054l0,0
					C518.526,308.749,518.428,308.749,518.232,308.651z M3.619,306.402L3.619,306.402c-0.196-1.369,0.685-2.641,2.054-2.836l0,0
					c1.369-0.196,2.641,0.685,2.836,2.054l0,0l0,0l0,0c0.196,1.369-0.685,2.641-2.054,2.836l0,0c-0.098,0-0.293,0-0.391,0l0,0
					C4.89,308.455,3.814,307.575,3.619,306.402z M519.797,298.969c-1.369-0.196-2.249-1.369-2.152-2.738l0,0
					c0.196-1.369,1.369-2.249,2.738-2.152l0,0c1.369,0.196,2.347,1.369,2.152,2.738l0,0c-0.196,1.271-1.174,2.152-2.445,2.152l0,0
					C519.993,298.969,519.895,298.969,519.797,298.969z M2.152,296.622c-0.196-1.369,0.782-2.543,2.152-2.738l0,0
					c1.369-0.196,2.543,0.782,2.738,2.152l0,0c0.196,1.369-0.782,2.543-2.152,2.738l0,0c-0.098,0-0.196,0-0.293,0l0,0
					C3.423,298.773,2.347,297.795,2.152,296.622z M520.971,289.189c-1.369-0.098-2.347-1.369-2.249-2.641l0,0
					c0.098-1.369,1.369-2.347,2.641-2.249l0,0c1.369,0.098,2.347,1.369,2.249,2.641l0,0c-0.098,1.271-1.174,2.249-2.445,2.249l0,0
					C521.166,289.189,521.069,289.189,520.971,289.189z M1.076,286.744c-0.098-1.369,0.88-2.543,2.249-2.641l0,0
					c1.369-0.098,2.543,0.88,2.641,2.249l0,0c0.098,1.369-0.88,2.543-2.249,2.641l0,0c-0.098,0-0.196,0-0.196,0l0,0
					C2.249,288.994,1.174,288.016,1.076,286.744z M521.851,279.409c-1.369-0.098-2.347-1.271-2.347-2.543l0,0
					c0.098-1.369,1.271-2.445,2.543-2.347l0,0c1.369,0.098,2.347,1.271,2.347,2.543l0,0c-0.098,1.271-1.174,2.347-2.445,2.347l0,0
					C521.949,279.409,521.851,279.409,521.851,279.409z M0.391,276.867c-0.098-1.369,0.978-2.543,2.347-2.543l0,0
					c1.369-0.098,2.543,0.978,2.543,2.347l0,0c0.098,1.369-0.978,2.543-2.347,2.543l0,0c-0.098,0-0.098,0-0.098,0l0,0
					C1.467,279.116,0.391,278.138,0.391,276.867z M522.242,269.63c-1.369,0-2.445-1.174-2.445-2.543l0,0
					c0-1.369,1.174-2.445,2.543-2.445l0,0c1.369,0,2.445,1.174,2.445,2.543l0,0C524.785,268.554,523.611,269.63,522.242,269.63
					L522.242,269.63C522.34,269.63,522.242,269.63,522.242,269.63z M0,266.891c0-1.369,1.076-2.445,2.445-2.543l0,0
					c1.369,0,2.445,1.076,2.543,2.445l0,0l0,0l0,0c0,1.369-1.076,2.445-2.445,2.543l0,0l0,0l0,0C1.076,269.336,0,268.26,0,266.891z
					 M519.895,257.307c0-1.369,1.076-2.445,2.445-2.543l0,0c1.369,0,2.445,1.076,2.543,2.445l0,0c0,1.369-1.076,2.445-2.445,2.543
					l0,0l0,0l0,0C520.971,259.752,519.895,258.676,519.895,257.307z M2.445,259.459c-1.369,0-2.445-1.174-2.445-2.543l0,0
					c0-1.369,1.174-2.445,2.543-2.445l0,0c1.369,0,2.445,1.174,2.445,2.543l0,0C4.89,258.383,3.814,259.459,2.445,259.459
					L2.445,259.459L2.445,259.459z M519.504,247.625c-0.098-1.369,0.978-2.543,2.347-2.641l0,0c1.369-0.098,2.543,0.978,2.543,2.347
					l0,0c0.098,1.369-0.978,2.543-2.347,2.543l0,0c-0.098,0-0.098,0-0.196,0l0,0C520.677,249.972,519.602,248.896,519.504,247.625z
					 M2.738,249.679c-1.369-0.098-2.445-1.271-2.347-2.641l0,0c0.098-1.369,1.271-2.445,2.543-2.347l0,0
					c1.369,0.098,2.445,1.271,2.347,2.641l0,0c-0.098,1.271-1.174,2.347-2.445,2.347l0,0C2.836,249.679,2.738,249.679,2.738,249.679
					z M518.721,237.943L518.721,237.943L518.721,237.943c-0.098-1.369,0.88-2.543,2.249-2.641l0,0
					c1.369-0.098,2.543,0.88,2.641,2.249l0,0c0.098,1.369-0.88,2.543-2.249,2.641l0,0c-0.098,0-0.196,0-0.196,0l0,0
					C519.993,240.094,518.917,239.214,518.721,237.943z M3.423,239.801c-1.369-0.098-2.347-1.369-2.249-2.641l0,0
					c0.098-1.369,1.369-2.347,2.641-2.249l0,0c1.369,0.098,2.347,1.369,2.249,2.641l0,0c-0.098,1.271-1.174,2.249-2.445,2.249l0,0
					C3.521,239.801,3.423,239.801,3.423,239.801z M517.646,228.261c-0.196-1.369,0.782-2.543,2.152-2.738l0,0
					c1.369-0.196,2.543,0.782,2.738,2.152l0,0c0.196,1.369-0.782,2.543-2.152,2.738l0,0c-0.098,0-0.196,0-0.293,0l0,0
					C518.917,230.315,517.841,229.434,517.646,228.261z M4.401,230.021c-1.369-0.196-2.249-1.369-2.152-2.738l0,0
					c0.196-1.369,1.369-2.249,2.738-2.152l0,0c1.369,0.196,2.249,1.369,2.152,2.738l0,0c-0.196,1.271-1.174,2.152-2.445,2.152l0,0
					C4.597,230.119,4.499,230.119,4.401,230.021z M516.179,218.579c-0.196-1.369,0.685-2.641,2.054-2.836l0,0
					c1.369-0.196,2.641,0.685,2.836,2.054l0,0c0.196,1.369-0.685,2.641-2.054,2.836l0,0c-0.098,0-0.293,0-0.391,0l0,0
					C517.45,220.633,516.374,219.752,516.179,218.579z M5.77,220.339c-1.369-0.196-2.249-1.467-2.054-2.836l0,0
					c0.196-1.369,1.467-2.249,2.836-2.054l0,0c1.369,0.196,2.249,1.467,2.054,2.836l0,0c-0.196,1.174-1.271,2.054-2.445,2.054l0,0
					C6.063,220.339,5.966,220.339,5.77,220.339z M514.32,208.995L514.32,208.995L514.32,208.995
					c-0.293-1.369,0.587-2.641,1.858-2.934l0,0c1.369-0.293,2.641,0.587,2.934,1.858l0,0c0.293,1.369-0.587,2.641-1.858,2.934l0,0
					c-0.196,0-0.293,0.098-0.489,0.098l0,0C515.592,210.951,514.614,210.168,514.32,208.995z M7.53,210.657
					c-1.369-0.293-2.152-1.565-1.858-2.934l0,0c0.293-1.369,1.565-2.152,2.934-1.858l0,0c1.369,0.293,2.152,1.565,1.858,2.934l0,0
					c-0.293,1.174-1.271,1.956-2.445,1.956l0,0C7.922,210.755,7.726,210.657,7.53,210.657z M512.169,199.508
					c-0.293-1.271,0.489-2.641,1.76-2.934l0,0c1.271-0.293,2.641,0.489,2.934,1.76l0,0c0.293,1.271-0.489,2.641-1.76,3.032l0,0
					c-0.196,0.098-0.391,0.098-0.587,0.098l0,0C513.44,201.366,512.462,200.682,512.169,199.508z M9.682,201.073
					c-1.271-0.293-2.152-1.663-1.76-3.032l0,0c0.293-1.271,1.663-2.152,2.934-1.76l0,0c1.271,0.293,2.152,1.663,1.76,3.032l0,0
					c-0.293,1.076-1.271,1.858-2.347,1.858l0,0C10.073,201.171,9.878,201.073,9.682,201.073z M509.626,190.12
					c-0.391-1.271,0.391-2.641,1.663-3.032l0,0c1.271-0.391,2.641,0.391,3.032,1.663l0,0c0.391,1.271-0.391,2.641-1.663,3.032l0,0
					c-0.196,0.098-0.489,0.098-0.685,0.098l0,0C510.898,191.88,509.92,191.195,509.626,190.12z M12.225,191.587
					c-1.271-0.391-2.054-1.76-1.663-3.032l0,0c0.391-1.271,1.76-2.054,3.032-1.663l0,0c1.271,0.391,2.054,1.76,1.663,3.032l0,0l0,0
					l0,0c-0.293,1.076-1.271,1.76-2.347,1.76l0,0C12.616,191.684,12.42,191.587,12.225,191.587z M506.692,180.829L506.692,180.829
					L506.692,180.829c-0.391-1.271,0.293-2.641,1.565-3.13l0,0c1.271-0.391,2.641,0.293,3.13,1.565l0,0
					c0.391,1.271-0.293,2.641-1.565,3.13l0,0c-0.293,0.098-0.489,0.098-0.782,0.098l0,0
					C508.061,182.491,507.083,181.905,506.692,180.829z M15.061,182.1c-1.271-0.391-1.956-1.858-1.565-3.13l0,0
					c0.391-1.271,1.858-1.956,3.13-1.565l0,0c1.271,0.391,1.956,1.858,1.565,3.13l0,0c-0.391,1.076-1.271,1.663-2.347,1.663l0,0
					C15.55,182.296,15.257,182.198,15.061,182.1z M503.465,171.636L503.465,171.636L503.465,171.636
					c-0.489-1.271,0.196-2.641,1.467-3.13l0,0c1.271-0.489,2.641,0.196,3.13,1.467l0,0c0.489,1.271-0.196,2.641-1.467,3.13l0,0
					c-0.293,0.098-0.587,0.196-0.88,0.196l0,0C504.736,173.201,503.856,172.614,503.465,171.636z M18.288,172.809
					c-1.271-0.489-1.956-1.858-1.467-3.13l0,0c0.489-1.271,1.858-1.956,3.13-1.467l0,0c1.271,0.489,1.956,1.858,1.467,3.13l0,0
					c-0.391,0.978-1.271,1.565-2.347,1.565l0,0C18.875,173.005,18.582,173.005,18.288,172.809z M499.846,162.541L499.846,162.541
					L499.846,162.541c-0.489-1.271,0.098-2.738,1.271-3.227l0,0c1.271-0.489,2.738,0.098,3.227,1.271l0,0
					c0.489,1.271-0.098,2.641-1.271,3.227l0,0c-0.293,0.098-0.685,0.196-0.978,0.196l0,0
					C501.118,164.105,500.238,163.519,499.846,162.541z M21.809,163.714c-1.271-0.489-1.858-1.956-1.271-3.227l0,0
					c0.489-1.271,1.956-1.858,3.227-1.271l0,0c1.271,0.489,1.858,1.956,1.271,3.227l0,0c-0.391,0.978-1.271,1.467-2.249,1.467l0,0
					C22.494,163.91,22.102,163.812,21.809,163.714z M495.837,153.641c-0.587-1.271,0-2.738,1.174-3.227l0,0
					c1.271-0.587,2.738,0,3.227,1.174l0,0c0.587,1.271,0,2.738-1.174,3.227l0,0c-0.293,0.196-0.685,0.196-1.076,0.196l0,0
					C497.206,155.108,496.326,154.521,495.837,153.641z M25.721,154.717c-1.271-0.587-1.76-2.054-1.174-3.227l0,0
					c0.587-1.271,2.054-1.76,3.227-1.174l0,0c1.271,0.587,1.76,2.054,1.174,3.227l0,0l0,0l0,0c-0.391,0.88-1.271,1.369-2.249,1.369
					l0,0C26.406,154.912,26.014,154.912,25.721,154.717z M491.534,144.937c-0.587-1.174-0.098-2.641,1.076-3.325l0,0
					c1.174-0.587,2.738-0.196,3.325,1.076l0,0c0.587,1.174,0.196,2.641-1.076,3.325l0,0c-0.391,0.196-0.782,0.293-1.076,0.293l0,0
					C492.903,146.208,492.023,145.719,491.534,144.937z M29.926,145.817c-1.174-0.587-1.663-2.054-1.076-3.325l0,0
					c0.587-1.174,2.152-1.663,3.325-1.076l0,0c1.174,0.587,1.663,2.152,1.076,3.325l0,0c-0.391,0.88-1.271,1.369-2.152,1.369l0,0
					C30.709,146.11,30.317,146.013,29.926,145.817z M486.937,136.331c-0.685-1.174-0.293-2.641,0.978-3.325l0,0
					c1.174-0.685,2.641-0.293,3.325,0.978l0,0c0.685,1.174,0.293,2.641-0.978,3.325l0,0c-0.391,0.196-0.782,0.293-1.174,0.293l0,0
					C488.208,137.602,487.426,137.113,486.937,136.331z M34.523,137.211c-1.174-0.685-1.565-2.152-0.978-3.325l0,0
					c0.685-1.174,2.152-1.565,3.325-0.978l0,0c1.174,0.685,1.565,2.152,0.978,3.325l0,0c-0.489,0.782-1.271,1.271-2.152,1.271l0,0
					C35.305,137.504,34.914,137.406,34.523,137.211z M482.047,127.92c-0.685-1.174-0.391-2.641,0.782-3.423l0,0
					c1.174-0.685,2.641-0.391,3.423,0.782l0,0c0.685,1.174,0.391,2.641-0.782,3.423l0,0c-0.391,0.293-0.88,0.391-1.271,0.391l0,0
					C483.319,129.094,482.438,128.702,482.047,127.92z M39.413,128.702c-1.174-0.685-1.467-2.249-0.782-3.423l0,0
					c0.685-1.174,2.249-1.467,3.423-0.782l0,0c1.174,0.685,1.467,2.249,0.782,3.423l0,0c-0.489,0.782-1.271,1.174-2.054,1.174l0,0
					C40.293,128.996,39.804,128.898,39.413,128.702z M476.766,119.705L476.766,119.705L476.766,119.705
					c-0.782-1.174-0.489-2.641,0.685-3.423l0,0c1.174-0.782,2.641-0.489,3.423,0.685l0,0c0.782,1.174,0.489,2.641-0.685,3.423l0,0
					c-0.391,0.293-0.88,0.391-1.369,0.391l0,0C478.037,120.781,477.255,120.39,476.766,119.705z M44.596,120.39
					c-1.174-0.782-1.467-2.249-0.685-3.423l0,0c0.782-1.076,2.249-1.467,3.423-0.685l0,0c1.174,0.782,1.467,2.249,0.685,3.423l0,0
					c-0.489,0.685-1.271,1.076-2.054,1.076l0,0C45.574,120.781,45.085,120.683,44.596,120.39z M471.192,111.686
					c-0.782-1.076-0.587-2.641,0.587-3.423l0,0c1.076-0.782,2.641-0.587,3.423,0.587l0,0c0.782,1.076,0.587,2.641-0.587,3.423l0,0
					c-0.391,0.293-0.978,0.489-1.467,0.489l0,0C472.463,112.663,471.681,112.37,471.192,111.686z M50.17,112.272
					c-1.076-0.782-1.369-2.347-0.587-3.423l0,0c0.782-1.076,2.347-1.369,3.423-0.587l0,0c1.076,0.782,1.369,2.347,0.587,3.423l0,0
					l0,0l0,0c-0.489,0.685-1.271,0.978-1.956,0.978l0,0C51.148,112.663,50.562,112.566,50.17,112.272z M56.038,104.351
					c-1.076-0.88-1.271-2.347-0.391-3.423l0,0c0.88-1.076,2.347-1.271,3.423-0.391l0,0c1.076,0.88,1.271,2.347,0.391,3.423l0,0
					c-0.489,0.587-1.174,0.978-1.956,0.978l0,0C57.016,104.84,56.43,104.644,56.038,104.351z M465.324,103.862L465.324,103.862
					L465.324,103.862c-0.88-1.076-0.685-2.641,0.391-3.423l0,0c1.076-0.88,2.641-0.685,3.423,0.391l0,0
					c0.88,1.076,0.685,2.641-0.391,3.423l0,0c-0.489,0.391-0.978,0.489-1.467,0.489l0,0
					C466.497,104.84,465.813,104.546,465.324,103.862z M62.102,96.625c-1.076-0.88-1.174-2.445-0.293-3.423l0,0
					c0.88-1.076,2.445-1.174,3.423-0.293l0,0c1.076,0.88,1.174,2.445,0.293,3.423l0,0l0,0l0,0c-0.489,0.587-1.174,0.88-1.858,0.88
					l0,0C63.178,97.211,62.591,97.016,62.102,96.625z M459.162,96.331L459.162,96.331L459.162,96.331
					c-0.88-1.076-0.782-2.543,0.293-3.423l0,0c1.076-0.88,2.641-0.782,3.423,0.293l0,0c0.88,1.076,0.782,2.543-0.293,3.423l0,0
					c-0.489,0.391-0.978,0.587-1.565,0.587l0,0C460.336,97.211,459.651,96.918,459.162,96.331z M68.557,89.192
					c-0.978-0.88-1.076-2.445-0.196-3.521l0,0c0.88-0.978,2.445-1.076,3.423-0.196l0,0c0.978,0.88,1.076,2.445,0.196,3.423l0,0
					c-0.489,0.489-1.174,0.782-1.858,0.782l0,0C69.632,89.877,69.046,89.583,68.557,89.192z M452.806,88.996
					c-0.88-0.978-0.88-2.543,0.196-3.521l0,0c0.978-0.88,2.543-0.88,3.423,0.196l0,0c0.88,0.978,0.88,2.543-0.196,3.423l0,0
					c-0.489,0.391-1.076,0.685-1.663,0.685l0,0C453.881,89.779,453.294,89.583,452.806,88.996z M75.207,81.955
					c-0.978-0.978-0.978-2.543,0-3.521l0,0c0.978-0.978,2.543-0.978,3.423,0l0,0c0.978,0.978,0.978,2.543,0,3.521l0,0
					c-0.489,0.489-1.076,0.782-1.76,0.782l0,0C76.283,82.737,75.696,82.444,75.207,81.955z M446.057,81.955
					c-0.978-0.978-0.978-2.543,0-3.423l0,0c0.978-0.978,2.543-0.978,3.521,0l0,0c0.978,0.978,0.978,2.543,0,3.423l0,0
					c-0.489,0.489-1.076,0.685-1.76,0.685l0,0C447.231,82.639,446.546,82.444,446.057,81.955z M82.15,75.011
					c-0.978-0.978-0.88-2.543,0.098-3.423l0,0c0.978-0.978,2.543-0.88,3.521,0.098l0,0c0.978,0.978,0.88,2.543-0.098,3.423l0,0
					c-0.489,0.489-1.076,0.685-1.663,0.685l0,0C83.324,75.794,82.639,75.598,82.15,75.011z M439.114,75.109
					c-0.978-0.978-1.076-2.445-0.098-3.423l0,0c0.88-0.978,2.445-1.076,3.423-0.098l0,0c0.978,0.978,1.076,2.445,0.098,3.521l0,0
					c-0.489,0.489-1.174,0.782-1.76,0.782l0,0C440.19,75.794,439.603,75.598,439.114,75.109z M89.388,68.361
					c-0.88-0.978-0.782-2.543,0.196-3.423l0,0c0.978-0.88,2.543-0.782,3.423,0.196l0,0c0.88,0.978,0.782,2.543-0.196,3.423l0,0
					c-0.489,0.391-1.076,0.587-1.663,0.587l0,0C90.561,69.241,89.877,68.948,89.388,68.361z M431.877,68.557
					c-0.978-0.88-1.076-2.445-0.196-3.423l0,0c0.88-0.978,2.445-1.076,3.423-0.196l0,0c0.978,0.88,1.174,2.445,0.196,3.423l0,0
					c-0.489,0.587-1.174,0.88-1.858,0.88l0,0C432.952,69.143,432.366,68.948,431.877,68.557z M96.82,62.004
					c-0.88-1.076-0.685-2.641,0.391-3.423l0,0c1.076-0.88,2.641-0.685,3.423,0.391l0,0c0.88,1.076,0.685,2.641-0.391,3.423l0,0
					c-0.489,0.391-0.978,0.587-1.565,0.587l0,0C98.092,62.884,97.309,62.591,96.82,62.004z M424.444,62.297
					c-1.076-0.88-1.174-2.445-0.391-3.423l0,0c0.88-1.076,2.445-1.174,3.423-0.391l0,0c1.076,0.88,1.174,2.445,0.391,3.423l0,0
					c-0.489,0.587-1.174,0.88-1.956,0.88l0,0C425.422,62.884,424.933,62.689,424.444,62.297z M104.546,55.843
					c-0.782-1.076-0.587-2.641,0.489-3.423l0,0c1.076-0.782,2.641-0.587,3.423,0.489l0,0c0.782,1.076,0.587,2.641-0.489,3.423l0,0
					c-0.489,0.293-0.978,0.489-1.467,0.489l0,0C105.818,56.821,105.035,56.43,104.546,55.843z M416.816,56.332L416.816,56.332
					L416.816,56.332c-1.076-0.782-1.271-2.347-0.489-3.423l0,0c0.782-1.076,2.347-1.271,3.423-0.489l0,0
					c1.076,0.782,1.271,2.347,0.489,3.423l0,0c-0.489,0.685-1.271,0.978-1.956,0.978l0,0
					C417.696,56.821,417.207,56.625,416.816,56.332z M408.894,50.659c-1.076-0.782-1.369-2.347-0.587-3.423l0,0
					c0.782-1.076,2.347-1.369,3.423-0.587l0,0c1.076,0.782,1.369,2.347,0.587,3.423l0,0c-0.489,0.685-1.271,1.076-2.054,1.076l0,0
					C409.774,51.051,409.285,50.953,408.894,50.659z M112.468,49.975c-0.782-1.076-0.489-2.641,0.587-3.423l0,0
					c1.076-0.782,2.641-0.489,3.423,0.587l0,0c0.782,1.076,0.489,2.641-0.587,3.423l0,0c-0.391,0.293-0.88,0.391-1.369,0.391l0,0
					C113.739,51.051,112.957,50.659,112.468,49.975z M400.777,45.183c-1.174-0.685-1.467-2.249-0.782-3.423l0,0
					c0.782-1.174,2.249-1.467,3.423-0.782l0,0c1.174,0.685,1.467,2.249,0.782,3.423l0,0c-0.489,0.782-1.271,1.174-2.054,1.174l0,0
					C401.657,45.672,401.168,45.476,400.777,45.183z M120.585,44.498c-0.685-1.174-0.391-2.641,0.782-3.423l0,0
					c1.174-0.685,2.641-0.391,3.423,0.782l0,0c0.685,1.174,0.391,2.641-0.782,3.423l0,0l0,0l0,0
					c-0.391,0.293-0.88,0.391-1.271,0.391l0,0C121.857,45.574,121.074,45.183,120.585,44.498z M392.464,40.195L392.464,40.195
					L392.464,40.195c-1.174-0.685-1.565-2.152-0.88-3.325l0,0c0.685-1.174,2.152-1.565,3.325-0.88l0,0
					c1.174,0.685,1.565,2.152,0.88,3.325l0,0c-0.489,0.782-1.271,1.174-2.152,1.174l0,0
					C393.344,40.488,392.855,40.391,392.464,40.195z M128.996,39.217c-0.685-1.174-0.293-2.641,0.88-3.325l0,0
					c1.174-0.685,2.641-0.293,3.325,0.88l0,0c0.685,1.174,0.293,2.641-0.88,3.325l0,0c-0.391,0.196-0.782,0.293-1.271,0.293l0,0
					C130.267,40.488,129.387,39.999,128.996,39.217z M384.053,35.403c-1.174-0.685-1.663-2.152-0.978-3.325l0,0
					c0.685-1.174,2.152-1.663,3.325-0.978l0,0c1.174,0.685,1.663,2.152,0.978,3.325l0,0c-0.489,0.782-1.271,1.271-2.152,1.271l0,0
					C384.836,35.696,384.445,35.599,384.053,35.403z M137.504,34.327c-0.685-1.174-0.196-2.641,0.978-3.325l0,0
					c1.174-0.685,2.641-0.196,3.325,0.978l0,0c0.685,1.174,0.196,2.641-0.978,3.325l0,0c-0.391,0.196-0.782,0.293-1.174,0.293l0,0
					C138.776,35.599,137.993,35.207,137.504,34.327z M375.349,31.002L375.349,31.002L375.349,31.002
					c-1.271-0.587-1.76-2.054-1.174-3.325l0,0c0.587-1.174,2.054-1.76,3.325-1.076l0,0c1.174,0.587,1.76,2.054,1.174,3.325l0,0
					c-0.391,0.88-1.271,1.369-2.249,1.369l0,0C376.132,31.198,375.741,31.1,375.349,31.002z M146.208,29.731
					c-0.587-1.174-0.098-2.738,1.174-3.325l0,0c1.174-0.587,2.738-0.098,3.325,1.174l0,0c0.587,1.174,0.098,2.641-1.076,3.325l0,0
					c-0.391,0.196-0.685,0.293-1.076,0.293l0,0C147.577,31.198,146.697,30.611,146.208,29.731z M366.548,26.894
					c-1.271-0.587-1.76-2.054-1.271-3.227l0,0c0.587-1.271,1.956-1.76,3.227-1.271l0,0c1.271,0.587,1.76,1.956,1.271,3.227l0,0
					c-0.391,0.88-1.271,1.467-2.249,1.467l0,0C367.232,27.09,366.939,26.992,366.548,26.894z M155.108,25.525
					c-0.587-1.271,0-2.738,1.271-3.227l0,0c1.271-0.587,2.738,0,3.227,1.271l0,0c0.587,1.271,0,2.738-1.271,3.227l0,0
					c-0.293,0.196-0.685,0.196-0.978,0.196l0,0C156.477,26.992,155.499,26.406,155.108,25.525z M357.648,23.08
					c-1.271-0.489-1.858-1.956-1.369-3.227l0,0c0.489-1.271,1.956-1.858,3.227-1.369l0,0c1.271,0.489,1.858,1.956,1.369,3.227l0,0
					c-0.391,0.978-1.271,1.565-2.249,1.565l0,0C358.235,23.276,357.941,23.178,357.648,23.08z M164.203,21.613
					c-0.489-1.271,0.098-2.641,1.369-3.227l0,0c1.271-0.489,2.738,0.098,3.227,1.369l0,0c0.489,1.271-0.098,2.641-1.369,3.227l0,0
					c-0.293,0.098-0.587,0.196-0.88,0.196l0,0C165.474,23.178,164.594,22.591,164.203,21.613z M348.553,19.657L348.553,19.657
					L348.553,19.657c-1.271-0.489-1.956-1.858-1.467-3.13l0,0c0.489-1.271,1.858-1.956,3.13-1.467l0,0
					c1.271,0.489,1.956,1.858,1.467,3.13l0,0c-0.391,0.978-1.271,1.663-2.347,1.663l0,0
					C349.042,19.755,348.748,19.755,348.553,19.657z M173.396,18.093c-0.489-1.271,0.196-2.641,1.467-3.13l0,0
					c1.271-0.489,2.641,0.196,3.13,1.467l0,0c0.489,1.271-0.196,2.641-1.467,3.13l0,0c-0.293,0.098-0.587,0.098-0.782,0.098l0,0
					C174.668,19.755,173.69,19.071,173.396,18.093z M339.262,16.626c-1.271-0.391-2.054-1.76-1.565-3.032l0,0
					c0.391-1.271,1.76-2.054,3.032-1.565l0,0c1.271,0.391,2.054,1.76,1.565,3.032l0,0c-0.293,1.076-1.271,1.76-2.347,1.76l0,0
					C339.751,16.723,339.555,16.626,339.262,16.626z M182.687,14.865c-0.391-1.271,0.293-2.641,1.663-3.032l0,0
					c1.271-0.391,2.641,0.293,3.032,1.565l0,0c0.391,1.271-0.293,2.641-1.663,3.032l0,0c-0.196,0.098-0.489,0.098-0.685,0.098l0,0
					C183.958,16.626,183.078,15.941,182.687,14.865z M329.873,13.887c-1.271-0.391-2.054-1.663-1.76-3.032l0,0
					c0.391-1.271,1.663-2.054,3.032-1.76l0,0c1.271,0.391,2.054,1.663,1.76,3.032l0,0c-0.293,1.076-1.271,1.76-2.347,1.76l0,0
					C330.362,13.985,330.167,13.887,329.873,13.887z M192.076,12.029c-0.391-1.271,0.391-2.641,1.76-3.032l0,0
					c1.271-0.391,2.641,0.391,3.032,1.76l0,0c0.391,1.271-0.391,2.641-1.76,3.032l0,0c-0.196,0.098-0.391,0.098-0.685,0.098l0,0
					C193.445,13.887,192.467,13.105,192.076,12.029z M320.485,11.54c-1.271-0.293-2.152-1.663-1.858-2.934l0,0
					c0.293-1.369,1.663-2.152,2.934-1.858l0,0c1.271,0.293,2.152,1.663,1.858,2.934l0,0c-0.293,1.174-1.271,1.956-2.347,1.956l0,0
					C320.876,11.54,320.68,11.54,320.485,11.54z M201.66,9.584c-0.293-1.369,0.489-2.641,1.858-2.934l0,0
					c1.271-0.293,2.641,0.489,2.934,1.858l0,0c0.293,1.271-0.489,2.641-1.858,2.934l0,0l0,0l0,0
					c-0.196,0.098-0.391,0.098-0.587,0.098l0,0C202.931,11.54,201.855,10.758,201.66,9.584z M310.9,9.486
					c-1.369-0.293-2.249-1.565-1.956-2.836l0,0c0.293-1.369,1.565-2.249,2.836-1.956l0,0c1.369,0.293,2.249,1.565,1.956,2.836l0,0
					c-0.196,1.174-1.271,1.956-2.445,1.956l0,0C311.292,9.486,311.096,9.486,310.9,9.486z M211.244,7.433
					c-0.293-1.369,0.587-2.641,1.956-2.836l0,0c1.369-0.293,2.641,0.587,2.836,1.956l0,0c0.293,1.369-0.587,2.641-1.956,2.836l0,0
					c-0.196,0-0.293,0.098-0.489,0.098l0,0C212.515,9.486,211.44,8.606,211.244,7.433z M301.316,7.824
					c-1.369-0.196-2.249-1.467-2.054-2.836l0,0c0.196-1.369,1.467-2.249,2.836-2.054l0,0c1.369,0.196,2.249,1.467,2.054,2.836l0,0
					c-0.196,1.174-1.271,2.054-2.445,2.054l0,0C301.61,7.824,301.512,7.824,301.316,7.824z M220.926,5.77
					c-0.196-1.369,0.685-2.641,2.054-2.836l0,0c1.369-0.196,2.641,0.685,2.836,2.054l0,0c0.196,1.369-0.685,2.641-2.054,2.836l0,0
					c-0.098,0-0.293,0-0.391,0l0,0C222.197,7.824,221.122,6.944,220.926,5.77z M291.732,6.552c-1.369-0.196-2.347-1.369-2.152-2.738
					l0,0c0.196-1.369,1.369-2.347,2.738-2.152l0,0c1.369,0.196,2.347,1.369,2.152,2.738l0,0c-0.196,1.271-1.174,2.152-2.445,2.152
					l0,0C291.928,6.552,291.83,6.552,291.732,6.552z M230.608,4.401c-0.196-1.369,0.782-2.543,2.152-2.738l0,0
					c1.369-0.196,2.543,0.782,2.738,2.152l0,0c0.196,1.369-0.782,2.543-2.152,2.738l0,0c-0.098,0-0.196,0-0.293,0l0,0
					C231.879,6.552,230.804,5.672,230.608,4.401z M281.952,5.672c-1.369-0.098-2.347-1.271-2.249-2.641l0,0
					c0.098-1.369,1.271-2.347,2.641-2.249l0,0c1.369,0.098,2.347,1.271,2.249,2.641l0,0c-0.098,1.271-1.174,2.249-2.445,2.249l0,0
					C282.148,5.672,282.05,5.672,281.952,5.672z M240.486,3.325c-0.098-1.369,0.88-2.543,2.249-2.641l0,0
					c1.369-0.098,2.543,0.88,2.641,2.249l0,0c0.098,1.369-0.88,2.543-2.249,2.641l0,0c-0.098,0-0.098,0-0.196,0l0,0
					C241.659,5.672,240.486,4.694,240.486,3.325z M272.27,5.086c-1.369-0.098-2.445-1.174-2.347-2.543l0,0
					c0.098-1.369,1.174-2.445,2.543-2.347l0,0c1.369,0.098,2.445,1.174,2.347,2.543l0,0c-0.098,1.369-1.174,2.347-2.445,2.347l0,0
					H272.27z M250.266,2.738c-0.098-1.369,0.978-2.543,2.347-2.543l0,0c1.369-0.098,2.543,0.978,2.543,2.347l0,0
					c0.098,1.369-0.978,2.543-2.347,2.543l0,0l0,0l0,0h-0.098l0,0C251.341,5.086,250.266,4.01,250.266,2.738z M262.49,4.89
					c-1.369,0-2.445-1.076-2.445-2.445l0,0c0-1.369,1.076-2.445,2.445-2.445l0,0c1.369,0,2.445,1.076,2.445,2.445l0,0
					C265.033,3.814,263.859,4.89,262.49,4.89L262.49,4.89L262.49,4.89z"/>
			</g>
			<g>
				
					<linearGradient id="SVGID_3_" gradientUnits="userSpaceOnUse" x1="28.4827" y1="2666.5454" x2="28.4827" y2="3017.1047" gradientTransform="matrix(0.9833 0 0 0.9833 -17.835 -2619.5601)">
					<stop  offset="0" style="stop-color:#EB3A87"/>
					<stop  offset="1" style="stop-color:#F39AC1"/>
				</linearGradient>
				<path class="st3" d="M10.171,328.015c-0.685,0-1.271-0.293-1.76-0.685c-0.489-0.489-0.685-1.076-0.685-1.76
					c0-0.196,0-0.293,0.098-0.489c0-0.196,0.098-0.293,0.098-0.489c0.098-0.196,0.098-0.293,0.196-0.391
					c0.098-0.098,0.196-0.293,0.293-0.391c0.88-0.88,2.543-0.88,3.521,0c0.098,0.098,0.196,0.293,0.293,0.391
					c0.098,0.098,0.196,0.293,0.196,0.391c0.098,0.196,0.098,0.293,0.098,0.489s0.098,0.293,0.098,0.489
					c0,0.685-0.293,1.271-0.685,1.76C11.442,327.722,10.758,328.015,10.171,328.015z"/>
			</g>
			<g>
				
					<linearGradient id="SVGID_4_" gradientUnits="userSpaceOnUse" x1="284.8484" y1="2686.8301" x2="284.8484" y2="3017.2444" gradientTransform="matrix(0.9833 0 0 0.9833 -17.835 -2619.5601)">
					<stop  offset="0" style="stop-color:#EB3A87"/>
					<stop  offset="1" style="stop-color:#F39AC1"/>
				</linearGradient>
				<path class="st4" d="M259.85,344.739c0-1.369,1.076-2.445,2.445-2.445l0,0c1.369,0,2.445,1.076,2.445,2.445l0,0
					c0,1.369-1.076,2.445-2.445,2.445l0,0C260.926,347.183,259.85,346.108,259.85,344.739z M269.532,344.739
					c0-1.369,1.076-2.445,2.445-2.445l0,0c1.369,0,2.445,1.076,2.445,2.445l0,0c0,1.369-1.076,2.445-2.445,2.445l0,0
					C270.705,347.183,269.532,346.108,269.532,344.739z M252.515,347.183c-1.369,0-2.445-1.076-2.445-2.445l0,0
					c0-1.369,1.076-2.445,2.445-2.445l0,0c1.369,0,2.445,1.076,2.445,2.445l0,0C254.96,346.108,253.884,347.183,252.515,347.183
					L252.515,347.183L252.515,347.183z M279.312,344.739c0-1.369,1.076-2.445,2.445-2.445l0,0c1.369,0,2.445,1.076,2.445,2.445l0,0
					c0,1.369-1.076,2.445-2.445,2.445l0,0l0,0l0,0C280.485,347.183,279.312,346.01,279.312,344.739z M242.735,347.183
					c-1.369,0-2.445-1.076-2.445-2.445l0,0c0-1.369,1.076-2.445,2.445-2.445l0,0c1.369,0,2.445,1.076,2.445,2.445l0,0
					C245.18,346.01,244.104,347.183,242.735,347.183L242.735,347.183L242.735,347.183z M289.091,344.641
					c0-1.369,1.076-2.445,2.445-2.445l0,0c1.369,0,2.445,1.076,2.445,2.445l0,0c0,1.369-1.076,2.445-2.445,2.445l0,0l0,0l0,0
					C290.167,347.086,289.091,346.01,289.091,344.641z M232.955,347.086c-1.369,0-2.445-1.076-2.445-2.445l0,0
					c0-1.369,1.076-2.445,2.445-2.445l0,0c1.369,0,2.445,1.076,2.445,2.445l0,0C235.4,346.01,234.324,347.086,232.955,347.086
					L232.955,347.086L232.955,347.086z M298.871,344.543c0-1.369,1.076-2.445,2.445-2.445l0,0c1.369,0,2.445,1.076,2.445,2.445l0,0
					c0,1.369-1.076,2.445-2.445,2.445l0,0l0,0l0,0C299.947,346.988,298.871,345.912,298.871,344.543z M220.73,344.543
					c0-1.369,1.174-2.445,2.445-2.445l0,0l0,0l0,0c1.369,0,2.445,1.076,2.445,2.445l0,0c0,1.369-1.076,2.445-2.445,2.445l0,0
					C221.904,346.988,220.73,345.814,220.73,344.543z M308.651,344.445c0-1.369,1.076-2.445,2.445-2.445l0,0
					c1.369,0,2.445,1.076,2.543,2.445l0,0c0,1.369-1.076,2.445-2.445,2.445l0,0l0,0l0,0
					C309.727,346.89,308.651,345.814,308.651,344.445z M213.396,346.89c-1.369,0-2.445-1.174-2.445-2.543l0,0
					c0-1.369,1.174-2.445,2.445-2.445l0,0c1.369,0,2.445,1.174,2.445,2.445l0,0C215.938,345.814,214.863,346.89,213.396,346.89
					L213.396,346.89C213.493,346.89,213.493,346.89,213.396,346.89z M318.333,344.347c0-1.369,1.076-2.445,2.445-2.543l0,0l0,0l0,0
					c1.369,0,2.445,1.076,2.543,2.445l0,0c0,1.369-1.076,2.445-2.445,2.543l0,0l0,0l0,0
					C319.507,346.694,318.431,345.619,318.333,344.347z M203.714,346.694c-1.369,0-2.445-1.174-2.445-2.543l0,0
					c0-1.369,1.174-2.445,2.543-2.445l0,0l0,0l0,0c1.369,0,2.445,1.174,2.445,2.543l0,0
					C206.159,345.619,205.083,346.694,203.714,346.694L203.714,346.694L203.714,346.694z M330.656,346.499
					c-1.369,0-2.445-1.076-2.543-2.445l0,0c0-1.369,1.076-2.445,2.445-2.543l0,0l0,0l0,0c1.369,0,2.445,1.076,2.543,2.445l0,0
					C333.101,345.423,332.025,346.499,330.656,346.499L330.656,346.499z M193.934,346.499c-1.369,0-2.445-1.174-2.445-2.543l0,0
					c0-1.369,1.174-2.445,2.543-2.445l0,0l0,0l0,0c1.369,0,2.445,1.174,2.445,2.543l0,0
					C196.379,345.423,195.303,346.499,193.934,346.499L193.934,346.499L193.934,346.499z M337.893,343.956
					c0-1.369,1.076-2.445,2.445-2.543l0,0l0,0l0,0c1.369,0,2.445,1.076,2.543,2.445l0,0c0,1.369-1.076,2.445-2.347,2.543l0,0h-0.098
					l0,0C338.968,346.303,337.893,345.228,337.893,343.956z M181.709,343.761c0-1.369,1.174-2.445,2.543-2.445l0,0
					c1.369,0,2.445,1.174,2.445,2.543l0,0c0,1.369-1.174,2.445-2.543,2.445l0,0C182.785,346.303,181.709,345.13,181.709,343.761z
					 M347.672,343.663c0-1.369,1.076-2.445,2.445-2.543l0,0c1.369,0,2.445,1.076,2.543,2.347l0,0c0,1.369-1.076,2.445-2.347,2.543
					l0,0c0,0,0,0-0.098,0l0,0C348.748,346.108,347.672,345.032,347.672,343.663z M174.374,346.01c-1.369,0-2.445-1.174-2.347-2.543
					l0,0c0-1.369,1.174-2.445,2.543-2.347l0,0c1.369,0,2.445,1.174,2.347,2.543l0,0C176.917,345.032,175.743,346.01,174.374,346.01
					L174.374,346.01C174.472,346.01,174.374,346.01,174.374,346.01z M357.354,343.369c-0.098-1.369,0.978-2.543,2.347-2.543l0,0
					c1.369,0,2.543,0.978,2.543,2.347l0,0c0.098,1.369-0.978,2.445-2.347,2.543l0,0h-0.098l0,0
					C358.528,345.814,357.452,344.739,357.354,343.369z M164.594,345.716c-1.369-0.098-2.445-1.174-2.347-2.543l0,0
					c0.098-1.369,1.174-2.445,2.543-2.347l0,0c1.369,0.098,2.445,1.174,2.347,2.543l0,0
					C167.137,344.739,166.061,345.716,164.594,345.716L164.594,345.716C164.692,345.716,164.594,345.716,164.594,345.716z
					 M367.134,343.076c-0.098-1.369,0.978-2.543,2.347-2.543l0,0c1.369-0.098,2.543,0.978,2.543,2.347l0,0
					c0.098,1.369-0.978,2.543-2.347,2.543l0,0h-0.098l0,0C368.308,345.423,367.232,344.347,367.134,343.076z M154.814,345.423
					c-1.369-0.098-2.445-1.174-2.347-2.543l0,0c0.098-1.369,1.174-2.445,2.543-2.347l0,0c1.369,0.098,2.445,1.174,2.347,2.543l0,0
					C157.357,344.347,156.281,345.423,154.814,345.423L154.814,345.423C154.912,345.423,154.912,345.423,154.814,345.423z
					 M376.914,342.685c-0.098-1.369,0.978-2.543,2.347-2.543l0,0c1.369-0.098,2.543,0.978,2.543,2.347l0,0
					c0.098,1.369-0.978,2.543-2.347,2.543l0,0h-0.098l0,0C377.99,345.032,376.914,344.054,376.914,342.685z M145.132,345.032
					c-1.369-0.098-2.445-1.174-2.347-2.543l0,0c0.098-1.369,1.174-2.445,2.543-2.347l0,0c1.369,0.098,2.445,1.174,2.347,2.543l0,0
					c-0.098,1.369-1.174,2.347-2.445,2.347l0,0C145.132,345.032,145.132,345.032,145.132,345.032z M386.596,342.294
					c-0.098-1.369,0.978-2.543,2.347-2.543l0,0c1.369-0.098,2.543,0.978,2.543,2.347l0,0c0.098,1.369-0.978,2.543-2.347,2.543l0,0
					h-0.098l0,0C387.77,344.641,386.694,343.565,386.596,342.294z M135.353,344.543c-1.369-0.098-2.445-1.174-2.347-2.543l0,0
					c0.098-1.369,1.174-2.445,2.543-2.347l0,0c1.369,0.098,2.445,1.174,2.347,2.543l0,0c-0.098,1.271-1.174,2.347-2.445,2.347l0,0
					C135.45,344.543,135.353,344.543,135.353,344.543z M396.376,341.805c-0.098-1.369,0.978-2.543,2.347-2.543l0,0
					c1.369-0.098,2.543,0.978,2.543,2.347l0,0c0.098,1.369-0.978,2.543-2.347,2.641l0,0c-0.098,0-0.098,0-0.098,0l0,0
					C397.55,344.152,396.474,343.076,396.376,341.805z M125.573,344.054c-1.369-0.098-2.445-1.271-2.347-2.543l0,0
					c0.098-1.369,1.271-2.445,2.641-2.347l0,0l0,0l0,0c1.369,0.098,2.347,1.271,2.347,2.543l0,0
					c-0.098,1.271-1.174,2.347-2.445,2.347l0,0C125.671,344.054,125.573,344.054,125.573,344.054z M406.156,341.218
					c-0.098-1.369,0.978-2.543,2.347-2.641l0,0c1.369-0.098,2.543,0.978,2.641,2.347l0,0c0.098,1.369-0.978,2.543-2.347,2.641l0,0
					c-0.098,0-0.098,0-0.196,0l0,0C407.329,343.565,406.156,342.587,406.156,341.218z M115.793,343.565L115.793,343.565
					c-1.369-0.098-2.347-1.271-2.347-2.641l0,0c0.098-1.369,1.271-2.347,2.641-2.347l0,0l0,0l0,0
					c1.369,0.098,2.347,1.271,2.347,2.641l0,0c-0.098,1.271-1.174,2.347-2.445,2.347l0,0
					C115.891,343.565,115.891,343.565,115.793,343.565z M415.838,340.631c-0.098-1.369,0.978-2.543,2.249-2.641l0,0
					c1.369-0.098,2.543,0.88,2.641,2.249l0,0c0.098,1.369-0.88,2.543-2.249,2.641l0,0c-0.098,0-0.098,0-0.196,0l0,0
					C417.011,342.88,415.936,341.902,415.838,340.631z M106.013,342.88c-1.369-0.098-2.347-1.271-2.249-2.641l0,0
					c0.098-1.369,1.271-2.347,2.641-2.249l0,0c1.369,0.098,2.347,1.271,2.249,2.641l0,0c-0.098,1.271-1.174,2.249-2.445,2.249l0,0
					C106.209,342.88,106.111,342.88,106.013,342.88z M425.618,339.946c-0.098-1.369,0.88-2.543,2.249-2.641l0,0l0,0l0,0
					c1.369-0.098,2.543,0.88,2.641,2.249l0,0c0.098,1.369-0.88,2.543-2.249,2.641l0,0c-0.098,0-0.098,0-0.196,0l0,0
					C426.791,342.196,425.715,341.218,425.618,339.946z M96.331,342.196L96.331,342.196c-1.369-0.098-2.347-1.271-2.249-2.641l0,0
					c0.098-1.369,1.271-2.347,2.641-2.249l0,0l0,0l0,0c1.369,0.098,2.347,1.271,2.249,2.641l0,0
					c-0.098,1.271-1.174,2.249-2.445,2.249l0,0C96.429,342.196,96.331,342.196,96.331,342.196z M435.3,339.164
					c-0.098-1.369,0.88-2.543,2.249-2.641l0,0c1.369-0.098,2.543,0.88,2.641,2.249l0,0c0.098,1.369-0.88,2.543-2.249,2.641l0,0
					c-0.098,0-0.196,0-0.196,0l0,0C436.473,341.413,435.397,340.435,435.3,339.164z M86.551,341.413
					c-1.369-0.098-2.347-1.271-2.249-2.641l0,0c0.098-1.369,1.271-2.347,2.641-2.249l0,0c1.369,0.098,2.347,1.271,2.249,2.641l0,0
					c-0.098,1.271-1.174,2.249-2.445,2.249l0,0C86.747,341.413,86.649,341.413,86.551,341.413z M444.982,338.284
					c-0.098-1.369,0.88-2.543,2.249-2.641l0,0c1.369-0.098,2.543,0.88,2.641,2.249l0,0c0.098,1.369-0.88,2.543-2.249,2.641l0,0
					c-0.098,0-0.196,0-0.293,0l0,0C446.253,340.533,445.177,339.555,444.982,338.284z M76.772,340.435L76.772,340.435
					c-1.369-0.098-2.347-1.369-2.249-2.641l0,0c0.098-1.369,1.369-2.347,2.738-2.249l0,0c1.369,0.098,2.347,1.369,2.249,2.738l0,0
					c-0.098,1.271-1.174,2.249-2.445,2.249l0,0C76.967,340.533,76.869,340.533,76.772,340.435z M454.761,337.306
					c-0.196-1.369,0.782-2.543,2.152-2.738l0,0l0,0l0,0c1.369-0.098,2.543,0.782,2.738,2.152l0,0
					c0.196,1.369-0.782,2.543-2.152,2.738l0,0c-0.098,0-0.196,0-0.293,0l0,0C455.935,339.457,454.859,338.577,454.761,337.306z
					 M67.09,339.457c-1.369-0.196-2.347-1.369-2.152-2.738l0,0c0.196-1.369,1.369-2.347,2.738-2.152l0,0l0,0l0,0
					c1.369,0.098,2.347,1.369,2.152,2.738l0,0c-0.196,1.271-1.174,2.152-2.445,2.152l0,0
					C67.285,339.457,67.187,339.457,67.09,339.457z M464.443,336.132c-0.196-1.369,0.782-2.543,2.152-2.738l0,0
					c1.369-0.196,2.543,0.782,2.738,2.152l0,0c0.196,1.369-0.782,2.543-2.152,2.738l0,0c-0.098,0-0.196,0-0.293,0l0,0
					C465.617,338.284,464.541,337.404,464.443,336.132z M57.31,338.284c-1.369-0.196-2.249-1.369-2.152-2.738l0,0
					c0.196-1.369,1.369-2.347,2.738-2.152l0,0c1.369,0.196,2.249,1.369,2.152,2.738l0,0c-0.196,1.271-1.174,2.152-2.445,2.152l0,0
					C57.603,338.284,57.505,338.284,57.31,338.284z M474.125,334.861c-0.196-1.369,0.685-2.641,2.054-2.836l0,0l0,0l0,0
					c1.369-0.196,2.641,0.685,2.836,2.054l0,0c0.196,1.369-0.685,2.641-2.054,2.836l0,0c-0.098,0-0.293,0-0.391,0l0,0
					C475.299,337.012,474.321,336.132,474.125,334.861z M47.628,336.915L47.628,336.915c-1.369-0.196-2.249-1.467-2.054-2.836l0,0
					c0.196-1.369,1.467-2.249,2.836-2.054l0,0l0,0l0,0c1.369,0.196,2.249,1.467,2.054,2.836l0,0
					c-0.196,1.174-1.271,2.054-2.445,2.054l0,0C47.921,336.915,47.726,336.915,47.628,336.915z M483.71,333.394
					c-0.196-1.369,0.685-2.641,1.956-2.836l0,0c1.369-0.196,2.641,0.685,2.836,1.956l0,0c0.196,1.369-0.685,2.641-1.956,2.836l0,0
					c-0.098,0-0.293,0-0.489,0l0,0C484.981,335.448,483.905,334.568,483.71,333.394z M37.946,335.35
					c-1.369-0.293-2.249-1.565-1.956-2.836l0,0c0.196-1.369,1.467-2.249,2.836-1.956l0,0c1.369,0.293,2.249,1.565,1.956,2.836l0,0
					c-0.196,1.174-1.271,2.054-2.445,2.054l0,0C38.239,335.35,38.141,335.35,37.946,335.35z M493.294,331.634
					c-0.293-1.369,0.587-2.641,1.858-2.934l0,0c1.271-0.293,2.641,0.587,2.934,1.858l0,0c0.293,1.369-0.587,2.641-1.858,2.934l0,0
					c-0.196,0-0.391,0.098-0.489,0.098l0,0C494.565,333.492,493.587,332.709,493.294,331.634z M28.264,333.394L28.264,333.394
					c-1.369-0.293-2.152-1.565-1.858-2.934l0,0c0.293-1.369,1.565-2.152,2.934-1.858l0,0l0,0l0,0
					c1.271,0.293,2.152,1.565,1.858,2.934l0,0c-0.293,1.174-1.271,1.956-2.445,1.956l0,0
					C28.655,333.492,28.459,333.492,28.264,333.394z M502.78,329.384c-0.391-1.271,0.391-2.641,1.663-3.032l0,0l0,0l0,0
					c1.271-0.391,2.641,0.391,3.032,1.663l0,0c0.391,1.271-0.391,2.641-1.663,3.032l0,0c-0.196,0.098-0.489,0.098-0.685,0.098l0,0
					C504.15,331.242,503.074,330.46,502.78,329.384z M18.679,331.047L18.679,331.047c-1.271-0.391-2.054-1.76-1.663-3.032l0,0
					c0.391-1.271,1.76-2.054,3.032-1.663l0,0l0,0l0,0c1.271,0.391,2.054,1.76,1.663,3.032l0,0c-0.293,1.076-1.271,1.76-2.347,1.76
					l0,0C19.168,331.145,18.875,331.145,18.679,331.047z"/>
			</g>
		</g>
		<g>
			<g>
				<rect x="169.417" y="240.04" class="st5" width="123.213" height="75.16"/>
			</g>
			<g>
				<path class="st6" d="M171.265,262.483c3.275-7.161,11.808-16.385,11.808-16.385l-4.107,0.103
					c-2.606,1.398-5.711,6.011-7.701,9.324v-6.141h1.027v-3.594h-7.393v3.594h1.438v48.721h0.205v1.078v0.308v25.567h8.214v-25.567
					h1.797v-2.772h-5.288V262.483z"/>
			</g>
			<g>
				<polygon class="st5" points="450.754,318.076 422.018,318.281 421.388,252.824 450.754,252.773 				"/>
			</g>
			<g>
				<polygon class="st7" points="413.841,194.452 458.044,245.431 421.234,244.199 420.926,230.645 412.917,207.235 				"/>
			</g>
			<g>
				<rect x="422.62" y="294.049" class="st6" width="30.393" height="4.107"/>
			</g>
			<g>
				<rect x="445.004" y="251.541" class="st6" width="5.955" height="43.946"/>
			</g>
			<g>
				<rect x="422.569" y="310.478" class="st8" width="28.596" height="7.803"/>
			</g>
			<g>
				<rect x="421.696" y="244.292" class="st6" width="37.272" height="4.373"/>
				<path class="st9" d="M459.774,249.472H420.89v-5.985h38.884V249.472z M422.502,247.86h35.66v-2.761h-35.66V247.86z"/>
			</g>
			<g>
				<polygon class="st10" points="95.335,184.902 95.335,191.987 118.534,191.987 124.29,184.902 				"/>
			</g>
			<g>
				<polygon class="st5" points="97.337,191.371 97.337,210.777 116.743,191.371 				"/>
			</g>
			<g>
				<g>
					<polygon class="st11" points="351.567,129.559 345.92,129.687 331.032,109.64 331.237,64.667 351.567,64.667 					"/>
				</g>
				<g>
					<path class="st12" d="M335.755,118.226V80.518c0-3.106,2.541-5.647,5.647-5.647l0,0c3.106,0,5.647,2.541,5.647,5.647
						l0.513,51.134"/>
				</g>
				<g>
					<rect x="329.825" y="61.458" class="st6" width="23.431" height="3.388"/>
				</g>
				<g>
					<rect x="328.593" y="58.609" class="st11" width="26.28" height="2.926"/>
				</g>
				<g>
					<rect x="338.989" y="53.449" class="st12" width="6.104" height="5.253"/>
				</g>
			</g>
			<g>
				<rect x="260.595" y="240.349" class="st5" width="24.951" height="74.852"/>
			</g>
			<g>
				<polygon class="st13" points="65.918,240.657 193.443,115.595 242.729,114.363 201.658,189.112 202.068,225.871 
					164.026,241.889 				"/>
			</g>
			<g>
				<path class="st14" d="M125.168,144.345c-1.285,1.643-38.562,34.5-37.277,34.089c1.285-0.411,43.703-0.821,43.703-0.821
					l32.585-32.908L125.168,144.345z"/>
			</g>
			<g>
				<polygon class="st6" points="87.788,177.972 87.788,181.822 125.112,181.924 129.396,177.64 				"/>
				<path class="st9" d="M125.445,182.732l-38.463-0.105v-5.455l44.376-0.354L125.445,182.732z M88.594,181.018l36.185,0.099
					l2.656-2.656l-38.841,0.31V181.018z"/>
			</g>
			<g>
				<polygon class="st6" points="121.518,185.519 124.906,182.13 89.79,182.13 89.79,185.673 95.797,185.673 95.797,185.519 				"/>
				<path class="st9" d="M95.797,186.479h-6.813v-5.154h37.868l-5.001,5H96.603L95.797,186.479z M90.596,184.867h4.395l0.806-0.154
					h25.387l1.776-1.776H90.596V184.867z"/>
			</g>
			<g>
				<polygon class="st7" points="200.426,203.076 164.18,144.704 66.534,240.657 69.306,240.965 153.881,241.058 209.872,222.996 
									"/>
			</g>
			<g>
				<polygon class="st11" points="288.677,63.589 249.249,116.57 310.856,195.838 349.462,142.035 				"/>
			</g>
			<g>
				<polygon class="st5" points="349.719,139.827 302.943,81.722 303.103,81.506 289.139,63.434 250.122,115.595 249.711,116.416 
					263.675,134.693 298.791,88.18 345.304,146.706 				"/>
			</g>
			<g>
				<polygon class="st11" points="422.62,323.826 287.907,323.749 287.907,237.701 354.237,143.754 421.696,234.188 				"/>
			</g>
			<g>
				<path class="st15" d="M355.777,236.755"/>
			</g>
			<g>
				<path class="st15" d="M356.085,146.398"/>
			</g>
			<g>
				<g>
					<polygon class="st6" points="289.704,61.432 348.817,140.237 351.404,136.933 289.088,53.937 248.479,109.742 255.256,118.059 
						252.175,114.055 					"/>
				</g>
				<g>
					<polygon class="st6" points="346.536,143.472 349.617,139.776 289.242,58.66 251.713,111.282 254.794,115.287 289.19,65.866 
											"/>
					<path class="st9" d="M346.498,144.777l-57.289-77.529l-34.384,49.404l-4.115-5.352l38.517-54.007l61.415,82.512
						L346.498,144.777z M289.17,64.483l57.404,77.684l2.017-2.419l-59.335-79.719l-36.54,51.237l2.045,2.657L289.17,64.483z"/>
				</g>
			</g>
			<g>
				<polygon class="st11" points="247.452,115.8 199.809,180.693 200.22,226.487 288.318,227.103 309.264,198.456 				"/>
			</g>
			<g>
				<g>
					<rect x="64.531" y="241.067" class="st6" width="100.984" height="3.697"/>
				</g>
				<g>
					<rect x="66.739" y="244.558" class="st6" width="100.008" height="4.107"/>
					<path class="st9" d="M167.554,249.472H65.933v-5.719h101.621V249.472z M67.545,247.86h98.397v-2.495H67.545V247.86z"/>
				</g>
				<g class="st16">
					<path class="st17" d="M153.958,241.058c0,0,2.002,7.855,2.233,7.855c0.231,0,11.782,0.308,11.782,0.308l0.231-8.163H153.958z"
						/>
				</g>
			</g>
			<g>
				<g>
					<path class="st18" d="M293.452,149.889v-26.08c0,0,6.109-4.21,9.395-4.21l-0.154,30.29H293.452z"/>
				</g>
				<g>
					<path class="st18" d="M314.193,149.838v-26.08c0,0-6.109-4.21-9.395-4.21l0.154,30.29H314.193z"/>
				</g>
			</g>
			<g>
				<g class="st19">
					<path class="st20" d="M287.494,152.16l-5.896-0.194l-17.978-23.326l-0.48-4.077l0.249-0.272
						c0.105-0.113,10.625-11.327,23.392-0.691l0.284,0.236L287.494,152.16z M282.41,150.38l3.447,0.115l-0.393-25.89
						c-10.555-8.535-19.056-1.048-20.635,0.516l0.34,2.89L282.41,150.38z"/>
				</g>
				<g class="st19">
					<path class="st20" d="M256.524,122.4l30.577-39.602l-0.466,35.899l-1.34-1.289c-10.057-9.669-23.449,0.767-23.583,0.872
						L256.524,122.4z M275.335,111.688c3.199,0,6.574,0.886,9.736,3.385l0.356-27.467l-20.851,27.004
						C267.286,113.198,271.161,111.688,275.335,111.688z"/>
				</g>
				<g class="st19">
					<path class="st20" d="M322.965,122.217l-5.166-4.091c-0.55-0.434-13.546-10.522-23.583-0.872l-1.341,1.289l-0.467-35.899
						L322.965,122.217z M294.084,87.452l0.357,27.467c7.287-5.755,15.706-2.956,20.495-0.463L294.084,87.452z"/>
				</g>
				<g class="st19">
					<path class="st20" d="M343.94,150.298l-23.913-0.173l-0.688-29.761L343.94,150.298z M321.603,148.525l18.905,0.135
						l-19.45-23.665L321.603,148.525z"/>
				</g>
				<g class="st19">
					<path class="st20" d="M312.312,193.057l-20.336-27.763l0.087-9.217l22.936-0.331v32.764L312.312,193.057z M293.593,164.775
						l18.574,25.358l1.219-2.062v-30.69l-19.726,0.287L293.593,164.775z"/>
				</g>
				<g class="st19">
					<path class="st20" d="M319.903,181.455l-0.526-26.168l19.494,0.176L319.903,181.455z M321.021,156.915l0.398,19.73l14.3-19.598
						L321.021,156.915z"/>
				</g>
			</g>
			<g>
				<polygon class="st13" points="345.92,129.687 389.353,129.559 424.263,166.934 383.192,166.523 355.623,131.561 
					351.404,136.933 				"/>
			</g>
			<g>
				<polygon class="st11" points="76.699,249.898 76.699,323.826 166.953,323.21 166.953,249.281 				"/>
			</g>
			<g>
				<polygon class="st6" points="388.223,174.327 421.696,174.121 421.388,170.63 386.272,171.041 				"/>
			</g>
			<g>
				<path class="st10" d="M393.357,180.385c0.411-0.103,22.795,0,22.795,0l-0.308-5.955l-27.107,0.205L393.357,180.385z"/>
			</g>
			<g>
				<polygon class="st5" points="413.071,180.487 413.79,207.697 393.357,180.385 				"/>
			</g>
			<g class="st19">
				<polygon class="st20" points="408.775,201.648 408.579,185.092 396.13,185.092 396.13,183.48 410.172,183.48 410.387,201.629 
									"/>
			</g>
			<g>
				<rect x="427.344" y="252.773" class="st6" width="12.527" height="6.161"/>
			</g>
			<g>
				<rect x="428.986" y="258.728" class="st6" width="9.036" height="37.375"/>
			</g>
			<g>
				<rect x="76.545" y="317.46" class="st21" width="90.202" height="7.803"/>
			</g>
			<g>
				<g>
					<path class="st22" d="M264.962,218.222v-33.191c0-5.889-7.193-11.187-16.769-10.707l0,0c-8.174,0-14.863,4.818-14.863,10.707
						v33.139C233.331,218.171,264.812,218.222,264.962,218.222z"/>
				</g>
				<g>
					<rect x="235.952" y="180.59" class="st18" width="10.781" height="32.446"/>
				</g>
				<g>
					<rect x="251.148" y="180.59" class="st18" width="10.781" height="32.446"/>
				</g>
				<g>
					<path class="st23" d="M224.965,175.456c0,0,5.647-0.308,8.214,2.978l-0.103,38.094l-8.317-0.103L224.965,175.456z"/>
				</g>
				<g>
					<path class="st23" d="M273.378,175.764c0,0-5.647-0.308-8.214,2.978l0.103,38.094l8.317-0.103L273.378,175.764z"/>
				</g>
				<g>
					<polygon class="st24" points="261.981,193.549 251.2,193.549 251.2,180.59 246.502,180.59 246.502,193.549 235.914,193.549 
						235.914,195.688 246.502,195.688 246.502,215.5 251.2,215.5 251.2,195.688 261.981,195.688 					"/>
				</g>
			</g>
			<g>
				<rect x="248.171" y="247.972" class="st25" width="1.848" height="60.914"/>
			</g>
			<g>
				<path class="st13" d="M155.761,237.782c0.821-0.411,44.305-11.911,44.305-11.911l85.479-0.205l3.08,0.205l-9.395,12.321
					L155.761,237.782z"/>
			</g>
			<g>
				<path class="st18" d="M203.917,269.535c0,4.381-3.448,7.932-7.701,7.932c-4.253,0-7.701-3.551-7.701-7.932
					c0-4.38,3.448-7.932,7.701-7.932C200.469,261.603,203.917,265.154,203.917,269.535z"/>
			</g>
			<g>
				<g>
					<path class="st6" d="M311.728,194.76l2.926-3.697l-68.024-88.919l-69.898,98.006c2.31,0.154,4.312,0.077,6.238,0.154
						l64.276-90.665L311.728,194.76z"/>
				</g>
				<g>
					<path class="st6" d="M308.848,199.358l2.881-4.599l-64.276-85.325l-65.098,90.331c1.643,0,3.85,0.154,5.699,0.077
						l60.015-79.729L308.848,199.358z"/>
					<path class="st9" d="M308.914,200.771l-60.839-79.327l-59.607,79.187l-0.381,0.017c-1.169,0.049-2.443,0.009-3.677-0.032
						c-0.733-0.024-1.435-0.046-2.056-0.046h-1.574l66.658-92.496l65.268,86.641L308.914,200.771z M183.907,198.989
						c0.183,0.005,0.368,0.011,0.555,0.017c1.068,0.033,2.168,0.068,3.179,0.043l60.421-80.269l0.646,0.841l60.072,78.326
						l1.97-3.145l-63.284-84.009L183.907,198.989z"/>
				</g>
			</g>
			<g>
				<polygon class="st5" points="199.809,185.005 200.015,194.452 252.791,125.452 248.016,119.721 				"/>
			</g>
			<g>
				<polygon class="st13" points="188.515,200.92 200.066,225.871 199.809,185.005 				"/>
			</g>
			<g>
				<polygon class="st25" points="248.581,128.532 303.822,202.871 307.108,197.532 249.506,121.756 				"/>
			</g>
			<g>
				<g>
					<path class="st18" d="M338.476,293.946v-62.326c0-8.81,7.208-16.018,16.018-16.018l0,0c10.319-0.718,18.944,6.9,18.944,15.71
						l-0.873,62.017c0,0.21,0.147,0.616-0.057,0.616c-6.694,0-24.329,0.305-34.018,0.305
						C338.389,294.251,338.476,294.049,338.476,293.946z"/>
				</g>
				<g>
					<path class="st6" d="M365.511,294.595l-0.146-0.825l0.449-0.075l-0.426-0.043v-55.101c0-6.295-0.983-10.023-3.189-12.084
						c-1.585-1.483-3.847-2.1-6.907-1.897l-0.002-0.016c-5.227,0.295-8.861,6.015-8.861,13.997l-0.814,55.523l-1.612-0.025
						l0.814-55.51c0-8.98,4.359-15.401,10.6-15.604l0.001,0.013c3.409-0.191,5.995,0.578,7.882,2.342
						c3.279,3.065,3.699,8.698,3.699,13.261v55.83l-0.748,0.153L365.511,294.595z"/>
				</g>
				<g>
					<g>
						<rect x="316.965" y="234.188" class="st18" width="16.634" height="59.45"/>
					</g>
					<g>
						<rect x="316.939" y="248.973" class="st6" width="16.685" height="2.002"/>
					</g>
					<g>
						<rect x="316.939" y="252.362" class="st6" width="16.66" height="2.002"/>
					</g>
					<g>
						<rect x="324.46" y="234.188" class="st6" width="1.643" height="34.089"/>
					</g>
					<g>
						<rect x="317.042" y="267.404" class="st6" width="16.66" height="2.002"/>
					</g>
					<g>
						<rect x="316.99" y="263.862" class="st6" width="16.66" height="2.002"/>
					</g>
				</g>
				<g>
					<g>
						<rect x="377.648" y="234.188" class="st18" width="16.634" height="59.45"/>
					</g>
					<g>
						<rect x="377.622" y="248.973" class="st6" width="16.685" height="2.002"/>
					</g>
					<g>
						<rect x="377.622" y="252.362" class="st6" width="16.66" height="2.002"/>
					</g>
					<g>
						<rect x="385.143" y="234.188" class="st6" width="1.643" height="34.089"/>
					</g>
					<g>
						<rect x="377.725" y="267.404" class="st6" width="16.659" height="2.002"/>
					</g>
					<g>
						<rect x="377.673" y="263.862" class="st6" width="16.66" height="2.002"/>
					</g>
				</g>
				<g>
					<rect x="338.322" y="248.871" class="st6" width="34.603" height="4.107"/>
				</g>
				<g>
					<rect x="312.344" y="296.103" class="st6" width="86.455" height="3.697"/>
				</g>
				<g>
					<rect x="354.766" y="215.603" class="st6" width="1.612" height="8.598"/>
				</g>
				<g>
					<g>
						
							<rect x="363.789" y="225.835" transform="matrix(0.8732 -0.4874 0.4874 0.8732 -63.8077 208.0562)" class="st6" width="8.219" height="1.612"/>
					</g>
					<g>
						
							<rect x="369.044" y="234.778" transform="matrix(0.0015 -1 1 0.0015 130.7712 608.0278)" class="st6" width="1.612" height="7.508"/>
					</g>
				</g>
				<g>
					<g>
						
							<rect x="343.01" y="222.379" transform="matrix(0.4725 -0.8813 0.8813 0.4725 -18.4103 422.5995)" class="st6" width="1.612" height="8.6"/>
					</g>
					<g>
						<rect x="338.464" y="238.033" class="st6" width="7.508" height="1.612"/>
					</g>
				</g>
			</g>
			<g>
				<path class="st6" d="M386.272,171.041c0.513,0,39.12-0.513,39.12-0.513l-0.205-3.491l-42.509-0.411L386.272,171.041z"/>
				<path class="st9" d="M386.273,171.848h-0.383l-4.919-6.045l44.978,0.436l0.299,5.085l-0.843,0.011
					C423.828,171.355,386.785,171.848,386.273,171.848z M384.388,167.449l2.265,2.782c3.677-0.042,32.55-0.427,37.886-0.497
					l-0.112-1.898L384.388,167.449z"/>
			</g>
			<g>
				<polygon class="st26" points="200.066,225.871 279.231,236.96 287.548,225.717 200.066,225.871 				"/>
			</g>
			<g>
				<rect x="76.391" y="249.281" class="st5" width="89.33" height="6.982"/>
			</g>
			<g>
				<rect x="441.667" y="252.763" class="st27" width="3.491" height="41.389"/>
			</g>
			<g>
				<path class="st6" d="M204.533,264.52c1.741-7.252,12.835-19.243,12.835-19.243l-4.107,0.103
					c-3.117,1.673-6.947,7.94-8.728,11.084v-6.977h1.232v-3.594h-7.393v3.594h1.232v7.145c-1.687-3.013-5.679-9.673-8.909-11.406
					l-4.107-0.103c0,0,11.426,12.346,12.912,19.56c0.013,0.065,0.055,0.102,0.104,0.128v31.908h-3.08v2.772h1.078v16.531h8.368
					v-16.531h1.848v-2.772h-3.286V264.52z"/>
			</g>
			<g>
				<rect x="428.897" y="258.908" class="st28" width="9.126" height="2.285"/>
			</g>
			<g>
				<polygon class="st5" points="421.388,228.027 369.889,164.275 370.049,164.059 356.085,145.988 317.068,198.148 285.853,245.38 
					285.545,275.772 365.737,170.733 421.799,240.657 				"/>
			</g>
			<g>
				<g>
					<path class="st23" d="M224.401,305.396l0.329-51.194c0,0,21.723-12.037,47.615,0.87l0.11,52.355v1.305l-47.944-0.435
						L224.401,305.396z"/>
				</g>
				<g>
					<rect x="229.175" y="257.599" class="st18" width="14.786" height="38.196"/>
				</g>
				<g>
					<rect x="253.51" y="257.599" class="st18" width="14.786" height="38.196"/>
				</g>
				<g>
					<g>
						<path class="st23" d="M265.433,278.575v-7.753h4.095v-1.094h-4.095v-7.655h4.095v-1.094h-4.095l0.078-3.906h-1.172v3.906
							h-7.148v-4.023h-1.094v4.023l-2.929,0.117l-0.039,0.937l2.969,0.039v7.655l-2.851-0.078l-0.078,1.172h2.929v7.768l-2.89,0.005
							l-0.391,2.031l16.711-0.027v-2.031L265.433,278.575z M264.339,278.577l-7.148,0.012v-7.766h7.148V278.577z M264.339,269.729
							h-7.148v-7.655h7.148V269.729z"/>
					</g>
				</g>
				<g>
					<g>
						<path class="st23" d="M241.406,278.78v-7.752h4.095v-1.094h-4.095v-7.655h4.095v-1.094h-4.095l0.078-3.906h-1.172v3.906
							h-7.148v-4.023h-1.094v4.023l-2.929,0.117l-0.039,0.937l2.969,0.039v7.655l-2.851-0.078l-0.078,1.172h2.929v7.768l-2.89,0.005
							l-0.391,2.031l16.711-0.027v-2.031L241.406,278.78z M240.313,278.782l-7.148,0.012v-7.766h7.148V278.782z M240.313,269.934
							h-7.148v-7.655h7.148V269.934z"/>
					</g>
				</g>
			</g>
			<g>
				<g>
					<path class="st6" d="M92.563,321.207l0.47-54.368c0,0,31.052-12.783,68.064,0.924l0.157,55.6v1.386l-68.535-0.462
						L92.563,321.207z"/>
					<path class="st9" d="M162.06,325.561l-70.108-0.471l-0.196-3.888l0.476-54.903l0.494-0.203
						c0.315-0.131,31.773-12.745,68.651,0.913l0.524,0.194L162.06,325.561z M93.486,323.487l66.962,0.452v-0.576l-0.156-55.035
						c-33.563-12.222-62.367-2.453-66.458-0.932l-0.466,53.795L93.486,323.487z"/>
				</g>
				<g>
					<rect x="146.468" y="270.074" class="st18" width="10.781" height="8.933"/>
				</g>
				<g>
					<rect x="130.605" y="270.074" class="st18" width="10.781" height="8.933"/>
				</g>
				<g>
					<rect x="113.817" y="270.074" class="st18" width="10.781" height="8.933"/>
				</g>
				<g>
					<rect x="97.337" y="270.074" class="st18" width="10.781" height="8.933"/>
				</g>
				<g>
					<g>
						<rect x="96.567" y="282.549" class="st6" width="60.375" height="41.832"/>
						<path class="st9" d="M157.748,325.187H95.761v-43.444h61.987V325.187z M97.373,323.575h58.763v-40.22H97.373V323.575z"/>
					</g>
					<g>
						<line class="st6" x1="96.259" y1="289.326" x2="156.942" y2="289.326"/>
						<rect x="96.259" y="288.52" class="st9" width="60.683" height="1.612"/>
					</g>
					<g>
						<line class="st6" x1="96.721" y1="296.719" x2="157.404" y2="296.719"/>
						<rect x="96.721" y="295.913" class="st9" width="60.683" height="1.612"/>
					</g>
					<g>
						<line class="st6" x1="96.721" y1="303.341" x2="157.404" y2="303.341"/>
						<rect x="96.721" y="302.536" class="st9" width="60.683" height="1.612"/>
					</g>
					<g>
						<line class="st6" x1="96.721" y1="310.58" x2="157.404" y2="310.58"/>
						<rect x="96.721" y="309.774" class="st9" width="60.683" height="1.612"/>
					</g>
					<g>
						<line class="st6" x1="96.567" y1="316.279" x2="157.25" y2="316.279"/>
						<rect x="96.567" y="315.473" class="st9" width="60.683" height="1.612"/>
					</g>
				</g>
			</g>
			<g>
				<g>
					<rect x="154.221" y="237.782" class="st6" width="130.709" height="3.902"/>
				</g>
				<g>
					<rect x="165.053" y="242.094" class="st6" width="115.615" height="4.312"/>
					<path class="st9" d="M281.474,247.212H164.247v-5.924h117.228V247.212z M165.859,245.6h114.004v-2.7H165.859V245.6z"/>
				</g>
			</g>
			<g>
				<path class="st6" d="M291.141,296.719h-0.566l-0.204-57.5l-4.518,6.161l0.029,7.343c-1.522-2.7-3.655-5.84-5.881-7.035
					l-4.107-0.103c0,0,6.783,6.264,10.009,12.505l0.153,38.629h-4.927v2.772h1.078v25.413h8.779v-25.413h0.154V296.719z"/>
			</g>
			<g>
				<rect x="421.799" y="248.666" class="st29" width="38.094" height="4.158"/>
			</g>
			<g>
				<rect x="291.347" y="314.995" class="st21" width="130.671" height="7.804"/>
			</g>
			<g>
				<rect x="233.103" y="212.934" class="st6" width="32.267" height="5.545"/>
			</g>
			<g>
				<g>
					<polygon class="st6" points="437.817,239.835 355.623,131.561 274.148,245.791 280.925,252.362 356.187,146.263 
						430.219,245.791 					"/>
					<path class="st9" d="M281.038,253.594l-7.949-7.708l82.513-115.686l83.336,109.779l-8.873,6.955l-73.863-99.301
						L281.038,253.594z M275.207,245.695l5.605,5.434l75.359-106.237l0.663,0.889l73.539,98.865l6.323-4.956l-81.052-106.769
						L275.207,245.695z"/>
				</g>
				<g>
					<polygon class="st6" points="434.12,242.3 356.239,139.057 277.639,249.076 280.925,252.362 356.187,146.694 430.219,245.791 
											"/>
					<path class="st9" d="M281.029,253.605l-4.443-4.442l79.636-111.468l78.989,104.712l-5.111,4.573l-0.527-0.707l-73.371-98.21
						L281.029,253.605z M278.693,248.99l2.128,2.128l75.35-105.792l0.661,0.886l73.506,98.39l2.693-2.41l-76.774-101.774
						L278.693,248.99z"/>
				</g>
			</g>
			<g>
				<rect x="222.604" y="301.75" class="st6" width="52.571" height="14.067"/>
			</g>
		</g>
	</g>
</g>
</svg>
