<?xml version="1.0" encoding="utf-8"?>
<!-- Generator: Adobe Illustrator 22.0.1, SVG Export Plug-In . SVG Version: 6.00 Build 0)  -->
<svg version="1.1" id="Layer_1" xmlns="http://www.w3.org/2000/svg" xmlns:xlink="http://www.w3.org/1999/xlink" x="0px" y="0px"
	 viewBox="0 0 214.042 61.595" style="enable-background:new 0 0 214.042 61.595;" xml:space="preserve">
<style type="text/css">
	.st0{fill:#092859;}
	.st1{fill:#6D6E70;}
</style>
<g>
	<path class="st0" d="M33.779,36.869c-4.587,0.282-15.821,6.051-22.341,10.254c-3.093,1.996-1.397-0.599,0.399-4.388
		c1.795-3.79,8.578-20.346,9.974-21.942c1.396-1.595,1.147-5.785-1.247-6.183c-2.395-0.399-3.303-0.155-4.14,1.795
		c0,0-15.758,36.701-16.356,38.697c-0.075,0.248-0.524,1.746,2.394,2.195c2.594,0.398,5.383-2.195,7.776-3.99
		c2.395-1.794,17.756-11.171,21.944-12.167c0,0,2.993-0.799,3.391-1.198C35.972,39.545,38.367,36.587,33.779,36.869z"/>
	<path class="st0" d="M106.077,22.114c2.675-5.159,3.156-12.835-1.401-17.177c-2.602-2.48-5.929-3.898-9.36-4.459
		C87.78-0.757,79.647,0.512,72.428,2.997c-2.221,0.765-19.769,7.228-17.597,10.269c0.84,1.173,1.12,1.575,2.252,1.183
		c1.819-0.632,3.097-1.127,4.256-1.666c0,0,4.769-2.287,10.79-3.33c-0.706,3.811-2.004,7.963-3.288,11.539
		c-2.495,6.948-5.677,13.571-8.957,20.175c-0.469,0.945-3.668,7.553,0.174,5.94c2.143-0.899,4.591-1.92,5.498-3.581
		c1.872-3.431,2.497-5.012,4.126-8.569c0.775-1.689,3.274-8.021,3.89-9.774c2.119-6.026,3.646-9.339,5.038-15.551
		c0.213-0.949,0.479-1.529,0.777-1.907c4.4-0.893,8.845-1.471,12.353-1.217c0.261,0.026,0.524,0.051,0.781,0.079
		c3.775,0.41,8.475,1.913,9.445,6.128c0.895,3.88-1.354,7.857-3.456,10.952c-3.562,5.241-7.69,9.959-12.615,13.958
		c-2.748,2.23-5.6,4.39-8.506,6.411c-5.699,3.962-11.828,7.348-18.169,10.166c-2.849,1.267-5.745,2.422-8.688,3.455
		c-0.927,0.325-4.955,1.059-4.129,2.685c0.343,0.675,1.451,0.9,2.11,1.023c1.067,0.194,2.381,0.32,3.458,0.156
		c3.932-0.599,14.723-4.986,21.401-8.578c2.823-1.518,7.107-4.102,10.4-6.544c1.599-1.187,3.186-2.392,4.742-3.636
		c5.575-4.459,10.347-9.505,14.275-15.477C103.916,25.574,105.13,23.937,106.077,22.114z"/>
	<path class="st0" d="M212.996,26.521c-0.994-1.176-1.809-1.973-3.066-1.979c-10.412-0.041-18.695,1.187-29.851,4.063
		c-4.169,1.075-5.569,1.784-8.372,2.615c-2.621,0.775-5.252,1.521-7.9,2.198c-1.171,0.299-1.963,0.528-3.559,0.707
		c-0.818,0.092-2.644,0.012-3.021-0.845c3.142-2.176,8.252-6.181,10.012-8.371c1.549-1.753,2.672-3.953,1.846-6.288
		c-0.953-2.692-4.256-2.815-6.561-2.046c-4.013,1.338-7.76,4.424-10.211,7.818c-1.004,1.389-1.888,2.934-2.391,4.579
		c-0.397,1.304-0.669,3.42-0.163,4.936c-4.702,1.753-11.282,2.277-14.049-0.536c-1.728-1.758-1.201-1.266,0.198-1.448
		c1.497-0.195,5.036-0.719,6.484-1.129c1.642-0.465,2.98-1.186,4.389-2.163c2.377-1.649,3.59-5.213,2.726-7.111
		c-0.963-2.111-3.299-2.367-5.369-2.44c-1.102-0.039-1.563,0.051-2.767,0.224c-0.709,0.103-3.215,0.816-3.591,1.446
		c1.541-2.586,4.54-6.732,6.081-8.835c2.194-2.993,4.661-7.522,5.6-8.872c1.248-1.795-3.561-3.045-4.737-1.067
		c0,0-10.829,15.882-15.495,22.466c-3.889,5.482-5.356,8.333-7.525,11.523c-1.459,1.579-2.233,1.02-2.422,0.833
		c-0.091-0.108-0.183-0.233-0.275-0.395c-0.12-0.208,0.157-1.191,0.25-1.412c0.639-1.539,0.724-1.6,1.587-2.916
		c1.386-2.113,2.872-4.163,4.204-6.312c0.876-1.416,0.709-2.803-0.842-3.683c-1.859-1.055-3.494,0.802-4.255,1.847
		c-1.991,2.729-3.709,5.648-5.704,8.375c-1.114,1.521-2.24,3.119-3.833,4.173c-0.894,0.591-2.622,1.528-3.747,1.223
		c-2.787-0.754,1.033-6.729,1.82-7.994c0.905-1.452,1.823-2.896,2.816-4.29c0.463-0.65,1.753-1.997,1.268-2.875
		c-0.499-0.903-1.721-0.871-2.543-0.901c-1.081-0.038-1.59,0.667-2.224,1.425c-0.804,0.962-1.566,1.945-2.26,2.989
		c-2.198,3.317-4.783,7.504-5.166,11.521c-0.134,1.401,0.332,3.707,1.496,4.712c3.46,2.987,8.786-0.053,11.954-1.912
		c0.511-0.298,0.831-0.737,1.338-0.503c4.306,6.102,9.331,0.395,10.711-1.407c0.616-0.669,1.171-1.354,1.706-2.112
		c0.559-0.791,1.072-1.493,1.556-2.332c0.17-0.294,0.481-0.878,0.821,0.015c0.326,0.858,0.727,1.54,1.311,2.266
		c4.633,5.771,14.354,3.51,20.26,0.597c1.475,1.57,4.011,2.765,8.383,2.147l-0.004-0.002c0.155-0.019,0.311-0.036,0.467-0.054
		c3.432-0.427,6.77-0.99,10.098-1.951c2.357-0.68,4.727-1.358,7.061-2.11c4.7-1.515,7.869-2.432,10.175-2.87
		c4.506-0.856,7.705-1.466,12.265-1.977c5.495-0.617,8.967-1.017,13.587-1.23C214.718,28.799,213.488,27.102,212.996,26.521z
		 M135.2,27.113c0.35-0.349,0.723-0.681,1.096-1.004c1.074-0.931,2.355-1.782,3.64-2.393c0.458-0.218,0.933-0.391,1.423-0.519
		c0.167-0.043,0.335-0.083,0.504-0.118c0.836-0.173,1.832-0.331,2.63,0.06c0.397,0.195,0.778,0.587,0.743,1.057
		c-0.034,0.468-0.402,0.825-0.754,1.095c-0.733,0.562-1.552,0.987-2.42,1.3c-0.351,0.125-0.71,0.231-1.071,0.324
		c-0.754,0.195-1.522,0.326-2.293,0.437c-0.768,0.11-1.354,0.123-2.13,0.141c-0.118,0.004-0.969,0.051-1.556,0.033
		C134.81,27.521,135.189,27.123,135.2,27.113z M155.535,26.937c1.282-2.429,3.375-4.68,5.596-5.91
		c0.746-0.412,2.119-1.079,2.975-0.603c0.924,0.516,0.446,1.786-0.036,2.419c-1.118,1.472-2.225,2.544-3.502,3.607
		c-0.542,0.45-1.091,0.891-1.632,1.341c-0.005,0.004-0.01,0.007-0.015,0.012c-0.428,0.326-0.865,0.667-1.309,1.024
		c-0.788,0.635-1.686,1.283-2.583,1.898C154.641,29.418,155.109,27.912,155.535,26.937z"/>
	<path class="st0" d="M48.84,38.099c0,1.927,0,0.683,0,2.608c0,1.795,1.353,1.976,2.243,2.18c2.595,0.591,7.23-1.698,6.171-2.769
		c-0.923-0.934-3.403-0.748-3.329-3.942c0.064-2.757,4.19-9.596,4.19-9.596c1.383-2.656,1.201-2.265,0.748-3.292
		c-0.793-1.791-5.137-2.293-9.127-0.299c-3.989,1.995-8.663,7.395-11.568,12.602c-4.986,8.941-1.597,10.662,3.191,8.941
		C44.2,43.511,48.84,38.099,48.84,38.099z M43.49,38.697c-1.568-0.598-0.454-2.897,0.113-3.889c0.784-1.374,1.97-3.036,2.991-4.239
		c0.975-1.146,2.482-2.703,3.74-3.541c1.454-0.969,2.443-1.051,3.341-0.848c0.619,0.14,0.479,0.932,0.2,1.297
		c-1.79,2.339-2.805,3.598-5.088,6.283c-1.606,1.891-2.833,3.383-3.173,3.823C45.615,37.583,44.275,38.996,43.49,38.697z"/>
</g>
<g>
	<path class="st1" d="M96.347,50.654c0.883-0.902,2.006-1.353,3.369-1.353c1.824,0,3.157,0.605,4.001,1.814
		c0.466,0.679,0.716,1.361,0.751,2.045h-2.29c-0.146-0.525-0.333-0.922-0.562-1.189c-0.408-0.476-1.013-0.714-1.813-0.714
		c-0.816,0-1.459,0.336-1.931,1.007c-0.471,0.672-0.706,1.622-0.706,2.852s0.248,2.15,0.745,2.762s1.129,0.918,1.895,0.918
		c0.786,0,1.385-0.263,1.797-0.788c0.228-0.283,0.417-0.707,0.567-1.271h2.275c-0.196,1.194-0.698,2.166-1.505,2.915
		s-1.84,1.123-3.1,1.123c-1.56,0-2.786-0.505-3.679-1.517c-0.893-1.016-1.339-2.409-1.339-4.179
		C94.824,53.165,95.332,51.691,96.347,50.654z"/>
	<path class="st1" d="M114.447,59.495c-0.827,0.853-2.024,1.279-3.591,1.279s-2.764-0.426-3.592-1.279
		c-1.11-1.046-1.665-2.553-1.665-4.521c0-2.008,0.555-3.515,1.665-4.521c0.828-0.853,2.025-1.279,3.592-1.279
		s2.764,0.426,3.591,1.279c1.105,1.006,1.658,2.513,1.658,4.521C116.105,56.943,115.553,58.449,114.447,59.495z M113.016,57.83
		c0.532-0.669,0.799-1.621,0.799-2.855c0-1.229-0.267-2.18-0.799-2.852c-0.533-0.672-1.253-1.008-2.16-1.008
		s-1.631,0.335-2.171,1.004c-0.541,0.669-0.811,1.621-0.811,2.855c0,1.234,0.27,2.186,0.811,2.855
		c0.54,0.669,1.264,1.004,2.171,1.004S112.483,58.499,113.016,57.83z"/>
	<path class="st1" d="M117.526,49.509h2.4l4.351,7.642v-7.642h2.134v10.96h-2.289l-4.462-7.776v7.776h-2.134V49.509z"/>
	<path class="st1" d="M129.922,57.086c0.071,0.501,0.21,0.875,0.418,1.123c0.379,0.451,1.029,0.676,1.95,0.676
		c0.552,0,1-0.059,1.344-0.178c0.653-0.228,0.979-0.652,0.979-1.271c0-0.362-0.159-0.642-0.479-0.84
		c-0.32-0.193-0.827-0.364-1.521-0.513l-1.187-0.26c-1.166-0.258-1.968-0.538-2.403-0.84c-0.739-0.506-1.108-1.296-1.108-2.372
		c0-0.981,0.361-1.797,1.084-2.446s1.784-0.974,3.184-0.974c1.17,0,2.167,0.306,2.992,0.918s1.259,1.501,1.299,2.666h-2.201
		c-0.041-0.659-0.335-1.127-0.884-1.405c-0.366-0.183-0.821-0.275-1.364-0.275c-0.605,0-1.088,0.119-1.449,0.357
		c-0.36,0.238-0.541,0.57-0.541,0.996c0,0.392,0.178,0.684,0.534,0.877c0.229,0.129,0.714,0.28,1.456,0.454l1.923,0.454
		c0.843,0.198,1.475,0.463,1.896,0.795c0.653,0.516,0.98,1.262,0.98,2.238c0,1.001-0.388,1.833-1.161,2.495
		c-0.774,0.662-1.868,0.993-3.281,0.993c-1.442,0-2.577-0.326-3.404-0.978c-0.826-0.652-1.239-1.548-1.239-2.688H129.922z"/>
	<path class="st1" d="M146.101,49.509v1.941h-3.279v9.019h-2.305V51.45h-3.294v-1.941H146.101z"/>
	<path class="st1" d="M154.175,49.792c0.403,0.173,0.745,0.429,1.025,0.766c0.232,0.278,0.416,0.585,0.552,0.922
		c0.135,0.337,0.203,0.721,0.203,1.152c0,0.521-0.132,1.032-0.395,1.535c-0.263,0.503-0.696,0.859-1.301,1.067
		c0.505,0.203,0.863,0.492,1.074,0.866c0.21,0.374,0.315,0.945,0.315,1.714v0.736c0,0.501,0.021,0.84,0.061,1.019
		c0.061,0.283,0.201,0.491,0.423,0.625v0.275h-2.527c-0.07-0.243-0.119-0.438-0.149-0.587c-0.06-0.307-0.092-0.622-0.097-0.944
		l-0.015-1.019c-0.01-0.699-0.13-1.165-0.362-1.398c-0.232-0.233-0.667-0.35-1.305-0.35h-2.236v4.298h-2.238v-10.96h5.242
		C153.194,49.525,153.77,49.619,154.175,49.792z M149.441,51.413v2.944h2.465c0.489,0,0.856-0.06,1.102-0.179
		c0.433-0.208,0.649-0.62,0.649-1.234c0-0.664-0.21-1.11-0.629-1.338c-0.235-0.128-0.588-0.193-1.059-0.193H149.441z"/>
	<path class="st1" d="M157.858,49.509h2.327v6.731c0,0.752,0.089,1.302,0.267,1.649c0.276,0.614,0.879,0.921,1.808,0.921
		c0.924,0,1.523-0.307,1.801-0.921c0.178-0.347,0.267-0.896,0.267-1.649v-6.731h2.327v6.737c0,1.165-0.181,2.072-0.542,2.721
		c-0.673,1.189-1.957,1.785-3.853,1.785s-3.182-0.595-3.859-1.785c-0.361-0.649-0.542-1.557-0.542-2.721V49.509z"/>
	<path class="st1" d="M169.613,50.654c0.883-0.902,2.006-1.353,3.369-1.353c1.824,0,3.157,0.605,4.001,1.814
		c0.466,0.679,0.716,1.361,0.751,2.045h-2.29c-0.146-0.525-0.333-0.922-0.562-1.189c-0.408-0.476-1.013-0.714-1.813-0.714
		c-0.816,0-1.459,0.336-1.931,1.007c-0.471,0.672-0.706,1.622-0.706,2.852s0.248,2.15,0.745,2.762s1.129,0.918,1.895,0.918
		c0.786,0,1.385-0.263,1.797-0.788c0.228-0.283,0.417-0.707,0.567-1.271h2.275c-0.196,1.194-0.698,2.166-1.505,2.915
		s-1.84,1.123-3.1,1.123c-1.56,0-2.786-0.505-3.679-1.517c-0.893-1.016-1.339-2.409-1.339-4.179
		C168.09,53.165,168.597,51.691,169.613,50.654z"/>
	<path class="st1" d="M187.237,49.509v1.941h-3.279v9.019h-2.305V51.45h-3.294v-1.941H187.237z"/>
	<path class="st1" d="M190.376,60.469H188.1v-10.96h2.275V60.469z"/>
	<path class="st1" d="M200.666,59.495c-0.827,0.853-2.024,1.279-3.591,1.279s-2.764-0.426-3.592-1.279
		c-1.11-1.046-1.665-2.553-1.665-4.521c0-2.008,0.555-3.515,1.665-4.521c0.828-0.853,2.025-1.279,3.592-1.279
		s2.764,0.426,3.591,1.279c1.105,1.006,1.658,2.513,1.658,4.521C202.324,56.943,201.771,58.449,200.666,59.495z M199.235,57.83
		c0.532-0.669,0.799-1.621,0.799-2.855c0-1.229-0.267-2.18-0.799-2.852c-0.533-0.672-1.253-1.008-2.16-1.008
		s-1.631,0.335-2.171,1.004c-0.541,0.669-0.811,1.621-0.811,2.855c0,1.234,0.27,2.186,0.811,2.855
		c0.54,0.669,1.264,1.004,2.171,1.004S198.702,58.499,199.235,57.83z"/>
	<path class="st1" d="M203.746,49.509h2.4l4.351,7.642v-7.642h2.134v10.96h-2.289l-4.462-7.776v7.776h-2.134V49.509z"/>
</g>
<g>
	<path class="st1" d="M156.25,71.038c-0.03,0.637,0.127,1.086,0.472,1.347c0.346,0.261,0.817,0.391,1.416,0.391
		c0.191,0,0.396-0.023,0.615-0.069c0.219-0.046,0.416-0.121,0.593-0.225c0.176-0.104,0.323-0.238,0.442-0.403
		c0.119-0.165,0.179-0.37,0.179-0.616c0-0.23-0.056-0.421-0.167-0.575c-0.111-0.153-0.257-0.282-0.438-0.385
		c-0.18-0.104-0.389-0.192-0.627-0.265c-0.237-0.073-0.483-0.144-0.736-0.213c-0.184-0.046-0.402-0.109-0.656-0.19
		c-0.253-0.081-0.498-0.199-0.736-0.357c-0.237-0.157-0.438-0.362-0.604-0.615c-0.165-0.253-0.248-0.576-0.248-0.967
		c0-0.368,0.069-0.709,0.208-1.024c0.138-0.314,0.337-0.585,0.598-0.812c0.261-0.226,0.581-0.403,0.961-0.529s0.812-0.19,1.295-0.19
		c0.43,0,0.832,0.046,1.208,0.138c0.376,0.092,0.702,0.242,0.978,0.449c0.276,0.207,0.491,0.478,0.645,0.812
		c0.153,0.333,0.223,0.742,0.207,1.225h-1.381c-0.007-0.514-0.149-0.884-0.426-1.11c-0.275-0.226-0.694-0.339-1.254-0.339
		c-0.1,0-0.237,0.012-0.414,0.035s-0.353,0.077-0.529,0.161s-0.33,0.205-0.46,0.362c-0.131,0.157-0.196,0.374-0.196,0.65
		c0,0.199,0.046,0.364,0.139,0.495c0.092,0.13,0.217,0.242,0.374,0.333c0.157,0.092,0.339,0.169,0.546,0.23s0.426,0.119,0.656,0.172
		c0.291,0.077,0.585,0.161,0.88,0.253c0.296,0.092,0.564,0.22,0.806,0.385c0.242,0.165,0.438,0.382,0.587,0.65
		c0.149,0.269,0.225,0.618,0.225,1.047c0,0.322-0.062,0.641-0.185,0.955c-0.122,0.314-0.32,0.598-0.592,0.852
		c-0.272,0.253-0.626,0.458-1.06,0.616c-0.433,0.157-0.96,0.236-1.582,0.236c-0.483,0-0.92-0.056-1.312-0.167
		c-0.392-0.111-0.723-0.284-0.995-0.518c-0.272-0.234-0.479-0.535-0.621-0.903c-0.143-0.369-0.206-0.81-0.19-1.324H156.25z"/>
	<path class="st1" d="M163.268,67.805h1.313l-1.231,5.949h-1.312L163.268,67.805z M163.74,65.538h1.301l-0.253,1.243h-1.301
		L163.74,65.538z"/>
	<path class="st1" d="M166.042,67.805h1.231l-0.184,0.863l0.022,0.023c0.238-0.33,0.535-0.587,0.892-0.771
		c0.357-0.184,0.742-0.276,1.157-0.276c0.598,0,1.037,0.142,1.317,0.426c0.279,0.284,0.42,0.667,0.42,1.15
		c0,0.107-0.004,0.23-0.012,0.368s-0.023,0.261-0.046,0.368l-0.794,3.797h-1.312l0.759-3.67c0.023-0.1,0.044-0.196,0.063-0.288
		c0.02-0.092,0.029-0.18,0.029-0.265c0-0.046-0.003-0.117-0.006-0.213c-0.004-0.096-0.033-0.191-0.087-0.288
		c-0.054-0.096-0.144-0.178-0.271-0.247c-0.126-0.069-0.309-0.104-0.546-0.104c-0.261,0-0.493,0.056-0.696,0.167
		c-0.203,0.111-0.386,0.248-0.547,0.409c-0.153,0.153-0.286,0.343-0.396,0.569c-0.111,0.227-0.194,0.462-0.248,0.708l-0.667,3.222
		h-1.312L166.042,67.805z"/>
	<path class="st1" d="M176.134,69.773c0.015-0.368-0.085-0.642-0.3-0.823c-0.215-0.18-0.506-0.271-0.874-0.271
		c-0.33,0-0.618,0.085-0.863,0.253c-0.245,0.169-0.449,0.384-0.609,0.645c-0.161,0.261-0.282,0.546-0.363,0.857
		c-0.08,0.311-0.12,0.608-0.12,0.892c0,0.222,0.022,0.428,0.068,0.615c0.046,0.188,0.121,0.351,0.225,0.489s0.24,0.248,0.408,0.328
		c0.169,0.081,0.376,0.121,0.622,0.121c0.391,0,0.711-0.104,0.961-0.311c0.249-0.207,0.427-0.495,0.534-0.863h1.313
		c-0.215,0.767-0.575,1.327-1.082,1.68c-0.506,0.353-1.154,0.529-1.944,0.529c-0.392,0-0.736-0.062-1.036-0.184
		c-0.299-0.123-0.55-0.297-0.753-0.523c-0.204-0.227-0.359-0.495-0.467-0.806s-0.161-0.654-0.161-1.03
		c0-0.499,0.077-0.974,0.23-1.427s0.376-0.85,0.667-1.191c0.292-0.341,0.646-0.612,1.064-0.812c0.418-0.199,0.893-0.299,1.422-0.299
		c0.329,0,0.64,0.046,0.932,0.138c0.291,0.092,0.545,0.227,0.76,0.403c0.214,0.177,0.383,0.399,0.506,0.667s0.181,0.575,0.173,0.92
		H176.134z"/>
	<path class="st1" d="M183.532,71.913c-0.207,0.698-0.557,1.207-1.048,1.525c-0.49,0.318-1.097,0.478-1.817,0.478
		c-0.376,0-0.724-0.06-1.042-0.178c-0.318-0.119-0.592-0.292-0.822-0.518c-0.23-0.226-0.41-0.499-0.541-0.817
		s-0.195-0.681-0.195-1.087c0-0.46,0.072-0.909,0.219-1.346c0.146-0.438,0.358-0.829,0.639-1.174
		c0.279-0.345,0.625-0.623,1.035-0.834s0.881-0.316,1.41-0.316s0.958,0.088,1.288,0.265c0.33,0.176,0.587,0.399,0.771,0.667
		c0.184,0.269,0.309,0.564,0.374,0.886c0.064,0.322,0.098,0.629,0.098,0.92c0,0.146-0.008,0.28-0.023,0.403
		c-0.016,0.123-0.03,0.234-0.046,0.333h-4.43c-0.008,0.039-0.014,0.073-0.018,0.104c-0.004,0.03-0.006,0.061-0.006,0.092v0.184
		c0,0.414,0.109,0.748,0.328,1.001c0.219,0.253,0.581,0.38,1.087,0.38c0.354,0,0.656-0.081,0.909-0.242s0.426-0.403,0.518-0.725
		H183.532z M182.577,70.256c0.007-0.038,0.012-0.071,0.012-0.098s0-0.056,0-0.086v-0.184c0-0.353-0.111-0.643-0.334-0.869
		c-0.223-0.227-0.529-0.34-0.921-0.34c-0.491,0-0.882,0.148-1.174,0.443c-0.291,0.295-0.502,0.673-0.633,1.133H182.577z"/>
	<path class="st1" d="M189.066,67.034c0.545,0,1.055-0.105,1.53-0.316s0.848-0.551,1.116-1.019h1.048l-1.691,8.055h-1.393l1.22-5.88
		c-0.346,0.077-0.685,0.128-1.019,0.155s-0.677,0.041-1.03,0.041L189.066,67.034z"/>
	<path class="st1" d="M195.28,71.717c0.008,0.345,0.107,0.616,0.299,0.811c0.191,0.196,0.476,0.293,0.852,0.293
		s0.688-0.081,0.938-0.242c0.25-0.161,0.451-0.368,0.604-0.621c0.153-0.253,0.276-0.533,0.368-0.84
		c0.092-0.307,0.173-0.602,0.242-0.886l-0.023-0.023c-0.207,0.276-0.459,0.478-0.754,0.604s-0.627,0.19-0.995,0.19
		c-0.153,0-0.36-0.016-0.621-0.046c-0.261-0.031-0.522-0.127-0.783-0.288s-0.484-0.412-0.673-0.753
		c-0.188-0.341-0.282-0.819-0.282-1.433c0-0.414,0.073-0.8,0.219-1.156c0.146-0.357,0.346-0.667,0.599-0.932
		s0.554-0.474,0.903-0.627c0.349-0.153,0.727-0.23,1.134-0.23c0.514,0,0.938,0.073,1.271,0.219c0.333,0.146,0.602,0.332,0.805,0.558
		s0.354,0.476,0.449,0.748c0.096,0.272,0.161,0.529,0.195,0.771c0.035,0.242,0.048,0.455,0.04,0.639
		c-0.007,0.184-0.011,0.303-0.011,0.357c0,0.33-0.027,0.685-0.081,1.064c-0.054,0.379-0.14,0.759-0.259,1.139
		c-0.119,0.379-0.274,0.742-0.466,1.087c-0.192,0.345-0.426,0.652-0.702,0.92s-0.599,0.481-0.967,0.639s-0.786,0.236-1.254,0.236
		c-0.338,0-0.648-0.048-0.932-0.144c-0.284-0.096-0.529-0.236-0.736-0.42c-0.208-0.184-0.373-0.412-0.495-0.685
		c-0.123-0.272-0.188-0.589-0.195-0.949H195.28z M197.133,69.968c0.261,0,0.492-0.05,0.696-0.149c0.203-0.1,0.372-0.236,0.506-0.409
		c0.135-0.173,0.236-0.37,0.305-0.593c0.069-0.222,0.104-0.46,0.104-0.713c0-0.207-0.024-0.398-0.074-0.575
		c-0.05-0.176-0.129-0.332-0.236-0.466s-0.243-0.24-0.408-0.317c-0.165-0.076-0.362-0.115-0.593-0.115
		c-0.276,0-0.518,0.054-0.725,0.161c-0.207,0.107-0.38,0.251-0.518,0.431c-0.139,0.181-0.244,0.384-0.316,0.61
		c-0.073,0.227-0.109,0.455-0.109,0.685c0,0.422,0.109,0.769,0.328,1.041C196.309,69.832,196.657,69.968,197.133,69.968z"/>
	<path class="st1" d="M201.666,65.699h5.569l-0.253,1.243c-0.077,0.077-0.225,0.227-0.443,0.449
		c-0.219,0.223-0.474,0.506-0.765,0.852c-0.292,0.345-0.603,0.748-0.933,1.208c-0.33,0.46-0.645,0.967-0.943,1.519
		c-0.238,0.445-0.445,0.899-0.621,1.364c-0.177,0.464-0.33,0.938-0.461,1.421h-1.461c0.376-1.312,0.921-2.539,1.634-3.682
		c0.714-1.143,1.554-2.209,2.521-3.199h-4.097L201.666,65.699z"/>
	<path class="st1" d="M208.075,71.717c0.008,0.345,0.107,0.616,0.299,0.811c0.191,0.196,0.476,0.293,0.852,0.293
		s0.688-0.081,0.938-0.242c0.25-0.161,0.451-0.368,0.604-0.621c0.153-0.253,0.276-0.533,0.368-0.84
		c0.092-0.307,0.173-0.602,0.242-0.886l-0.023-0.023c-0.207,0.276-0.459,0.478-0.754,0.604s-0.627,0.19-0.995,0.19
		c-0.153,0-0.36-0.016-0.621-0.046c-0.261-0.031-0.522-0.127-0.783-0.288s-0.484-0.412-0.673-0.753
		c-0.188-0.341-0.282-0.819-0.282-1.433c0-0.414,0.073-0.8,0.219-1.156c0.146-0.357,0.346-0.667,0.599-0.932
		s0.554-0.474,0.903-0.627c0.349-0.153,0.727-0.23,1.134-0.23c0.514,0,0.938,0.073,1.271,0.219c0.333,0.146,0.602,0.332,0.805,0.558
		s0.354,0.476,0.449,0.748c0.096,0.272,0.161,0.529,0.195,0.771c0.035,0.242,0.048,0.455,0.04,0.639
		c-0.007,0.184-0.011,0.303-0.011,0.357c0,0.33-0.027,0.685-0.081,1.064c-0.054,0.379-0.14,0.759-0.259,1.139
		c-0.119,0.379-0.274,0.742-0.466,1.087c-0.192,0.345-0.426,0.652-0.702,0.92s-0.599,0.481-0.967,0.639s-0.786,0.236-1.254,0.236
		c-0.338,0-0.648-0.048-0.932-0.144c-0.284-0.096-0.529-0.236-0.736-0.42c-0.208-0.184-0.373-0.412-0.495-0.685
		c-0.123-0.272-0.188-0.589-0.195-0.949H208.075z M209.928,69.968c0.261,0,0.492-0.05,0.696-0.149
		c0.203-0.1,0.372-0.236,0.506-0.409c0.135-0.173,0.236-0.37,0.305-0.593c0.069-0.222,0.104-0.46,0.104-0.713
		c0-0.207-0.024-0.398-0.074-0.575c-0.05-0.176-0.129-0.332-0.236-0.466s-0.243-0.24-0.408-0.317
		c-0.165-0.076-0.362-0.115-0.593-0.115c-0.276,0-0.518,0.054-0.725,0.161s-0.38,0.251-0.518,0.431
		c-0.139,0.181-0.244,0.384-0.316,0.61c-0.073,0.227-0.109,0.455-0.109,0.685c0,0.422,0.109,0.769,0.328,1.041
		C209.104,69.832,209.452,69.968,209.928,69.968z"/>
</g>
</svg>
