<?xml version="1.0" encoding="utf-8"?>
<!-- Generator: Adobe Illustrator 22.0.1, SVG Export Plug-In . SVG Version: 6.00 Build 0)  -->
<svg version="1.1" id="Layer_1" xmlns="http://www.w3.org/2000/svg" xmlns:xlink="http://www.w3.org/1999/xlink" x="0px" y="0px"
	 viewBox="0 0 330.709 126.853" style="enable-background:new 0 0 330.709 126.853;" xml:space="preserve">
<style type="text/css">
	.st0{fill:#635458;}
	.st1{fill:#E42C18;}
</style>
<g>
	<path class="st0" d="M30.952,97.405c-3.857,4.713-8.021,7.065-12.484,7.065c-6.003,0-10.579-2.254-13.737-6.76
		C1.576,93.198,0,87.759,0,81.383c0-6.367,1.576-11.808,4.73-16.319c3.158-4.507,7.734-6.76,13.737-6.76
		c4.464,0,8.523,2.168,12.189,6.51c0.617,0.876,1.172,1.779,1.664,2.723l-3.998,2.19c-0.29-0.567-0.598-1.122-0.921-1.658
		c-2.771-3.435-5.749-5.151-8.934-5.151c-4.727,0-8.213,1.807-10.469,5.415c-2.254,3.607-3.383,7.964-3.383,13.051
		c0,5.097,1.129,9.446,3.383,13.06c2.256,3.609,5.742,5.414,10.469,5.414c3.185,0,6.262-1.908,9.234-5.729
		c0.139-0.227,0.277-0.459,0.416-0.691l4.203,1.797C31.905,95.976,31.453,96.7,30.952,97.405z"/>
	<path class="st0" d="M35.423,81.383c0-5.66,1.352-9.394,4.052-11.196c2.7-1.797,5.969-2.699,9.8-2.699
		c3.832,0,7.1,0.902,9.801,2.699c2.701,1.803,4.051,3.979,4.051,6.537V90.62c0,5.633-1.35,9.344-4.051,11.148
		c-2.701,1.803-5.969,2.701-9.801,2.701c-3.831,0-7.1-0.899-9.8-2.701c-2.7-1.805-4.052-3.979-4.052-6.535V81.383z M58.513,76.724
		c0-1.279-0.904-2.369-2.705-3.263c-1.803-0.903-3.98-1.354-6.533-1.354c-2.557,0-4.73,0.451-6.536,1.354
		c-1.798,0.894-2.7,3.54-2.7,7.922v13.851c0,1.279,0.902,2.369,2.7,3.273c1.806,0.895,3.979,1.35,6.536,1.35
		c2.553,0,4.73-0.455,6.533-1.35c1.801-0.904,2.705-3.527,2.705-7.887V76.724z"/>
	<path class="st0" d="M68.411,67.536h4.617v1.846c1.986-1.229,4.297-1.846,6.927-1.846c3.188,0,5.911,0.898,8.173,2.7
		c0.416,0.335,0.796,0.685,1.131,1.037c0.309-0.397,0.648-0.747,1.016-1.037c2.248-1.802,4.963-2.7,8.15-2.7s5.91,0.898,8.173,2.7
		c2.231,1.784,3.358,3.948,3.371,6.487h-4.618c-0.014-1.261-0.693-2.338-2.03-3.236c-1.354-0.891-2.986-1.332-4.896-1.332
		c-1.91,0-3.541,0.441-4.896,1.332c-1.337,0.899-2.013,3.527-2.03,7.896v23.087h-4.613V76.769h0.32v-0.045h-0.32
		c-0.019-1.261-0.694-2.338-2.035-3.236c-1.354-0.891-2.986-1.332-4.896-1.332c-1.905,0-3.541,0.441-4.892,1.332
		c-1.337,0.899-2.021,3.527-2.035,7.896v23.087h-4.617V67.536z M109.969,76.769v27.701h-4.618V76.769H109.969z"/>
	<path class="st0" d="M122.151,56.336c2.706-1.798,5.975-2.695,9.801-2.695v4.618c-2.553,0-4.73,0.447-6.532,1.346
		c-1.802,0.898-2.695,3.546-2.695,7.932h9.228v4.619h-9.228v32.315h-4.622V72.155h-4.615v-4.619h4.615
		C118.102,61.872,119.452,58.138,122.151,56.336z"/>
	<path class="st0" d="M133.173,81.383c0-5.66,1.351-9.394,4.051-11.196c2.705-1.797,5.969-2.699,9.797-2.699
		c3.836,0,7.104,0.902,9.801,2.699c2.703,1.803,4.055,3.979,4.055,6.537V90.62c0,5.633-1.352,9.344-4.055,11.148
		c-2.697,1.803-5.965,2.701-9.801,2.701c-3.828,0-7.092-0.899-9.797-2.701c-2.7-1.805-4.051-3.979-4.051-6.535V81.383z
		 M156.257,76.724c0-1.279-0.898-2.369-2.7-3.263c-1.798-0.903-3.979-1.354-6.536-1.354c-2.549,0-4.73,0.451-6.527,1.354
		c-1.803,0.894-2.701,3.54-2.701,7.922v13.851c0,1.279,0.898,2.369,2.701,3.273c1.797,0.895,3.978,1.35,6.527,1.35
		c2.557,0,4.738-0.455,6.536-1.35c1.802-0.904,2.7-3.527,2.7-7.887V76.724z"/>
	<path class="st0" d="M170.778,81.383v23.087h-4.613V67.536h4.613v2.33c2.59-1.557,5.666-2.33,9.238-2.33v4.619
		c-2.557,0-4.734,0.446-6.533,1.35C171.682,74.399,170.778,77.028,170.778,81.383z"/>
	<path class="st0" d="M187.733,72.155h-4.615v-4.619h4.615V53.641h4.623v13.896h9.227v4.619h-9.227v18.441
		c0,4.373,0.898,7.006,2.695,7.91c1.803,0.895,3.979,1.35,6.531,1.35v4.613c-3.826,0-7.094-0.899-9.791-2.701
		c-2.705-1.805-4.059-5.516-4.059-11.148V72.155z"/>
</g>
<path class="st1" d="M180.016,38.322v14.343l-72.296-38.32l-72.297,38.32V38.322L107.72,0L180.016,38.322z M206.672,104.47h4.617
	v-0.992c3.082,0.662,6.158,0.992,9.238,0.992c3.83,0,7.096-1.35,9.801-4.049c2.699-2.701,4.049-5.967,4.049-9.801
	c0-3.832-1.346-7.1-4.037-9.811c-0.648-0.634-1.457-1.192-2.428-1.689c0.184-0.09,0.354-0.191,0.51-0.295
	c2.428-1.712,3.648-4.318,3.648-7.828c0-3.51-1.238-6.501-3.715-8.982c-2.486-2.478-5.473-3.711-8.982-3.711l-12.701-0.027V104.47z
	 M211.289,62.917h8.084c2.23,0,4.137,0.791,5.715,2.365c1.572,1.578,2.365,3.483,2.365,5.715c0,2.23-0.77,3.751-2.309,4.546
	c-1.402,0.743-6.016,1.149-13.855,1.226V62.917z M213.602,81.365v0.018c7.172,0,11.654,0.902,13.457,2.7
	c1.801,1.805,2.701,3.982,2.701,6.537c0,2.557-0.9,4.73-2.701,6.535c-1.803,1.799-3.979,2.701-6.531,2.701
	c-3.08,0-6.156-0.34-9.238-1.02V81.383C212.385,81.383,213.155,81.378,213.602,81.365z M268.174,67.487h-4.623v23.088
	c0,4.385-0.895,7.027-2.699,7.932c-1.799,0.895-3.98,1.35-6.529,1.35c-2.557,0-4.728-0.455-6.537-1.35
	c-1.801-0.904-2.699-1.994-2.699-3.273V67.487h-4.619v27.746c0,2.557,1.355,4.73,4.055,6.535c2.701,1.803,5.965,2.701,9.801,2.701
	c3.568,0,6.645-0.777,9.229-2.328v2.283h4.623V67.487z M274.489,67.536v4.619h4.617v32.315h4.619V67.536H274.489z M280.264,62.917
	c0.949,0,1.762-0.34,2.445-1.015c0.676-0.675,1.016-1.493,1.016-2.445c0-0.956-0.34-1.771-1.016-2.45
	c-0.684-0.675-1.496-1.016-2.445-1.016c-0.957,0-1.771,0.341-2.451,1.016c-0.678,0.68-1.014,1.494-1.014,2.45
	c0,0.952,0.336,1.771,1.014,2.445C278.493,62.577,279.307,62.917,280.264,62.917z M298.032,53.563h-4.613v43.861
	c0.018,1.932,0.688,3.559,2.029,4.895c1.354,1.355,2.986,2.035,4.891,2.035v-4.613c-0.625,0-1.162-0.234-1.609-0.699
	c-0.447-0.43-0.68-0.969-0.697-1.617V53.563z M309.602,90.62c0,5.633,1.355,9.344,4.051,11.148c2.701,1.803,5.975,2.701,9.805,2.701
	v-4.613c-2.557,0-4.734-0.455-6.531-1.35c-1.807-0.904-2.699-3.537-2.699-7.91V72.155h9.23v-4.619h-9.23V53.641h-4.625v13.896
	h-4.613v4.619h4.613V90.62z M249.661,117.376c-1.578-0.293-3.773-0.613-4.857,0.816c-1.406,2.541,1.973,3.871,3.305,5.5
	c0.197,0.369,0.197,0.961-0.174,1.258c-0.984,0.689-2.49,0.223-3.379-0.076l0.125,1.48c0.592,0.123,1.16,0.273,1.775,0.297
	c1.453,0.172,2.885-0.1,3.602-1.357c1.133-2.59-2.295-3.6-3.479-5.326c-0.123-0.322-0.074-0.74,0.172-1.012
	c0.742-0.689,2.123-0.418,2.961-0.098L249.661,117.376L249.661,117.376z M215.407,117.255h-2.291l0.049,0.121
	c0.738,3.012,1.676,6.045,2.121,9.102h2.662c0.568-2.541,1.481-4.932,2.195-7.396c0.742,2.465,1.604,4.881,2.195,7.396h2.619
	c0.543-2.662,1.26-5.523,1.875-8.285l0.371-0.938h-2.246c-0.443,2.342-0.84,4.809-1.436,7.154c-0.74-2.346-1.406-4.738-1.949-7.154
	h-2.836c-0.566,2.416-1.207,4.834-2.021,7.154C216.274,122.015,215.68,119.722,215.407,117.255L215.407,117.255z M234.243,118.735
	l-0.051-1.48h-6.684c0.174,3.008,0.174,6.215,0,9.223h6.684l0.051-1.527c-1.408,0.223-2.984,0.074-4.49,0.123v-2.615
	c1.334,0.051,2.715-0.098,3.971,0.125v-1.555c-1.232,0.221-2.613,0.098-3.92,0.123l-0.174-0.123l0.076-2.369L234.243,118.735
	L234.243,118.735z M237.481,117.255h-2.664l0.1,0.295c0.074,2.938,0.146,6.02-0.049,8.928h1.898l0.049-6.855l4.563,6.855h2.615
	l-0.123-0.295l0.047-8.928h-1.947l0.049,6.979C240.44,121.94,238.985,119.571,237.481,117.255L237.481,117.255z M212.754,118.487
	c-0.768-1.652-2.516-2.736-4.219-3.008c-2.418-0.271-4.957-0.074-6.633,1.896c-1.285,1.557-1.455,4.047-0.814,5.971
	c0.789,2.393,3.303,3.402,5.621,3.502c2.369,0.074,4.836-0.717,5.971-3.033C213.418,122.261,213.344,120.091,212.754,118.487
	L212.754,118.487z M210.262,118.907c0.691,1.281,0.617,3.23-0.074,4.488c-0.865,1.357-2.367,1.875-3.945,1.604
	c-1.109-0.074-2.17-0.889-2.615-1.898c-0.518-1.334-0.592-3.133,0.172-4.365c0.939-1.332,2.492-1.9,4.145-1.555
	C208.856,117.427,209.77,118.021,210.262,118.907L210.262,118.907z M265.592,115.849c-1.998-0.322-4.391-0.545-6.215,0.221
	c-1.65,0.59-2.762,2.342-3.033,3.971c-0.273,1.898,0.049,3.699,1.355,5.031c2.021,2.096,5.303,1.973,7.99,1.477l0.123-1.896
	c-1.504,0.566-3.451,0.764-4.955,0.074c-1.063-0.494-1.926-1.578-1.973-2.736c-0.199-1.58,0.148-3.109,1.479-4.07
	c1.527-0.914,3.65-0.814,5.275-0.246L265.592,115.849L265.592,115.849z M316.12,117.548c-1.307-0.295-2.689-0.42-4.145-0.344
	c-1.85,0.195-3.773,1.406-4.315,3.303c-0.395,1.629-0.174,3.406,0.961,4.613c1.924,2.172,5.475,1.652,7.99,1.135
	c0.025-1.654-0.098-3.379,0.1-4.982h-2.17c0.195,1.184,0.072,2.49,0.098,3.748c-1.186,0.297-2.441,0.445-3.551-0.123
	c-0.74-0.393-1.285-1.186-1.48-1.947c-0.32-1.332,0-2.689,1.084-3.553c1.432-1.256,3.873-0.912,5.5-0.295
	C316.168,118.585,316.243,118.04,316.12,117.548L316.12,117.548z M283.792,119.497c-0.666-3.379-4.76-1.752-7.324-2.17
	c0.172,2.984,0.172,6.189,0,9.174h2.119c0.027-0.148-0.049-0.246-0.123-0.371l0.074-7.52c1.109,0.195,2.689-0.496,3.256,0.787
	c0.125,0.568,0.074,1.232-0.42,1.654c-0.617,0.492-1.48,0.541-2.242,0.418l3.057,5.031h2.27l-3.084-4.217l1.061-0.346
	C283.446,121.519,283.815,120.36,283.792,119.497L283.792,119.497z M287.289,117.327h-2.615l0.123,0.346
	c0.074,2.908,0.148,5.941-0.049,8.828h1.947c-0.197-2.195-0.123-4.588-0.049-6.807c1.529,2.195,3.059,4.537,4.619,6.807h2.49
	l0.051-9.174h-2.023c0.32,2.07,0.174,4.684,0.123,6.979C290.299,121.989,288.893,119.62,287.289,117.327L287.289,117.327z
	 M297.018,117.327h-2.244c0.172,2.984,0.172,6.189,0,9.174h2.244C297.018,123.442,296.747,120.335,297.018,117.327L297.018,117.327z
	 M305.051,124.306l-4.537-6.979h-2.615c0.174,2.984,0.174,6.189,0,9.174h2.023c-0.199-2.195-0.148-4.588-0.074-6.807l4.561,6.807
	h2.615c-0.197-2.984-0.197-6.189,0-9.174H305L305.051,124.306L305.051,124.306z M275.563,119.743
	c-0.592-1.355-2.021-2.221-3.381-2.49c-2.022-0.223-4.191-0.074-5.623,1.479c-1.035,1.184-1.133,2.91-0.887,4.516
	c0.322,1.453,1.728,2.859,3.207,3.18c2.27,0.443,4.957,0.223,6.387-1.826C276.155,123.247,276.082,121.247,275.563,119.743
	L275.563,119.743z M273.442,119.989c0.617,1.16,0.639,2.912-0.125,4.019c-0.861,1.088-2.268,1.406-3.625,1.063
	c-0.69-0.271-1.479-0.791-1.773-1.531c-0.447-1.256-0.471-3.082,0.539-4.092c0.84-0.791,2.023-0.963,3.207-0.766
	C272.356,118.856,273.047,119.3,273.442,119.989L273.442,119.989z M168.853,126.503h1.185l1.884-5.698h0.032l1.835,5.698h1.152
	l2.825-7.761h-1.348l-2.013,5.699h-0.033l-1.818-5.699h-1.136l-1.852,5.699h-0.032l-1.932-5.699h-1.445L168.853,126.503z
	 M179.234,116.47h1.331v-1.526h-1.331V116.47z M179.234,126.503h1.331v-7.761h-1.331V126.503z M181.955,119.879h1.283v5.293
	c0,0.877,0,1.525,1.38,1.525c0.438,0,0.877-0.064,1.314-0.162v-1.137c-0.275,0.098-0.535,0.163-0.827,0.163
	c-0.536,0-0.536-0.374-0.536-0.747v-4.936h1.445v-1.137h-1.445v-2.419h-1.331v2.419h-1.283V119.879z M187.568,126.503h1.332v-4.676
	c0-1.25,0.844-2.046,2.078-2.046c0.941,0,1.64,0.406,1.64,1.737v4.984h1.331v-5.114c0-2.159-1.186-2.841-2.744-2.841
	c-1.006,0-1.77,0.454-2.272,1.233H188.9v-4.838h-1.332V126.503z M327.09,53.73c-2.025,0-3.641,1.573-3.641,3.534
	c0,2.004,1.616,3.577,3.641,3.577c2.048,0,3.62-1.573,3.62-3.577C330.709,55.303,329.137,53.73,327.09,53.73z M327.09,54.441
	c1.574,0,2.714,1.271,2.714,2.844c0,1.552-1.14,2.802-2.693,2.802c-1.593,0-2.758-1.25-2.758-2.823
	C324.353,55.712,325.518,54.441,327.09,54.441z M326.53,57.695h0.388c0.453,0,0.669,0.173,0.732,0.561
	c0.109,0.409,0.174,0.732,0.281,0.861h0.884c-0.088-0.129-0.151-0.345-0.26-0.883c-0.107-0.474-0.302-0.733-0.646-0.861v-0.043
	c0.43-0.13,0.732-0.432,0.732-0.819c0-0.345-0.151-0.625-0.344-0.776c-0.26-0.151-0.56-0.259-1.228-0.259
	c-0.583,0-1.035,0.043-1.358,0.108v3.534h0.819V57.695z M326.551,56.101c0.086-0.022,0.237-0.044,0.453-0.044
	c0.518,0,0.754,0.216,0.754,0.539c0,0.367-0.367,0.518-0.819,0.518h-0.388V56.101z"/>
<g>
	<path class="st1" d="M320.103,117.22c-0.927,0-1.667,0.72-1.667,1.618c0,0.917,0.74,1.637,1.667,1.637
		c0.937,0,1.657-0.72,1.657-1.637C321.76,117.94,321.04,117.22,320.103,117.22z M320.113,120.13c-0.729,0-1.263-0.572-1.263-1.292
		c0-0.71,0.533-1.292,1.253-1.292c0.721,0,1.243,0.582,1.243,1.302C321.346,119.558,320.823,120.13,320.113,120.13z"/>
	<path class="st1" d="M320.774,119.281c-0.049-0.217-0.138-0.335-0.296-0.394v-0.02c0.197-0.059,0.335-0.198,0.335-0.375
		c0-0.158-0.069-0.286-0.157-0.355c-0.119-0.069-0.256-0.118-0.562-0.118c-0.267,0-0.474,0.02-0.622,0.049v1.618h0.375v-0.651h0.178
		c0.207,0,0.306,0.079,0.335,0.257c0.05,0.187,0.079,0.335,0.129,0.394h0.405C320.852,119.627,320.823,119.528,320.774,119.281z
		 M320.034,118.768h-0.177v-0.463c0.039-0.01,0.108-0.02,0.207-0.02c0.237,0,0.345,0.099,0.345,0.247
		C320.409,118.699,320.241,118.768,320.034,118.768z"/>
</g>
</svg>
