<?xml version="1.0" encoding="utf-8"?>
<!-- Generator: Adobe Illustrator 22.0.1, SVG Export Plug-In . SVG Version: 6.00 Build 0)  -->
<svg version="1.1" id="Layer_1" xmlns="http://www.w3.org/2000/svg" xmlns:xlink="http://www.w3.org/1999/xlink" x="0px" y="0px"
	 viewBox="0 0 327.836 287.966" style="enable-background:new 0 0 327.836 287.966;" xml:space="preserve">
<style type="text/css">
	.st0{fill:#FFFFFF;}
	.st1{fill:#DA0E30;}
</style>
<g>
	<path class="st0" d="M264.349,0.452c0.029,0,0.058,0,0.087,0.001c-24.447,0.997-46.883,5.509-66.648,11.579
		C104.939,40.492,37.801,109.124,9.381,201.8c-5.023,16.371-7.006,33.773-9.187,53.357c-0.001-0.056-0.001-0.112-0.002-0.168v32.797
		h7.821c0-13.167,0.486-25.494,1.37-37.314c0.883-11.879,3.84-23.416,6.06-34.006c9.026-43.221,31.251-82.079,55.308-110.626
		c13.834-16.421,28.842-31.607,46.514-44.172c26.725-19.003,46.165-31.38,93.618-45.022c6.023-1.733,12.313-2.865,18.742-3.991
		c4.568-0.788,9.217-1.707,13.9-2.263c9.332-1.112,18.801-1.946,28.731-2.153c0.842-0.014,10.15-0.266,14.463,0.071
		c0-0.658,0.008-7.841,0.008-7.841L264.349,0.452z"/>
	<path class="st1" d="M272.255,8.239c0.842-0.014,10.15-0.266,14.463,0.071c0,64.105,0,128.211,0,192.324
		c0,18.431,0,36.865,0,55.306c0,6.873-0.12,15.368-0.197,21.889c-0.053,4.497-5.018,9.279-9.572,9.971c-2.553,0.375-5.44,0-8.018,0
		c-6.193,0-12.371,0-18.57,0c-19.012,0-38.051,0-57.066,0c-61.765,0-123.522,0-185.281,0c0-13.172,0.485-25.504,1.37-37.328
		c0.883-11.879,3.84-23.416,6.06-34.006c9.026-43.221,31.251-82.079,55.308-110.626c13.834-16.421,28.842-31.607,46.514-44.172
		c26.725-19.003,46.165-31.38,93.618-45.022c6.023-1.733,12.313-2.865,18.742-3.991c4.568-0.788,9.217-1.707,13.9-2.263
		C252.857,9.28,262.326,8.445,272.255,8.239z"/>
	<path class="st1" d="M9.967,0.727c8.337-1.107,18.444-0.621,26.973-0.621c19.873,0,39.729,0,59.607,0c37.135,0,74.266,0,111.405,0
		c18.711,0,37.729,0,56.484,0.346c-24.447,0.997-46.883,5.509-66.648,11.579C104.939,40.492,37.801,109.124,9.381,201.8
		c-5.023,16.371-7.006,33.773-9.187,53.357C0,235.803,0,215.43,0,195.747c0-37.533,0-75.055,0-112.579c0-17.2,0-33.786,0-50.978
		c0-6.978,0.193-22.076,0.193-22.076C1.025,5.878,5.58,1.307,9.967,0.727z"/>
	<path class="st0" d="M267.586,153.696l0.199,6c-3.4-1.3-9-2.399-12,0.4c-1,1.1-1.199,2.8-0.699,4.1
		c4.799,7,18.699,11.101,14.1,21.601c-2.9,5.1-8.701,6.2-14.6,5.5c-2.5-0.1-4.801-0.7-7.201-1.2l-0.5-6
		c3.6,1.2,9.701,3.1,13.701,0.3c1.5-1.2,1.5-3.6,0.699-5.1c-5.4-6.601-19.1-12-13.4-22.3
		C252.286,151.197,261.186,152.497,267.586,153.696L267.586,153.696z"/>
	<path class="st0" d="M128.7,153.196c1.101,10.001,3.5,19.301,5.3,29.001c3.301-9.4,5.9-19.2,8.2-29.001h11.5
		c2.2,9.801,4.9,19.5,7.9,29.001c2.41-9.501,4.02-19.501,5.82-29.001h9.1l-1.5,3.801c-2.5,11.199-5.398,22.8-7.6,33.6h-10.62
		c-2.4-10.2-5.9-20-8.9-30c-2.9,10-6.6,19.7-8.9,30h-10.8c-1.8-12.4-5.601-24.7-8.601-36.9l-0.199-0.5H128.7L128.7,153.196z"/>
	<path class="st0" d="M205.065,159.196l-18.4-0.3l-0.301,9.601l0.701,0.5c5.299-0.101,10.9,0.399,15.9-0.5v6.3
		c-5.102-0.9-10.701-0.3-16.102-0.5v10.6c6.102-0.2,12.5,0.4,18.201-0.5l-0.201,6.2h-27.1c0.701-12.2,0.701-25.2,0-37.4h27.1
		L205.065,159.196L205.065,159.196z"/>
	<path class="st0" d="M218.198,153.196c6.1,9.4,12,19.001,18.4,28.301l-0.201-28.301h7.9l-0.199,36.2l0.5,1.2h-10.602l-18.5-27.8
		l-0.199,27.8h-7.699c0.799-11.8,0.5-24.3,0.199-36.2l-0.4-1.2H218.198L218.198,153.196z"/>
	<path class="st0" d="M63.112,199.297l0.2,7.399c-6.6-2.3-15.2-2.699-21.4,1.001c-5.399,3.899-6.8,10.1-6,16.5
		c0.2,4.699,3.7,9.1,8,11.1c6.101,2.799,14,2,20.1-0.301l-0.499,7.699c-10.9,2-24.2,2.502-32.4-6c-5.3-5.398-6.6-12.699-5.5-20.398
		c1.101-6.601,5.601-13.701,12.3-16.1C45.312,197.097,55.012,197.997,63.112,199.297L63.112,199.297z"/>
	<path class="st0" d="M267.985,206.197c0.5,1.999,0.201,4.199,0.301,6.299c-6.6-2.499-16.5-3.9-22.301,1.201
		c-4.398,3.498-5.699,9-4.398,14.398c0.799,3.1,3,6.301,6,7.9c4.5,2.301,9.6,1.701,14.398,0.5c-0.1-5.1,0.4-10.4-0.398-15.199h8.799
		c-0.799,6.5-0.299,13.5-0.4,20.199c-10.199,2.1-24.6,4.199-32.398-4.6c-4.602-4.9-5.5-12.1-3.9-18.699
		c2.199-7.701,10-12.601,17.5-13.401C257.086,204.497,262.686,204.997,267.985,206.197L267.985,206.197z"/>
	<path class="st0" d="M136.905,214.096c0.101,3.5-1.399,8.201-5.5,9.9l-4.3,1.4l12.5,17.1h-9.2l-12.4-20.4
		c3.101,0.5,6.601,0.301,9.101-1.699c2-1.701,2.199-4.4,1.699-6.699c-2.299-5.201-8.699-2.4-13.199-3.201l-0.301,30.499
		c0.301,0.5,0.601,0.9,0.5,1.5h-8.6c0.7-12.1,0.7-25.1,0-37.2C117.605,206.997,134.205,200.396,136.905,214.096L136.905,214.096z"/>
	<path class="st0" d="M151.088,205.297c6.501,9.299,12.204,18.901,18.721,28.299c0.201-9.299,0.801-19.898-0.5-28.299h8.201
		l-0.201,37.2h-10.1c-6.322-9.199-12.522-18.699-18.722-27.6c-0.3,9-0.6,18.699,0.2,27.6h-7.9c0.801-11.699,0.5-24,0.2-35.8
		l-0.5-1.399H151.088L151.088,205.297z"/>
	<path class="st0" d="M190.538,205.297c-1.102,12.2,0,24.799,0,37.2h-9.102c0.701-12.1,0.701-25.1,0-37.2H190.538L190.538,205.297z"
		/>
	<path class="st0" d="M223.108,233.596l-0.199-28.299h8.199c-0.799,12.1-0.799,25.1,0,37.2h-10.6l-18.5-27.6
		c-0.301,9-0.5,18.699,0.301,27.6h-8.201c0.701-12.1,0.701-25.1,0-37.2h10.6L223.108,233.596L223.108,233.596z"/>
	<path class="st0" d="M117.934,158.196c-3.1-6.699-10.2-11.1-17.1-12.199c-9.801-1.101-20.101-0.301-26.9,7.699
		c-5.2,6.301-5.9,16.4-3.301,24.2c3.201,9.7,13.4,13.8,22.801,14.2c9.6,0.3,19.6-2.9,24.199-12.3
		C120.633,173.497,120.334,164.697,117.934,158.196z M107.533,178.097c-3.5,5.5-9.6,7.6-16,6.5c-4.5-0.3-8.8-3.6-10.6-7.7
		c-2.1-5.399-2.4-12.7,0.699-17.7c3.801-5.399,10.1-7.699,16.801-6.3c3.699,1,7.4,3.4,9.4,7
		C110.633,165.097,110.334,172.997,107.533,178.097z"/>
	<path class="st0" d="M103.538,215.096c-2.399-5.499-8.2-8.999-13.7-10.099c-8.199-0.9-17-0.3-22.8,6
		c-4.2,4.8-4.601,11.8-3.601,18.3c1.301,5.898,7.001,11.6,13.001,12.9c9.2,1.799,20.1,0.898,25.899-7.4
		C105.937,229.297,105.639,221.198,103.538,215.096z M94.438,232.397c-3.501,4.4-9.2,5.699-14.7,4.299c-2.801-1.1-6-3.199-7.2-6.199
		c-1.8-5.1-1.899-12.5,2.2-16.6c3.4-3.2,8.199-3.9,13-3.1c2.8,0.7,5.6,2.5,7.199,5.299
		C97.438,220.797,97.538,227.897,94.438,232.397z"/>
	<path class="st1" d="M314.536,236.348c7.342,0,13.301-5.996,13.301-13.383c0-7.307-5.959-13.294-13.301-13.294
		c-7.381,0-13.375,5.988-13.375,13.294C301.161,230.352,307.155,236.348,314.536,236.348z M314.536,234.223
		c-6.531,0-11.248-4.689-11.248-11.258c0-6.482,4.717-11.168,11.248-11.168c6.492,0,11.172,4.686,11.172,11.168
		C325.708,229.534,321.028,234.223,314.536,234.223z M311.475,223.748h3.271l4.283,6.779h2.209l-4.539-6.779
		c2.65-0.209,4.705-1.309,4.705-4.254c0-2.736-1.342-4.221-5.31-4.221h-6.565v15.254h1.945V223.748z M311.475,221.981v-4.936h4.195
		c1.842,0,3.617,0.291,3.617,2.418c0,2.867-2.986,2.518-5.115,2.518H311.475z"/>
</g>
</svg>
