<svg xmlns="http://www.w3.org/2000/svg" viewBox="0 0 201 237.3"><path d="M120 160c0-10.7-8.7-19.4-19.5-19.4-10.7 0-19.4 8.7-19.4 19.5 0 6.9 3.6 12.9 9.1 16.3l-10.9 19 43-.1-11.1-19.1c5.4-3.4 8.8-9.4 8.8-16.2z" fill="none"/><path d="M49.9 94.4c5.2 0 9.5-4.3 9.4-9.5l-.1-36.1c0-11 8.6-29.8 41.2-29.8 13.9 0 25.3 4.1 32.9 11.9 5.8 6 8.5 13.4 8.5 17.8l.1 36.1c0 5.2 4.3 9.5 9.5 9.4 5.2 0 9.5-4.3 9.4-9.5l-.1-36.1c0-8.1-3.7-20.4-13.8-30.9C139 9.5 124.6-.1 100.4 0h-.1c-41.3.1-60.1 25.4-60 48.8l.1 36.2c0 5.2 4.3 9.4 9.5 9.4zm151.1 21c0-6.6-5.4-12-12-12l-177 .5c-6.6 0-12 5.4-12 12l.3 109.7c0 6.6 5.4 12 12 12l177-.5c6.6 0 12-5.4 12-12l-.3-109.7zM79.4 195.5l10.9-19c-5.4-3.4-9-9.5-9.1-16.3 0-10.7 8.6-19.4 19.4-19.5 10.7 0 19.4 8.6 19.5 19.4 0 6.8-3.4 12.7-8.7 16.2l11.1 19.1-43.1.1z"/></svg>