<svg xmlns="http://www.w3.org/2000/svg" viewBox="0 0 226.1 197.7"><path d="M54.8 1.3c-3.9 2.5-5.1 7.8-2.6 11.7 14.8 23 53.1 89.6 53.1 121 0 36.7-28.9 46.5-46 46.5-17 0-42.4-13.3-42.4-50.1 0-21.5 20.9-63.3 28.9-77.7 2.3-4.1.8-9.3-3.2-11.6-4.1-2.3-9.3-.8-11.6 3.2-1.2 2.5-31 56-31 86.3 0 43.6 30.6 67.1 59.4 67.1 30.3 0 63-19.9 63-63.5C122.4 91.4 68.9 7.5 66.6 4 64 0 58.8-1.2 54.8 1.3zm131.6 5.1c-2.5-3.9-7.8-5.1-11.7-2.6-3.9 2.5-5.1 7.8-2.6 11.7 10.3 16 37 62.4 37 83.9 0 29.4-26.8 30.3-29.9 30.3-11 0-27.4-8.7-27.4-32.8 0-14.5 11.3-37.3 15.6-44.8 2.3-4.1.9-9.3-3.1-11.6-4.1-2.3-9.3-1-11.6 3.1-.7 1.3-17.9 31.3-17.9 53.3 0 32.3 22.9 49.8 44.4 49.8 22.6 0 46.9-14.8 46.9-47.3 0-30.3-35.6-86.7-39.7-93z" fill="#000200"/></svg>