<svg id="Слой_1" xmlns="http://www.w3.org/2000/svg" viewBox="0 0 333.4 181.2"><style>.st0{fill:#000200}</style><path class="st0" d="M15.2 54.7c63.9-49.2 97.4-31.5 136.3-11.1 21 11.1 42.8 22.5 69.7 22.5 73.2 0 108.9-49.1 110.4-51.1 3-4.3 2-10.1-2.2-13.2-4.2-3-10.2-2.1-13.2 2.2-.1.1-8 11-23.8 21.8-20.8 14.2-44.8 21.5-71.3 21.5-22.2 0-41-9.9-60.8-20.3C121.4 6.3 77.2-16.9 3.7 39.7-.5 42.9-1.2 48.8 2 53c3.2 4.1 9.1 4.9 13.2 1.7z"/><path class="st0" d="M329.4 58.7c-4.2-3-10.2-2.1-13.2 2.2-.1.1-8 11-23.8 21.8-20.8 14.2-44.8 21.5-71.3 21.5-22.2 0-41-9.9-60.8-20.3C121.4 63.3 77.2 40 3.7 96.6c-4.1 3.2-4.9 9.1-1.7 13.3 3.2 4.1 9.1 4.9 13.3 1.7 63.9-49.2 97.4-31.5 136.3-11.1 21 11.1 42.8 22.5 69.7 22.5 73.2 0 108.9-49.1 110.4-51.1 2.9-4.3 1.9-10.2-2.3-13.2z"/><path class="st0" d="M329.4 116.8c-4.2-3-10.2-2.1-13.2 2.2-.1.1-8 11-23.8 21.8-20.8 14.2-44.8 21.5-71.3 21.5-22.2 0-41-9.9-60.8-20.3-39-20.5-83.1-43.8-156.7 12.9-4.1 3.2-4.9 9.1-1.7 13.3 3.2 4.1 9.1 4.9 13.3 1.7 63.9-49.2 97.4-31.5 136.3-11.1 21 11.1 42.8 22.5 69.7 22.5 73.2 0 108.9-49.1 110.4-51.1 3-4.4 2-10.3-2.2-13.4z"/></svg>