<svg xmlns="http://www.w3.org/2000/svg" viewBox="0 0 22.5 20.5"><path d="M22 11.8h-4.2V9.4c2.1-.2 3.3-1.6 3.3-3.9V5c0-.3-.3-.6-.6-.6s-.5.2-.5.6v.5c0 1.7-.7 2.6-2.3 2.7-.3-1.2-.9-2.2-2-2.5-.2-1.3-.9-2.3-2-2.9.5-.5.7-1.1.7-1.8V.6c0-.3-.3-.6-.6-.6s-.6.3-.6.6v.5c0 .8-.6 1.4-1.4 1.4h-1c-.8 0-1.4-.6-1.4-1.4V.6c0-.3-.3-.6-.6-.6s-.6.3-.6.6v.5c0 .7.3 1.3.7 1.8-1.1.6-1.9 1.6-2 2.9-1.1.2-1.7 1.2-2 2.4-1.6-.1-2.3-1-2.3-2.7V5c0-.3-.3-.6-.6-.6s-.6.2-.6.6v.5c0 2.3 1.2 3.7 3.4 3.9v2.3H.6c-.3.1-.6.3-.6.6s.3.6.6.6h4.2v1c0 .5.1.9.2 1.4-2.2.2-3.5 1.6-3.5 3.9v.5c0 .3.3.6.6.6s.6-.3.6-.6v-.5c0-1.8.9-2.7 2.7-2.8 1 2.3 3.3 4 6 4s5-1.6 6-4c1.8 0 2.7.9 2.7 2.8v.5c0 .3.3.6.6.6s.6-.3.6-.6v-.5c0-2.3-1.3-3.7-3.5-3.9.1-.4.1-.9.1-1.4v-1H22c.3 0 .6-.3.6-.6-.1-.3-.3-.5-.6-.5M10.7 3.7h1.2c1.4 0 2.6 1.2 2.6 2.6 0 .5-.4.9-.9.9H9c-.5 0-.9-.4-.9-.9 0-1.5 1.1-2.6 2.6-2.6M5.9 13.9V9.5c0-.9.3-2.2 1.1-2.5.3.8 1.1 1.4 2 1.4h1.7v10.9c-2.7-.4-4.8-2.6-4.8-5.4m6 5.4V8.4h1.7c.9 0 1.7-.6 2-1.4.8.3 1 1.6 1 2.6V14c0 2.7-2.1 5-4.7 5.3" stroke="#000" stroke-miterlimit="10"/></svg>