<svg id="Layer_1" xmlns="http://www.w3.org/2000/svg" viewBox="0 0 451.616 597.099"><style>.st0{fill:#e40073}.st1{fill:#ee97bf}.st2{fill:#fff206}.st4{fill:#f9deea}.st5{fill:#fff}</style><path class="st0" d="M419.913 553.268c11.579 3.843 28.544-1.721 31.5 10.101.8 5.7-.7 11.2-5.8 14.399-9.9 3.301-21.7 1.2-31.4-.899-17.5-3.4-33.9-12.9-47.1-25.2-34.4-33.3-44.984-78.652-50.4-124.1-3.658-30.696-6.1-59.9-19.9-85.4-5.1-8.4-10.2-18.3-19.2-23.6-4.2 7.399-5.4 15.1-8.1 23.1-17.9 65.3-30.4 137.9-31 207.1 30.1-7.699 63.9-5.8 90 9.801 10.2 6.399 21.3 13.3 27.1 24.3l-5.086 4.435c-11.5 7.8-25.394 9.062-38.613 9.664-40.162 1.831-76.4-16-111.601-30.2l-.199-.699c8.1-31.601 16.2-63.801 22.3-96.5 5.9-29.5 10.7-61.2 14.4-90.7 1.9-12.601 3.3-24.8 4.8-38.2l1.754-13.203-13.054-6.697-.4.5c-17.399 52.7-27.2 105.101-36.5 160.301l-11.5 75.3-1.7 8.2c-43 10.6-92.699 22.3-135.6 4.8-2.301-1.2-5.1-2.2-6.5-4.3 11.199-13.7 25.199-24.801 41-31 21.9-9.101 45.3-8.7 68.4-5.5 5.199-12.7 9.799-26 14-38.9 13.899-39.9 23.5-81.4 31.199-123.3 3.4-27.5 8-55.7 8.801-83.101-13.4-31.5-23.301-65.399-22-102.199-18.201 10.399-36.101 24.899-53.601 37.899l-2.299 1.448c-1.5-1.1-1.986-3.973-2.701-5.748-9.976-24.769-19.2-50.6-31.2-74.2l-1-2.1-6.9-13.5c-20.399 5.7-40.899-.8-53.5-17.2-8.799-3.7-18.799-4.6-26.699-10.4-2.5-4.3-1.929-10.024.571-14.424 1.1-3 3.829-3.876 6.429-4.776-.301-5.4 2.6-10.2 7.4-12.7 9.5-.2 16.998 4.617 24.5 9.6 4.382 2.91 8.199 7 12.5 9.101 11.199 1.2 24.5-1.3 35.5-5.2 1.299-9.1 5-17.9 13-23.6 5.299-2.1 11.399-.7 15.299 3.6 3.601 3.6 4.201 9.5 3.101 13.7-4.601 4.6-9 9.7-12.7 14.899 3.4 3.3 6.7 7 6 11.8-3 7-7.8 13.4-11 20.4 9.5 19.6 18.938 40.192 30.838 59.692 20.4-12.6 38.963-27.992 56.063-43.892 6.199-5 10.462-11.275 16.861-15.374 4.133-1.762 8.439.575 10.939 3.875 4.4-6.1 5.534-13.558 7.321-20.315-5.677-.113-12.321 1.916-18.321 4.015-5.101 6.2-10.899 11.4-18.5 13.4-6.5 1.7-13.806.115-18.122-4.561-7.847-8.501-10.263-21.563-11.178-34.839-3.854-.304-4.683-5.694-5.801-10-2.323-8.948-.6-18.4 7.201-24.5l-1.315-4.782c-.83-3.421.594-7.717 4.214-7.718 20.399-.3 38.5 3.2 57.6 6l.7-3.6s-2.818-.66-5.798-1.074c0 0 4.056-1.656 6.599-1.327 1-2.8 2.2-5.6 4.5-7.9 4.3-4.2 10.1-7.7 15.9-5.5 3.7 1.4 5.946 4.38 6.9 7.9.714 2.635 1.446 5.419 1.7 8.2 3.2-4.9 8.1-9.7 13.9-10.4 4.1-.399 7.1 2.2 9.6 5.101 7.5.399 15.969 2.707 19.469 10.007 2.073 6.22-2.969 12.293-8.169 16.393 3.188 1.283 5.5 2.4 8.4 3.3 1.3-6.8 5.1-13.6 11-17.7 4.648-2.362 10.986-1.869 14.686 1.531 6.9 7 8.694 17.234 5.494 26.435-1.508 3.076-8.662 4.354-13.18 4.434-2.942.051-6.657.252-9.305.334 1.6 3.1 2.979 7.202 3.305 11.366-.1 6-1.543 12.488-6.943 15.588-13.737 6.23-30.398-.311-45.198-.311-6.9 7.6-11.958 15.823-16.058 24.623 0 .5.604.34 1 .399 12.476 1.861 20.967 6.193 30.467 12.193 7.9 4.999 14.533 11.107 21.333 16.408 13.6 13.5 26.5 25.6 39.6 40.3 5.6 7.6 13.1 14.8 17.3 23.1-3.5 6.2-9.9 9.2-15.8 12.2-15.3 5.5-32.2 8-49 9.1-4.5 6.801-9.4 13.7-14.9 19.9 8.8 9.1 13.1 21.3 14.4 32.7 0 0 13.084 8.678 24.7 26.1 20 31.9 23.202 69.993 28.002 107.493 6.8 31 11.198 61.907 30.798 88.107 13.8 18 32.3 32.1 53.6 36.5l.897.197zm-174.2-392.3c-3.4 16.9-1.3 34.601 2.9 50.8 2.4-1.399 3.7-4.8 6.9-6 4.7-.8 9.2.2 13 2.2 3-3.5 7.3-5.399 11.8-3.8l4.3 1.4c3.5-3.2 7.8-6 12-7.7-15.599-15.2-31.599-29.2-50.9-36.9z"/><path class="st1" d="M224.434 36.33c7.898 1.158 15.249 3.425 22.349 6.125.9-6-.77-12.886-5.67-16.186-4.2-2-8.5.3-11.7 2.9-2.247 1.946-4.179 4.661-4.979 7.161zM250.839 44.027c8.1 3.3 16.194 7.261 23.094 13.161 2.1-4.601 1.28-10.42.78-15.32-.78-4.38-2.5-7.5-6.2-9.3-4.9-2.3-9.551.262-13 3.6-1.7 2.3-3.974 5.06-4.674 7.859zM279.113 51.269l-.8 5c3.5 1 7.379-2.224 9.112-5.123 1.1-2 .688-5.577-.412-7.777-2.4-3.9-6.4-5-9.9-6.7 1.1 4.2 2.6 9.2 2 14.6z"/><path class="st2" d="M246.369 48.083c-7.6-2.1-15.556-5.015-23.456-6.415l.7-3.4c8 1.2 17.249 4.555 22.922 6.669l-.166 3.146z"/><path class="st0" d="M163.114 40.269c-3.9 5.7 1.6 11.7 5.1 16.5 2.5 3 5.5 5.8 8.6 7.9 8.201-3.7 16.601-8.4 25.5-11.3v-.4c-10.5-6.7-21-11.399-33.199-13.899-2.101-.001-4.402-.301-6.001 1.199z"/><path d="M185.213 40.668c7.1 2.9 13.6 7.3 20.2 11.3 11.2-1.3 20.7-4.3 32.6-3.8-16.9-5-34.7-6.099-52.8-7.5z" fill="#e970a8"/><path class="st2" d="M254.613 62.069c2.6 2.399 5.7 3.6 9.3 3.6 3.7-.5 7.6-2.6 9.2-6-7.6-5-14.7-9.5-22.8-13-1.1 5.6.3 11.499 4.3 15.4z"/><path class="st1" d="M281.561 63.827l-4.148-4.159c5.7 2.5 12.6 4.5 18.7 7.4.915-4.5 2.239-7.811 5-12.5 2.2-2.601 4-6.601 7.7-7.4 7.583-.244 11.4 8 12.7 14.2.6 2.4 1.1 6-.5 8.1-4.286 4.772-13.06 4.854-19.9 4.8h-2.9c2.9 5.4 3.9 13.6 1 19.2-3.6 5.5-9.359 7.471-15.6 7.9l-34.429-.475-1.771 1.675c-5.5 6.5-8.577 13.389-12.55 20.756-1.005 1.879-2.649 5.628-2.649 5.628-5.38 2.401-6.901 9.215-6.901 9.215 0 .8-.238 2.008.362 2.209 4.304-7.947 9.638-8.008 15.238-6.108 26.7 8.4 48.3 30.2 69.3 49.7 12.2 11.8 22.7 23.9 32.9 36.2-7.3 4.4-14.577 8.584-22.8 10.8-11.788 3.176-23.9 6.2-35.2 8 5.7-9.6 16-17.5 27.1-19 4-2.899 5.1-8.1 4.8-12.5l5.94-.755c.7-.1 2.96-.044 2.859-.644-2.9-1.2-6.3-1.5-9.8-1.5-1.5-3.101-4.3-6.601-7.9-7.9-2.3-1.3-4.219-.287-7-3.1-14.5-12.601-28.89-24.684-46.3-32.9-7.742-3.654-15.6-6.2-23.5-6.9l-3.124.396c4.679 1.846 10.325 3.604 13.424 5.804l-1.7 4.8c-3.887 18.253.2 35.2 5.8 50.9-.7.7-1.3 2.3-2.2 1.7-6.6-4.8-14.2-5.8-23.2-5.8l-1.2-7.4c-4-16-3-33-3.2-48.8-.9-6.3 1.131-14.339-4.469-18.839-2-1.5-5.231-2.361-7.731-1.961-16.5 7.5-21.5 24.899-23.5 41-18.8 10-37 23-53.5 36.699-11.8-30.5-25.699-60.6-41.8-88.8l3.274-1.964c0-.6-1.49.166-2.649.166-17.6 4.1-37.884 2.633-50.825-11.901-5.544-6.227-9.4-14.1-13.6-21.8 1-2.399 3.5-3.2 5.699-3.8 7.571-2.065 21.742 14.819 26.443 24.919l-.242-1.719c-1-4.2-2.572-8.296-5.386-12.187-5.455-7.543-11.915-16.313-22.515-14.913-3.9-.4-7.7-2.5-12.2-2.4-.101-1.4.5-2.4 1-3.6 1.601-1.8 3.668-2.512 6.2-2.1 10.5 1.6 19.4 7.5 27.8 13.4 15.772 7.129 34.8 2.6 48-7.4-1.5-1.3-3.3.7-4.8.2 3-6 5.4-13.5 11.3-17 2.3-1.1 5.101-1.1 7.5-.3 3.7 1.899 5.8 5.8 6.399 9.6-4.299 5.3-8.199 10.9-11.5 16.6-2.899 4.7 3.9 7.8 3.9 12.5-2.4 6.3-6.3 12-10.1 17.7-.5 1.8-.162 2.546.699 4.3 7.9 20.6 18.801 40.2 28.301 59.8 1.63 4.168 3.4 7.1 5.1 10.6 1.166-2.623.586-4.61 0-6.3 23.2-12.4 44.301-30.4 63.301-51.1 2.899-3.5 6.426-7.752 10.6-9.6 4.163-1.843 6.977.061 9.1 2.9-.467 1.878-.55 3.286-.219 4.775 5.8-9 11.619-19.476 14.819-29.275l8-1.4c-10.154-2.351-27.786.38-27.786.38 2.152-2.483 3.311-5.96 3.311-5.96 11.5 1.3 24.274-2.92 33.075-9.621 2.7 1.601 5.7 2.7 9.1 2.4 3.2 0 5.7-2.6 7-4.8-3.4 2.1-7.6 2.2-11.3.8-4.7-2-8.4-6.9-9.1-11.8-.7-1.3.5-2.8-1-3.601-1.4 5-.9 11.5 3.1 15.4-8 5.5-18.3 9.5-28 6.7 3.4-12.601 2.1-28.601-9.199-37.7 12.699-2.7 26-3.1 38.899-3.8l.5 4.3c1.194 5.3 4.9 11.4 11 12.7 6.6 1.3 12.944-.89 17.344-6.49 2.574 2.024 6.306 2.75 6.306 2.75z"/><path class="st4" d="M158.313 79.569c4.801 1.2 12.897 4.024 15.201 1.399 0-5.3.66-9.45.961-14.549-6.301-3-10.602-9.85-14.202-15.55-6.699 7.101-3.836 27.575-1.96 28.7zM178.514 66.569l-3.101 15.2c9.899 8.5 21.899 12.4 35.5 12.2 3.3-8.399 5.2-21.3.2-29.8l-6.4-8.4c-9.4 2.199-17.599 6.899-26.199 10.8z"/><path class="st0" d="M301.001 68.777l-1.087 2.191c6.1-.399 14.083-.453 17.1-6 .79-1.737.4-4.1-1-5.1-1.3-1.5-3.727-2.066-5.3-1.4-4.995 2.115-7.213 6.009-9.713 10.309z"/><path class="st4" d="M302.313 68.968c4.3-.3 10.772-.688 12.5-4.3.3-1.5-.3-2.9-1.7-3.6-4-.982-8 4.301-10.8 7.9z"/><path class="st1" d="M4.514 86.269c-1.201 2.3-1 5.8.699 7.7 6 3.8 12.7 5.9 19.2 8.4-1.601-6-12.8-13.2-3.8-19.9-5.4-.9-13.2-1.1-16.099 3.8z"/><path class="st4" d="M161.913 83.369c1.601 12.8 4.744 28.699 18.5 32.7 12.399 1.6 22.101-7.601 27.399-17.5-13 2-23.799-7.101-33.6-14.9-3.799 2.1-8.299.2-12.299-.3z"/><path class="st0" d="M65.713 96.869l-2.192.879c8.7.2 19.093-.879 26.393 3.421 1.101 1.1 2.826 3.946 3.601 2.4.899-2.4-1.437-4.497-3.801-5.5-7.1-2.601-16.401-3.3-24.001-1.2z"/><path class="st4" d="M195.114 144.168c3.5-3.9 7.8-8.2 13.199-6.8 2.4.9 4.201 3.258 4.5 5.8.5 22.6-.699 47.7 4.8 69.1-3.3.9-6.099 2.9-9.099 4.601-4 3.8-2.601 10.399-1 14.899 1.399 3.101 4.699 4.7 7.699 5.5-.3 4.7.4 9 2.2 12.9 2.3 3.7 6.2 6.5 10.8 6.3l.2 2.9c.4 4.7 5.3 8.2 9.4 9.6 8.4 10.5 6.7 25.601 7.9 38.4-.133 5.345-.4 11.2-2.2 15.8l-14.6-7.4c-9.1-10.3-16.899-21.5-23-33.199-6.399-11-9.3-24-13-35.7-6.2-28.9-12.8-63.601-3.601-92.9 1.47-4.614 5.802-9.801 5.802-9.801z"/><path class="st1" d="M234.713 260.569c-3.6-2.9-2.427-6.295-1.7-10.4 1.9-5.1 7.8-5.5 12-6.4 4.1-.3 8 1.601 12 .2-6.6-3-15.108-3.589-22.6 0-3.283 1.573-4.3 4.7-5.5 7.4-3.4-.9-5.712-3.508-7.9-6.9-1.3-3.7-3.7-7.899-1-11.5 4.3-3.2 10.4-2 15.6-2.899 4.3.3 8.2 2.399 12.5 1.899-5.8-3.8-13-4.5-20.2-3.8-3.9.7-9 1-11.5 4.8-1.5-.6-3.399-.6-4.5-2.2-1.5-2.899-3.399-6.899-1.2-10.1 10.5-6.5 23.6-5.5 33.8 1l1.7-1.5 10.1-9.3c3.227-1.662 7-1.4 10.3-.5-2.5 3.8-5.8 7.6-6 12 2.312-2.831 4.6-6 7.2-8.9 4.3-3.399 9.3-7.5 15.3-4.8 2.4.3 4.4 2.9 6.8 1.9-.5-1.4-1-1.9-1.5-3.301l5-2.899c5.2-1.601 11.3-4.601 16.4-.7 1.9 3.3 2.7 8.8 0 12-6.2 2-11.9 5.3-17.3 9.1-10.2 7.101-13.547 18.046-21.4 26.9-2.31 2.605-7.298 8.661-7.298 8.661-5.879 1.247-22.325 4.137-24.048 3.563-3.206-1.07-5.054-3.324-5.054-3.324zM241.113 268.968c8.5 14.2 7.9 33.101 7 49.4-3.8 27.2-4.8 57.1-9.4 84.2-7.5 54.899-18.3 110.6-32.4 162.5 33.8 13.899 68.701 27.1 108.3 25.899-4.7-10.1-11.2-19.399-19.5-28.1.7-1.101 1.7.3 2.4.5 9 7.8 15.2 17.5 19.9 27.399 6-.3 11.6-1.3 17.1-2.699-6.4-9.4-14.5-18.7-23.3-25.9 4.4.6 7.2 4.7 11 7.2 6 5.5 11.8 11.2 15.4 18.3 4-1.1 7.7-2.8 11.3-4.8-27.6-29.5-70.9-39.8-111.4-30.3l-11.5 2.399-3.72.936c2.4-2.6 9.32-4.835 12.12-6.436l.5-11.5 3.1-58.3c5-52.4 14.3-101.1 29.8-150 3.1-11.1 9.7-21.5 8.1-33.6-.8-11.601-4.795-22.023-11-32.2-7.899 1.703-15.883 2.52-23.8 5.102zM162.213 535.069c-27.6-5.801-55.8-6.5-81.6 4.8-11.6 5.7-23.5 12.8-32.9 23.3 3 2.2 7.301 2.5 10.801 4.1 4-6.5 9.199-13.699 15.6-18.5l.199.2-13.199 18.7c4.6 1.6 9.6 2.8 14.699 3.6 4.701-8.8 10.701-17.899 19.4-24.199l.301.199a138.618 138.618 0 0 0-17.101 24.301c33 4.199 66.5-2.5 97.899-9.101 1.094-7.618 1.201-15.2 2.9-23.3 10.2-75.4 22.6-148.6 46.8-219.4l.179-.732c-4.957-2.968-9.167-6.744-9.167-6.744l7.797 2.529c-6.1-6.5-13.208-14.652-18.009-21.853-2 25.7-5.199 48.5-9.299 73.9-11.201 55-24.9 110.8-44.201 162.899 7.13 2.744 8.901 5.301 8.901 5.301z"/><path class="st1" d="M429.313 559.069l.012.003c4.801.595 11.648-.654 14.388 1.896 2.694 2.507 2.817 7.387 1.4 10.601-2.014 4.567-8.882 3.125-13.7 2.899-20-2.2-38.1-8.399-54.2-20.7l-.2-.699c-10.6-7.2-20.003-18.668-26.2-30.2-19.206-35.743-24.722-60.313-30.5-101.5-5.255-37.461-9.624-74.19-35.2-103.2-2.022-2.294-4.13-3.031-5.8-4.8.9-4.101 2.408-7.819 2.408-11.719l.192-1.081c32.2 26 40.7 67 46.3 105.6 6.1 55.2 16.28 116.16 71.6 145.2 9.631 5.055 29.5 7.7 29.5 7.7z"/><path d="M274.77 4.576l-7.656 5.868 11.889 15.957 6.986-4.062zM240.213 0l5.945 6.527-13.674 12.62-6.094-5.512zM163.077 64.74l-.316 1.183c-17.663-6.798-56.443-15.981-56.443-15.981 30.878 3.615 56.759 14.798 56.759 14.798zM162.564 69.389l-.096 1.223c-18.565-3.713-58.282-6.191-58.282-6.191 30.955-1.678 58.378 4.968 58.378 4.968zM198.687 75.15l-.625 1.414c19.776 7.176 58.883 28.587 58.883 28.587-28.358-20.69-58.258-30.001-58.258-30.001zM195.617 80.13l-.84 1.281c18.205 10.921 53.046 39.669 53.046 39.669-24.441-25.959-52.206-40.95-52.206-40.95zM260.212 51.614c1.804.871 8.514 5.146 8.514 5.146l-.274.926c-.729 2.408-3.338 3.404-5.827 2.222-2.49-1.18-3.89-4.335-3.26-6.769.146-.563.847-1.525.847-1.525z"/><path class="st5" d="M267.339 55.965c-.434 1.195-1.591 1.611-2.66 1.131-1.071-.482-1.589-1.841-1.155-3.039l.184-.442 3.631 2.35z"/><path d="M236.769 41.557c1.589.427 7.74 2.626 7.74 2.626l.004.562c-.002 1.458-1.779 2.176-3.966 1.599-2.189-.575-3.996-2.372-4.075-3.842-.019-.341.297-.945.297-.945z"/><path class="st5" d="M243.159 43.698c-.049.708-.846.993-1.791.756-.948-.238-1.677-1.004-1.63-1.712l.038-.263 3.383 1.219z"/></svg>