<svg id="Layer_1" xmlns="http://www.w3.org/2000/svg" viewBox="0 0 524.883 347.183"><style>.st5{fill:#bfa369}.st6{fill:#fff4df}.st7{fill:#5a2c29}.st9{fill:#cbc0a0}.st10{fill:#d8d3c0}.st11{fill:#d2be8a}.st12{fill:#c0b7a2}.st13{fill:#7f3324}.st15{fill:none;stroke:#00b6da;stroke-miterlimit:10}.st18{fill:#797c7e}.st19{opacity:.57}.st20{fill:#fff}.st21{fill:#c3bba3}.st23{fill:#6b574f}.st25{fill:#afa78f}</style><path d="M262.441 302.152c139.362 0 252.319 9.682 252.319 21.516 0 11.931-112.957 21.516-252.319 21.516s-252.319-9.682-252.319-21.516c0-11.834 112.957-21.516 252.319-21.516z" fill="#0e444e"/><linearGradient id="SVGID_1_" gradientUnits="userSpaceOnUse" x1="541.512" y1="2664.122" x2="541.512" y2="3017.247" gradientTransform="translate(-17.835 -2619.56) scale(.9833)"><stop offset="0" stop-color="#eb3a87"/><stop offset="1" stop-color="#f39ac1"/></linearGradient><path d="M514.614 328.015c-.685 0-1.271-.293-1.76-.685-.489-.489-.685-1.076-.685-1.76 0-.196 0-.293.098-.489 0-.196.098-.293.098-.489.098-.196.098-.293.196-.391.098-.098.196-.293.293-.391s.196-.196.391-.293c.098-.098.293-.196.391-.196.098-.098.293-.098.489-.098.782-.196 1.663.098 2.249.685.098.098.196.293.293.391.098.098.196.293.196.391.098.196.098.293.098.489s.098.293.098.489c0 .685-.293 1.271-.685 1.76a3.138 3.138 0 0 1-1.76.587z" fill="url(#SVGID_1_)"/><linearGradient id="SVGID_2_" gradientUnits="userSpaceOnUse" x1="285.047" y1="2664.151" x2="285.047" y2="3011.991" gradientTransform="translate(-17.835 -2619.56) scale(.9833)"><stop offset="0" stop-color="#eb3a87"/><stop offset="1" stop-color="#f39ac1"/></linearGradient><path d="M516.374 318.333c-1.369-.293-2.152-1.565-1.956-2.934.293-1.369 1.565-2.152 2.934-1.858 1.369.293 2.152 1.565 1.858 2.934-.196 1.174-1.271 1.956-2.445 1.956-.097 0-.293-.098-.391-.098zM5.477 316.181c-.293-1.369.587-2.641 1.956-2.934a2.475 2.475 0 0 1 2.934 1.858c.293 1.369-.587 2.641-1.956 2.934-.196 0-.391.098-.489.098-1.174 0-2.152-.782-2.445-1.956zm512.755-7.53c-1.369-.196-2.249-1.467-2.054-2.836.196-1.369 1.467-2.249 2.836-2.054 1.369.196 2.249 1.467 2.054 2.836-.196 1.174-1.271 2.054-2.445 2.054-.097.098-.195.098-.391 0zM3.619 306.402c-.196-1.369.685-2.641 2.054-2.836 1.369-.196 2.641.685 2.836 2.054.196 1.369-.685 2.641-2.054 2.836h-.391c-1.174-.001-2.25-.881-2.445-2.054zm516.178-7.433c-1.369-.196-2.249-1.369-2.152-2.738.196-1.369 1.369-2.249 2.738-2.152 1.369.196 2.347 1.369 2.152 2.738-.196 1.271-1.174 2.152-2.445 2.152h-.293zM2.152 296.622c-.196-1.369.782-2.543 2.152-2.738 1.369-.196 2.543.782 2.738 2.152.196 1.369-.782 2.543-2.152 2.738h-.293c-1.174-.001-2.25-.979-2.445-2.152zm518.819-7.433c-1.369-.098-2.347-1.369-2.249-2.641.098-1.369 1.369-2.347 2.641-2.249 1.369.098 2.347 1.369 2.249 2.641a2.451 2.451 0 0 1-2.445 2.249h-.196zM1.076 286.744c-.098-1.369.88-2.543 2.249-2.641 1.369-.098 2.543.88 2.641 2.249.098 1.369-.88 2.543-2.249 2.641h-.196a2.449 2.449 0 0 1-2.445-2.249zm520.775-7.335c-1.369-.098-2.347-1.271-2.347-2.543.098-1.369 1.271-2.445 2.543-2.347 1.369.098 2.347 1.271 2.347 2.543-.098 1.271-1.174 2.347-2.445 2.347h-.098zM.391 276.867c-.098-1.369.978-2.543 2.347-2.543 1.369-.098 2.543.978 2.543 2.347.098 1.369-.978 2.543-2.347 2.543h-.098c-1.369-.098-2.445-1.076-2.445-2.347zm521.851-7.237c-1.369 0-2.445-1.174-2.445-2.543 0-1.369 1.174-2.445 2.543-2.445 1.369 0 2.445 1.174 2.445 2.543 0 1.369-1.174 2.445-2.543 2.445.098 0 0 0 0 0zM0 266.891c0-1.369 1.076-2.445 2.445-2.543 1.369 0 2.445 1.076 2.543 2.445 0 1.369-1.076 2.445-2.445 2.543-1.467 0-2.543-1.076-2.543-2.445zm519.895-9.584c0-1.369 1.076-2.445 2.445-2.543 1.369 0 2.445 1.076 2.543 2.445 0 1.369-1.076 2.445-2.445 2.543-1.467 0-2.543-1.076-2.543-2.445zm-517.45 2.152c-1.369 0-2.445-1.174-2.445-2.543 0-1.369 1.174-2.445 2.543-2.445 1.369 0 2.445 1.174 2.445 2.543-.098 1.369-1.174 2.445-2.543 2.445zm517.059-11.834c-.098-1.369.978-2.543 2.347-2.641 1.369-.098 2.543.978 2.543 2.347.098 1.369-.978 2.543-2.347 2.543h-.196c-1.174.098-2.249-.978-2.347-2.249zM2.738 249.679c-1.369-.098-2.445-1.271-2.347-2.641.098-1.369 1.271-2.445 2.543-2.347 1.369.098 2.445 1.271 2.347 2.641-.098 1.271-1.174 2.347-2.445 2.347h-.098zm515.983-11.736c-.098-1.369.88-2.543 2.249-2.641 1.369-.098 2.543.88 2.641 2.249.098 1.369-.88 2.543-2.249 2.641h-.196c-1.173-.098-2.249-.978-2.445-2.249zM3.423 239.801c-1.369-.098-2.347-1.369-2.249-2.641.098-1.369 1.369-2.347 2.641-2.249 1.369.098 2.347 1.369 2.249 2.641a2.451 2.451 0 0 1-2.445 2.249h-.196zm514.223-11.54c-.196-1.369.782-2.543 2.152-2.738 1.369-.196 2.543.782 2.738 2.152.196 1.369-.782 2.543-2.152 2.738h-.293c-1.174-.098-2.25-.979-2.445-2.152zm-513.245 1.76c-1.369-.196-2.249-1.369-2.152-2.738.196-1.369 1.369-2.249 2.738-2.152 1.369.196 2.249 1.369 2.152 2.738-.196 1.271-1.174 2.152-2.445 2.152-.097.098-.195.098-.293 0zm511.778-11.442c-.196-1.369.685-2.641 2.054-2.836 1.369-.196 2.641.685 2.836 2.054.196 1.369-.685 2.641-2.054 2.836h-.391c-1.174 0-2.25-.881-2.445-2.054zM5.77 220.339c-1.369-.196-2.249-1.467-2.054-2.836.196-1.369 1.467-2.249 2.836-2.054 1.369.196 2.249 1.467 2.054 2.836-.196 1.174-1.271 2.054-2.445 2.054H5.77zm508.55-11.344a2.475 2.475 0 0 1 1.858-2.934 2.475 2.475 0 0 1 2.934 1.858 2.475 2.475 0 0 1-1.858 2.934c-.196 0-.293.098-.489.098-1.173 0-2.151-.783-2.445-1.956zM7.53 210.657c-1.369-.293-2.152-1.565-1.858-2.934.293-1.369 1.565-2.152 2.934-1.858 1.369.293 2.152 1.565 1.858 2.934-.293 1.174-1.271 1.956-2.445 1.956-.097 0-.293-.098-.489-.098zm504.639-11.149c-.293-1.271.489-2.641 1.76-2.934 1.271-.293 2.641.489 2.934 1.76.293 1.271-.489 2.641-1.76 3.032-.196.098-.391.098-.587.098-1.076-.098-2.054-.782-2.347-1.956zM9.682 201.073c-1.271-.293-2.152-1.663-1.76-3.032.293-1.271 1.663-2.152 2.934-1.76 1.271.293 2.152 1.663 1.76 3.032-.293 1.076-1.271 1.858-2.347 1.858-.196 0-.391-.098-.587-.098zm499.944-10.953c-.391-1.271.391-2.641 1.663-3.032 1.271-.391 2.641.391 3.032 1.663.391 1.271-.391 2.641-1.663 3.032-.196.098-.489.098-.685.098-1.075-.001-2.053-.686-2.347-1.761zm-497.401 1.467c-1.271-.391-2.054-1.76-1.663-3.032.391-1.271 1.76-2.054 3.032-1.663 1.271.391 2.054 1.76 1.663 3.032-.293 1.076-1.271 1.76-2.347 1.76-.294 0-.49-.097-.685-.097zm494.467-10.758c-.391-1.271.293-2.641 1.565-3.13 1.271-.391 2.641.293 3.13 1.565.391 1.271-.293 2.641-1.565 3.13-.293.098-.489.098-.782.098a2.493 2.493 0 0 1-2.348-1.663zM15.061 182.1c-1.271-.391-1.956-1.858-1.565-3.13.391-1.271 1.858-1.956 3.13-1.565 1.271.391 1.956 1.858 1.565 3.13-.391 1.076-1.271 1.663-2.347 1.663-.294.098-.587 0-.783-.098zm488.404-10.464c-.489-1.271.196-2.641 1.467-3.13 1.271-.489 2.641.196 3.13 1.467.489 1.271-.196 2.641-1.467 3.13-.293.098-.587.196-.88.196-.979-.098-1.859-.685-2.25-1.663zm-485.177 1.173c-1.271-.489-1.956-1.858-1.467-3.13.489-1.271 1.858-1.956 3.13-1.467 1.271.489 1.956 1.858 1.467 3.13-.391.978-1.271 1.565-2.347 1.565-.196.098-.489.098-.783-.098zm481.558-10.268c-.489-1.271.098-2.738 1.271-3.227 1.271-.489 2.738.098 3.227 1.271.489 1.271-.098 2.641-1.271 3.227-.293.098-.685.196-.978.196-.977.097-1.857-.489-2.249-1.467zm-478.037 1.173c-1.271-.489-1.858-1.956-1.271-3.227.489-1.271 1.956-1.858 3.227-1.271 1.271.489 1.858 1.956 1.271 3.227-.391.978-1.271 1.467-2.249 1.467-.293 0-.685-.098-.978-.196zm474.028-10.073c-.587-1.271 0-2.738 1.174-3.227 1.271-.587 2.738 0 3.227 1.174.587 1.271 0 2.738-1.174 3.227-.293.196-.685.196-1.076.196-.782.097-1.662-.49-2.151-1.37zm-470.116 1.076c-1.271-.587-1.76-2.054-1.174-3.227.587-1.271 2.054-1.76 3.227-1.174 1.271.587 1.76 2.054 1.174 3.227-.391.88-1.271 1.369-2.249 1.369-.293 0-.685 0-.978-.195zm465.813-9.78c-.587-1.174-.098-2.641 1.076-3.325 1.174-.587 2.738-.196 3.325 1.076a2.48 2.48 0 0 1-1.076 3.325c-.391.196-.782.293-1.076.293-.88-.098-1.76-.587-2.249-1.369zm-461.608.88c-1.174-.587-1.663-2.054-1.076-3.325.587-1.174 2.152-1.663 3.325-1.076 1.174.587 1.663 2.152 1.076 3.325-.391.88-1.271 1.369-2.152 1.369-.39 0-.782-.097-1.173-.293zm457.011-9.486c-.685-1.174-.293-2.641.978-3.325 1.174-.685 2.641-.293 3.325.978.685 1.174.293 2.641-.978 3.325a2.597 2.597 0 0 1-1.174.293c-.88 0-1.662-.489-2.151-1.271zm-452.414.88c-1.174-.685-1.565-2.152-.978-3.325.685-1.174 2.152-1.565 3.325-.978 1.174.685 1.565 2.152.978 3.325-.489.782-1.271 1.271-2.152 1.271-.391 0-.782-.098-1.173-.293zm447.524-9.291c-.685-1.174-.391-2.641.782-3.423 1.174-.685 2.641-.391 3.423.782.685 1.174.391 2.641-.782 3.423-.391.293-.88.391-1.271.391-.88.001-1.761-.391-2.152-1.173zm-442.634.782c-1.174-.685-1.467-2.249-.782-3.423s2.249-1.467 3.423-.782 1.467 2.249.782 3.423c-.489.782-1.271 1.174-2.054 1.174-.489-.098-.978-.196-1.369-.392zm437.353-8.997c-.782-1.174-.489-2.641.685-3.423s2.641-.489 3.423.685.489 2.641-.685 3.423c-.391.293-.88.391-1.369.391a2.55 2.55 0 0 1-2.054-1.076zm-432.17.685c-1.174-.782-1.467-2.249-.685-3.423.782-1.076 2.249-1.467 3.423-.685s1.467 2.249.685 3.423a2.55 2.55 0 0 1-2.054 1.076c-.391 0-.88-.098-1.369-.391zm426.596-8.704c-.782-1.076-.587-2.641.587-3.423 1.076-.782 2.641-.587 3.423.587.782 1.076.587 2.641-.587 3.423a2.638 2.638 0 0 1-1.467.489c-.685-.099-1.467-.392-1.956-1.076zm-421.022.586c-1.076-.782-1.369-2.347-.587-3.423s2.347-1.369 3.423-.587 1.369 2.347.587 3.423c-.489.685-1.271.978-1.956.978-.489 0-1.075-.097-1.467-.391zm5.868-7.921c-1.076-.88-1.271-2.347-.391-3.423.88-1.076 2.347-1.271 3.423-.391 1.076.88 1.271 2.347.391 3.423-.489.587-1.174.978-1.956.978-.489-.098-1.075-.294-1.467-.587zm409.286-.489c-.88-1.076-.685-2.641.391-3.423 1.076-.88 2.641-.685 3.423.391.88 1.076.685 2.641-.391 3.423-.489.391-.978.489-1.467.489-.783.098-1.467-.196-1.956-.88zM62.102 96.625c-1.076-.88-1.174-2.445-.293-3.423.88-1.076 2.445-1.174 3.423-.293 1.076.88 1.174 2.445.293 3.423a2.408 2.408 0 0 1-1.858.88c-.489-.001-1.076-.196-1.565-.587zm397.06-.294c-.88-1.076-.782-2.543.293-3.423 1.076-.88 2.641-.782 3.423.293.88 1.076.782 2.543-.293 3.423-.489.391-.978.587-1.565.587a2.408 2.408 0 0 1-1.858-.88zM68.557 89.192c-.978-.88-1.076-2.445-.196-3.521.88-.978 2.445-1.076 3.423-.196.978.88 1.076 2.445.196 3.423a2.672 2.672 0 0 1-1.858.782c-.49.197-1.076-.097-1.565-.488zm384.249-.196a2.488 2.488 0 0 1 .196-3.521c.978-.88 2.543-.88 3.423.196.88.978.88 2.543-.196 3.423-.489.391-1.076.685-1.663.685-.685 0-1.272-.196-1.76-.783zM75.207 81.955a2.48 2.48 0 0 1 0-3.521c.978-.978 2.543-.978 3.423 0a2.48 2.48 0 0 1 0 3.521c-.489.489-1.076.782-1.76.782-.587 0-1.174-.293-1.663-.782zm370.85 0c-.978-.978-.978-2.543 0-3.423a2.48 2.48 0 0 1 3.521 0c.978.978.978 2.543 0 3.423-.489.489-1.076.685-1.76.685-.587-.001-1.272-.196-1.761-.685zM82.15 75.011c-.978-.978-.88-2.543.098-3.423.978-.978 2.543-.88 3.521.098.978.978.88 2.543-.098 3.423a2.291 2.291 0 0 1-1.663.685c-.684 0-1.369-.196-1.858-.783zm356.964.098c-.978-.978-1.076-2.445-.098-3.423.88-.978 2.445-1.076 3.423-.098.978.978 1.076 2.445.098 3.521-.489.489-1.174.782-1.76.782-.587-.097-1.174-.293-1.663-.782zM89.388 68.361c-.88-.978-.782-2.543.196-3.423.978-.88 2.543-.782 3.423.196.88.978.782 2.543-.196 3.423a2.658 2.658 0 0 1-1.663.587c-.587.097-1.271-.196-1.76-.783zm342.489.196c-.978-.88-1.076-2.445-.196-3.423.88-.978 2.445-1.076 3.423-.196.978.88 1.174 2.445.196 3.423a2.408 2.408 0 0 1-1.858.88c-.49-.098-1.076-.293-1.565-.684zM96.82 62.004c-.88-1.076-.685-2.641.391-3.423 1.076-.88 2.641-.685 3.423.391.88 1.076.685 2.641-.391 3.423-.489.391-.978.587-1.565.587-.586-.098-1.369-.391-1.858-.978zm327.624.293c-1.076-.88-1.174-2.445-.391-3.423.88-1.076 2.445-1.174 3.423-.391 1.076.88 1.174 2.445.391 3.423-.489.587-1.174.88-1.956.88-.489.098-.978-.097-1.467-.489zm-319.898-6.454c-.782-1.076-.587-2.641.489-3.423s2.641-.587 3.423.489.587 2.641-.489 3.423c-.489.293-.978.489-1.467.489-.684 0-1.467-.391-1.956-.978zm312.27.489c-1.076-.782-1.271-2.347-.489-3.423.782-1.076 2.347-1.271 3.423-.489 1.076.782 1.271 2.347.489 3.423-.489.685-1.271.978-1.956.978a2.404 2.404 0 0 1-1.467-.489zm-7.922-5.673c-1.076-.782-1.369-2.347-.587-3.423s2.347-1.369 3.423-.587 1.369 2.347.587 3.423a2.55 2.55 0 0 1-2.054 1.076c-.489-.097-.978-.195-1.369-.489zm-296.426-.684c-.782-1.076-.489-2.641.587-3.423s2.641-.489 3.423.587.489 2.641-.587 3.423c-.391.293-.88.391-1.369.391-.783.098-1.565-.294-2.054-.978zm288.309-4.792c-1.174-.685-1.467-2.249-.782-3.423.782-1.174 2.249-1.467 3.423-.782s1.467 2.249.782 3.423c-.489.782-1.271 1.174-2.054 1.174-.489.097-.978-.099-1.369-.392zm-280.192-.685c-.685-1.174-.391-2.641.782-3.423 1.174-.685 2.641-.391 3.423.782.685 1.174.391 2.641-.782 3.423-.391.293-.88.391-1.271.391-.88-.097-1.663-.488-2.152-1.173zm271.879-4.303a2.412 2.412 0 0 1-.88-3.325 2.412 2.412 0 0 1 3.325-.88 2.412 2.412 0 0 1 .88 3.325c-.489.782-1.271 1.174-2.152 1.174a2.957 2.957 0 0 1-1.173-.294zm-263.468-.978a2.412 2.412 0 0 1 .88-3.325 2.412 2.412 0 0 1 3.325.88 2.412 2.412 0 0 1-.88 3.325 2.7 2.7 0 0 1-1.271.293c-.783.098-1.663-.391-2.054-1.173zm255.057-3.814c-1.174-.685-1.663-2.152-.978-3.325.685-1.174 2.152-1.663 3.325-.978 1.174.685 1.663 2.152.978 3.325-.489.782-1.271 1.271-2.152 1.271-.39 0-.781-.097-1.173-.293zm-246.549-1.076c-.685-1.174-.196-2.641.978-3.325 1.174-.685 2.641-.196 3.325.978.685 1.174.196 2.641-.978 3.325a2.597 2.597 0 0 1-1.174.293c-.879.001-1.662-.391-2.151-1.271zm237.845-3.325c-1.271-.587-1.76-2.054-1.174-3.325.587-1.174 2.054-1.76 3.325-1.076 1.174.587 1.76 2.054 1.174 3.325-.391.88-1.271 1.369-2.249 1.369a16.487 16.487 0 0 0-1.076-.293zm-229.141-1.271c-.587-1.174-.098-2.738 1.174-3.325 1.174-.587 2.738-.098 3.325 1.174.587 1.174.098 2.641-1.076 3.325-.391.196-.685.293-1.076.293-.978 0-1.858-.587-2.347-1.467zm220.34-2.837a2.511 2.511 0 0 1-1.271-3.227c.587-1.271 1.956-1.76 3.227-1.271 1.271.587 1.76 1.956 1.271 3.227a2.47 2.47 0 0 1-2.249 1.467c-.294 0-.587-.098-.978-.196zm-211.44-1.369c-.587-1.271 0-2.738 1.271-3.227 1.271-.587 2.738 0 3.227 1.271.587 1.271 0 2.738-1.271 3.227-.293.196-.685.196-.978.196-.88 0-1.858-.586-2.249-1.467zm202.54-2.445c-1.271-.489-1.858-1.956-1.369-3.227.489-1.271 1.956-1.858 3.227-1.369 1.271.489 1.858 1.956 1.369 3.227-.391.978-1.271 1.565-2.249 1.565-.391 0-.685-.098-.978-.196zm-193.445-1.467c-.489-1.271.098-2.641 1.369-3.227 1.271-.489 2.738.098 3.227 1.369.489 1.271-.098 2.641-1.369 3.227-.293.098-.587.196-.88.196-1.076 0-1.956-.587-2.347-1.565zm184.35-1.956c-1.271-.489-1.956-1.858-1.467-3.13.489-1.271 1.858-1.956 3.13-1.467 1.271.489 1.956 1.858 1.467 3.13-.391.978-1.271 1.663-2.347 1.663-.294-.098-.588-.098-.783-.196zm-175.157-1.564c-.489-1.271.196-2.641 1.467-3.13 1.271-.489 2.641.196 3.13 1.467.489 1.271-.196 2.641-1.467 3.13-.293.098-.587.098-.782.098-1.076.097-2.054-.587-2.348-1.565zm165.866-1.467c-1.271-.391-2.054-1.76-1.565-3.032.391-1.271 1.76-2.054 3.032-1.565 1.271.391 2.054 1.76 1.565 3.032-.293 1.076-1.271 1.76-2.347 1.76-.196-.098-.392-.195-.685-.195zm-156.575-1.761a2.395 2.395 0 0 1 1.663-3.032c1.271-.391 2.641.293 3.032 1.565a2.395 2.395 0 0 1-1.663 3.032c-.196.098-.489.098-.685.098-1.076.098-1.956-.587-2.347-1.663zm147.186-.978c-1.271-.391-2.054-1.663-1.76-3.032.391-1.271 1.663-2.054 3.032-1.76 1.271.391 2.054 1.663 1.76 3.032-.293 1.076-1.271 1.76-2.347 1.76-.196.098-.391 0-.685 0zm-137.797-1.858c-.391-1.271.391-2.641 1.76-3.032 1.271-.391 2.641.391 3.032 1.76.391 1.271-.391 2.641-1.76 3.032-.196.098-.391.098-.685.098-.978 0-1.956-.782-2.347-1.858zm128.409-.489c-1.271-.293-2.152-1.663-1.858-2.934.293-1.369 1.663-2.152 2.934-1.858 1.271.293 2.152 1.663 1.858 2.934-.293 1.174-1.271 1.956-2.347 1.956-.196-.098-.392-.098-.587-.098zM201.66 9.584c-.293-1.369.489-2.641 1.858-2.934 1.271-.293 2.641.489 2.934 1.858.293 1.271-.489 2.641-1.858 2.934-.196.098-.391.098-.587.098-1.076 0-2.152-.782-2.347-1.956zm109.24-.098c-1.369-.293-2.249-1.565-1.956-2.836.293-1.369 1.565-2.249 2.836-1.956 1.369.293 2.249 1.565 1.956 2.836-.196 1.174-1.271 1.956-2.445 1.956h-.391zm-99.656-2.053c-.293-1.369.587-2.641 1.956-2.836 1.369-.293 2.641.587 2.836 1.956.293 1.369-.587 2.641-1.956 2.836-.196 0-.293.098-.489.098-1.076-.001-2.151-.881-2.347-2.054zm90.072.391c-1.369-.196-2.249-1.467-2.054-2.836.196-1.369 1.467-2.249 2.836-2.054 1.369.196 2.249 1.467 2.054 2.836-.196 1.174-1.271 2.054-2.445 2.054h-.391zm-80.39-2.054c-.196-1.369.685-2.641 2.054-2.836 1.369-.196 2.641.685 2.836 2.054.196 1.369-.685 2.641-2.054 2.836h-.391c-1.174 0-2.249-.88-2.445-2.054zm70.806.782c-1.369-.196-2.347-1.369-2.152-2.738.196-1.369 1.369-2.347 2.738-2.152 1.369.196 2.347 1.369 2.152 2.738-.196 1.271-1.174 2.152-2.445 2.152h-.293zm-61.124-2.151c-.196-1.369.782-2.543 2.152-2.738 1.369-.196 2.543.782 2.738 2.152.196 1.369-.782 2.543-2.152 2.738h-.293c-1.174-.001-2.249-.881-2.445-2.152zm51.344 1.271c-1.369-.098-2.347-1.271-2.249-2.641.098-1.369 1.271-2.347 2.641-2.249 1.369.098 2.347 1.271 2.249 2.641a2.451 2.451 0 0 1-2.445 2.249h-.196zm-41.466-2.347c-.098-1.369.88-2.543 2.249-2.641 1.369-.098 2.543.88 2.641 2.249.098 1.369-.88 2.543-2.249 2.641h-.196c-1.272.098-2.445-.88-2.445-2.249zm31.784 1.761c-1.369-.098-2.445-1.174-2.347-2.543.098-1.369 1.174-2.445 2.543-2.347 1.369.098 2.445 1.174 2.347 2.543-.098 1.369-1.174 2.347-2.445 2.347h-.098zm-22.004-2.348c-.098-1.369.978-2.543 2.347-2.543 1.369-.098 2.543.978 2.543 2.347.098 1.369-.978 2.543-2.347 2.543h-.098c-1.37.001-2.445-1.075-2.445-2.347zM262.49 4.89a2.421 2.421 0 0 1-2.445-2.445A2.421 2.421 0 0 1 262.49 0a2.421 2.421 0 0 1 2.445 2.445c.098 1.369-1.076 2.445-2.445 2.445z" fill="url(#SVGID_2_)"/><g><linearGradient id="SVGID_3_" gradientUnits="userSpaceOnUse" x1="28.483" y1="2666.545" x2="28.483" y2="3017.105" gradientTransform="translate(-17.835 -2619.56) scale(.9833)"><stop offset="0" stop-color="#eb3a87"/><stop offset="1" stop-color="#f39ac1"/></linearGradient><path d="M10.171 328.015c-.685 0-1.271-.293-1.76-.685-.489-.489-.685-1.076-.685-1.76 0-.196 0-.293.098-.489 0-.196.098-.293.098-.489.098-.196.098-.293.196-.391.098-.098.196-.293.293-.391.88-.88 2.543-.88 3.521 0 .098.098.196.293.293.391.098.098.196.293.196.391.098.196.098.293.098.489s.098.293.098.489c0 .685-.293 1.271-.685 1.76-.49.392-1.174.685-1.761.685z" fill="url(#SVGID_3_)"/></g><g><linearGradient id="SVGID_4_" gradientUnits="userSpaceOnUse" x1="284.848" y1="2686.83" x2="284.848" y2="3017.244" gradientTransform="translate(-17.835 -2619.56) scale(.9833)"><stop offset="0" stop-color="#eb3a87"/><stop offset="1" stop-color="#f39ac1"/></linearGradient><path d="M259.85 344.739a2.421 2.421 0 0 1 2.445-2.445 2.421 2.421 0 0 1 2.445 2.445 2.421 2.421 0 0 1-2.445 2.445 2.422 2.422 0 0 1-2.445-2.445zm9.682 0a2.421 2.421 0 0 1 2.445-2.445 2.421 2.421 0 0 1 2.445 2.445 2.421 2.421 0 0 1-2.445 2.445c-1.272-.001-2.445-1.076-2.445-2.445zm-17.017 2.444a2.421 2.421 0 0 1-2.445-2.445 2.421 2.421 0 0 1 2.445-2.445 2.421 2.421 0 0 1 2.445 2.445 2.42 2.42 0 0 1-2.445 2.445zm26.797-2.444a2.421 2.421 0 0 1 2.445-2.445 2.421 2.421 0 0 1 2.445 2.445 2.421 2.421 0 0 1-2.445 2.445c-1.272-.001-2.445-1.174-2.445-2.445zm-36.577 2.444a2.421 2.421 0 0 1-2.445-2.445 2.421 2.421 0 0 1 2.445-2.445 2.421 2.421 0 0 1 2.445 2.445c0 1.272-1.076 2.445-2.445 2.445zm46.356-2.542a2.421 2.421 0 0 1 2.445-2.445 2.421 2.421 0 0 1 2.445 2.445 2.421 2.421 0 0 1-2.445 2.445 2.421 2.421 0 0 1-2.445-2.445zm-56.136 2.445a2.421 2.421 0 0 1-2.445-2.445 2.421 2.421 0 0 1 2.445-2.445 2.421 2.421 0 0 1 2.445 2.445 2.421 2.421 0 0 1-2.445 2.445zm65.916-2.543a2.421 2.421 0 0 1 2.445-2.445 2.421 2.421 0 0 1 2.445 2.445 2.421 2.421 0 0 1-2.445 2.445 2.421 2.421 0 0 1-2.445-2.445zm-78.141 0c0-1.369 1.174-2.445 2.445-2.445a2.421 2.421 0 0 1 2.445 2.445 2.421 2.421 0 0 1-2.445 2.445c-1.271 0-2.445-1.174-2.445-2.445zm87.921-.098a2.421 2.421 0 0 1 2.445-2.445c1.369 0 2.445 1.076 2.543 2.445a2.421 2.421 0 0 1-2.445 2.445c-1.467 0-2.543-1.076-2.543-2.445zm-95.255 2.445c-1.369 0-2.445-1.174-2.445-2.543 0-1.369 1.174-2.445 2.445-2.445 1.369 0 2.445 1.174 2.445 2.445.097 1.467-.978 2.543-2.445 2.543.097 0 .097 0 0 0zm104.937-2.543c0-1.369 1.076-2.445 2.445-2.543 1.369 0 2.445 1.076 2.543 2.445 0 1.369-1.076 2.445-2.445 2.543-1.369-.098-2.445-1.173-2.543-2.445zm-114.619 2.347c-1.369 0-2.445-1.174-2.445-2.543 0-1.369 1.174-2.445 2.543-2.445 1.369 0 2.445 1.174 2.445 2.543-.098 1.37-1.174 2.445-2.543 2.445zm126.942-.195c-1.369 0-2.445-1.076-2.543-2.445 0-1.369 1.076-2.445 2.445-2.543 1.369 0 2.445 1.076 2.543 2.445 0 1.467-1.076 2.543-2.445 2.543zm-136.722 0c-1.369 0-2.445-1.174-2.445-2.543 0-1.369 1.174-2.445 2.543-2.445 1.369 0 2.445 1.174 2.445 2.543-.098 1.369-1.174 2.445-2.543 2.445zm143.959-2.543c0-1.369 1.076-2.445 2.445-2.543 1.369 0 2.445 1.076 2.543 2.445a2.559 2.559 0 0 1-2.347 2.543h-.098c-1.468-.098-2.543-1.173-2.543-2.445zm-156.184-.195c0-1.369 1.174-2.445 2.543-2.445 1.369 0 2.445 1.174 2.445 2.543 0 1.369-1.174 2.445-2.543 2.445-1.369-.001-2.445-1.174-2.445-2.543zm165.963-.098c0-1.369 1.076-2.445 2.445-2.543a2.559 2.559 0 0 1 2.543 2.347 2.559 2.559 0 0 1-2.347 2.543h-.098c-1.467.098-2.543-.978-2.543-2.347zm-173.298 2.347c-1.369 0-2.445-1.174-2.347-2.543 0-1.369 1.174-2.445 2.543-2.347 1.369 0 2.445 1.174 2.347 2.543 0 1.369-1.174 2.347-2.543 2.347.098 0 0 0 0 0zm182.98-2.641c-.098-1.369.978-2.543 2.347-2.543s2.543.978 2.543 2.347c.098 1.369-.978 2.445-2.347 2.543h-.098c-1.271.098-2.347-.977-2.445-2.347zm-192.76 2.347c-1.369-.098-2.445-1.174-2.347-2.543.098-1.369 1.174-2.445 2.543-2.347 1.369.098 2.445 1.174 2.347 2.543 0 1.37-1.076 2.347-2.543 2.347.098 0 0 0 0 0zm202.54-2.64c-.098-1.369.978-2.543 2.347-2.543 1.369-.098 2.543.978 2.543 2.347.098 1.369-.978 2.543-2.347 2.543h-.098c-1.271 0-2.347-1.076-2.445-2.347zm-212.32 2.347c-1.369-.098-2.445-1.174-2.347-2.543.098-1.369 1.174-2.445 2.543-2.347 1.369.098 2.445 1.174 2.347 2.543 0 1.271-1.076 2.347-2.543 2.347.098 0 .098 0 0 0zm222.1-2.738c-.098-1.369.978-2.543 2.347-2.543 1.369-.098 2.543.978 2.543 2.347.098 1.369-.978 2.543-2.347 2.543h-.098c-1.369 0-2.445-.978-2.445-2.347zm-231.782 2.347c-1.369-.098-2.445-1.174-2.347-2.543.098-1.369 1.174-2.445 2.543-2.347 1.369.098 2.445 1.174 2.347 2.543-.098 1.369-1.174 2.347-2.445 2.347h-.098zm241.464-2.738c-.098-1.369.978-2.543 2.347-2.543 1.369-.098 2.543.978 2.543 2.347.098 1.369-.978 2.543-2.347 2.543h-.098c-1.271 0-2.347-1.076-2.445-2.347zm-251.243 2.249c-1.369-.098-2.445-1.174-2.347-2.543.098-1.369 1.174-2.445 2.543-2.347 1.369.098 2.445 1.174 2.347 2.543-.098 1.271-1.174 2.347-2.445 2.347h-.098zm261.023-2.738c-.098-1.369.978-2.543 2.347-2.543 1.369-.098 2.543.978 2.543 2.347.098 1.369-.978 2.543-2.347 2.641h-.098c-1.271-.098-2.347-1.174-2.445-2.445zm-270.803 2.249c-1.369-.098-2.445-1.271-2.347-2.543.098-1.369 1.271-2.445 2.641-2.347 1.369.098 2.347 1.271 2.347 2.543-.098 1.271-1.174 2.347-2.445 2.347h-.196zm280.583-2.836c-.098-1.369.978-2.543 2.347-2.641 1.369-.098 2.543.978 2.641 2.347.098 1.369-.978 2.543-2.347 2.641h-.196c-1.272 0-2.445-.978-2.445-2.347zm-290.363 2.347c-1.369-.098-2.347-1.271-2.347-2.641.098-1.369 1.271-2.347 2.641-2.347 1.369.098 2.347 1.271 2.347 2.641-.098 1.271-1.174 2.347-2.445 2.347h-.196zm300.045-2.934c-.098-1.369.978-2.543 2.249-2.641 1.369-.098 2.543.88 2.641 2.249.098 1.369-.88 2.543-2.249 2.641h-.196a2.45 2.45 0 0 1-2.445-2.249zm-309.825 2.249c-1.369-.098-2.347-1.271-2.249-2.641.098-1.369 1.271-2.347 2.641-2.249 1.369.098 2.347 1.271 2.249 2.641a2.451 2.451 0 0 1-2.445 2.249h-.196zm319.605-2.934c-.098-1.369.88-2.543 2.249-2.641 1.369-.098 2.543.88 2.641 2.249.098 1.369-.88 2.543-2.249 2.641h-.196a2.448 2.448 0 0 1-2.445-2.249zm-329.287 2.25c-1.369-.098-2.347-1.271-2.249-2.641.098-1.369 1.271-2.347 2.641-2.249 1.369.098 2.347 1.271 2.249 2.641a2.451 2.451 0 0 1-2.445 2.249h-.196zm338.969-3.032c-.098-1.369.88-2.543 2.249-2.641 1.369-.098 2.543.88 2.641 2.249.098 1.369-.88 2.543-2.249 2.641h-.196a2.45 2.45 0 0 1-2.445-2.249zm-348.749 2.249c-1.369-.098-2.347-1.271-2.249-2.641.098-1.369 1.271-2.347 2.641-2.249 1.369.098 2.347 1.271 2.249 2.641a2.451 2.451 0 0 1-2.445 2.249h-.196zm358.431-3.129c-.098-1.369.88-2.543 2.249-2.641 1.369-.098 2.543.88 2.641 2.249.098 1.369-.88 2.543-2.249 2.641h-.293c-1.077 0-2.153-.978-2.348-2.249zm-368.21 2.151c-1.369-.098-2.347-1.369-2.249-2.641.098-1.369 1.369-2.347 2.738-2.249 1.369.098 2.347 1.369 2.249 2.738a2.451 2.451 0 0 1-2.445 2.249c-.098.001-.196.001-.293-.097zm377.989-3.129c-.196-1.369.782-2.543 2.152-2.738 1.369-.098 2.543.782 2.738 2.152.196 1.369-.782 2.543-2.152 2.738h-.293c-1.271-.001-2.347-.881-2.445-2.152zM67.09 339.457c-1.369-.196-2.347-1.369-2.152-2.738.196-1.369 1.369-2.347 2.738-2.152 1.369.098 2.347 1.369 2.152 2.738-.196 1.271-1.174 2.152-2.445 2.152h-.293zm397.353-3.325c-.196-1.369.782-2.543 2.152-2.738 1.369-.196 2.543.782 2.738 2.152.196 1.369-.782 2.543-2.152 2.738h-.293c-1.271 0-2.347-.88-2.445-2.152zM57.31 338.284c-1.369-.196-2.249-1.369-2.152-2.738.196-1.369 1.369-2.347 2.738-2.152 1.369.196 2.249 1.369 2.152 2.738-.196 1.271-1.174 2.152-2.445 2.152h-.293zm416.815-3.423c-.196-1.369.685-2.641 2.054-2.836 1.369-.196 2.641.685 2.836 2.054.196 1.369-.685 2.641-2.054 2.836h-.391c-1.271.097-2.249-.783-2.445-2.054zm-426.497 2.054c-1.369-.196-2.249-1.467-2.054-2.836.196-1.369 1.467-2.249 2.836-2.054 1.369.196 2.249 1.467 2.054 2.836-.196 1.174-1.271 2.054-2.445 2.054h-.391zm436.082-3.521c-.196-1.369.685-2.641 1.956-2.836 1.369-.196 2.641.685 2.836 1.956.196 1.369-.685 2.641-1.956 2.836h-.489c-1.076.098-2.152-.782-2.347-1.956zM37.946 335.35c-1.369-.293-2.249-1.565-1.956-2.836.196-1.369 1.467-2.249 2.836-1.956 1.369.293 2.249 1.565 1.956 2.836-.196 1.174-1.271 2.054-2.445 2.054-.098-.098-.196-.098-.391-.098zm455.348-3.716a2.475 2.475 0 0 1 1.858-2.934c1.271-.293 2.641.587 2.934 1.858a2.475 2.475 0 0 1-1.858 2.934c-.196 0-.391.098-.489.098-1.174-.098-2.152-.881-2.445-1.956zm-465.03 1.76c-1.369-.293-2.152-1.565-1.858-2.934.293-1.369 1.565-2.152 2.934-1.858a2.474 2.474 0 0 1 1.858 2.934c-.293 1.174-1.271 1.956-2.445 1.956-.098 0-.294 0-.489-.098zm474.516-4.01c-.391-1.271.391-2.641 1.663-3.032 1.271-.391 2.641.391 3.032 1.663.391 1.271-.391 2.641-1.663 3.032-.196.098-.489.098-.685.098-.977.097-2.053-.685-2.347-1.761zm-484.101 1.663c-1.271-.391-2.054-1.76-1.663-3.032.391-1.271 1.76-2.054 3.032-1.663 1.271.391 2.054 1.76 1.663 3.032-.293 1.076-1.271 1.76-2.347 1.76-.196.001-.489.001-.685-.097z" fill="url(#SVGID_4_)"/></g><g><path class="st5" d="M169.417 240.04H292.63v75.16H169.417z"/><path class="st6" d="M171.265 262.483c3.275-7.161 11.808-16.385 11.808-16.385l-4.107.103c-2.606 1.398-5.711 6.011-7.701 9.324v-6.141h1.027v-3.594h-7.393v3.594h1.438v48.721h.205v26.953h8.214v-25.567h1.797v-2.772h-5.288v-34.236z"/><path class="st5" d="M450.754 318.076l-28.736.205-.63-65.457 29.366-.051z"/><path class="st7" d="M413.841 194.452l44.203 50.979-36.81-1.232-.308-13.554-8.009-23.41z"/><path class="st6" d="M422.62 294.049h30.393v4.107H422.62z"/><path class="st6" d="M445.004 251.541h5.955v43.946h-5.955z"/><path fill="#b4ab95" d="M422.569 310.478h28.596v7.803h-28.596z"/><path class="st6" d="M421.696 244.292h37.272v4.373h-37.272z"/><path class="st9" d="M459.774 249.472H420.89v-5.985h38.884v5.985zm-37.272-1.612h35.66v-2.761h-35.66v2.761z"/><path class="st10" d="M95.335 184.902v7.085h23.199l5.756-7.085z"/><path class="st5" d="M97.337 191.371v19.406l19.406-19.406z"/><path class="st11" d="M351.567 129.559l-5.647.128-14.888-20.047.205-44.973h20.33z"/><path class="st12" d="M335.755 118.226V80.518c0-3.106 2.541-5.647 5.647-5.647 3.106 0 5.647 2.541 5.647 5.647l.513 51.134"/><path class="st6" d="M329.825 61.458h23.431v3.388h-23.431z"/><path class="st11" d="M328.593 58.609h26.28v2.926h-26.28z"/><path class="st12" d="M338.989 53.449h6.104v5.253h-6.104z"/><path class="st5" d="M260.595 240.349h24.951v74.852h-24.951z"/><path class="st13" d="M65.918 240.657l127.525-125.062 49.286-1.232-41.071 74.749.41 36.759-38.042 16.018z"/><path d="M125.168 144.345c-1.285 1.643-38.562 34.5-37.277 34.089 1.285-.411 43.703-.821 43.703-.821l32.585-32.908-39.011-.36z" fill="#42272b"/><path class="st6" d="M87.788 177.972v3.85l37.324.102 4.284-4.284z"/><path class="st9" d="M125.445 182.732l-38.463-.105v-5.455l44.376-.354-5.913 5.914zm-36.851-1.714l36.185.099 2.656-2.656-38.841.31v2.247z"/><path class="st6" d="M121.518 185.519l3.388-3.389H89.79v3.543h6.007v-.154z"/><path class="st9" d="M95.797 186.479h-6.813v-5.154h37.868l-5.001 5H96.603l-.806.154zm-5.201-1.612h4.395l.806-.154h25.387l1.776-1.776H90.596v1.93z"/><path class="st7" d="M200.426 203.076l-36.246-58.372-97.646 95.953 2.772.308 84.575.093 55.991-18.062z"/><path class="st11" d="M288.677 63.589l-39.428 52.981 61.607 79.268 38.606-53.803z"/><path class="st5" d="M349.719 139.827l-46.776-58.105.16-.216-13.964-18.072-39.017 52.161-.411.821 13.964 18.277 35.116-46.513 46.513 58.526z"/><path class="st11" d="M422.62 323.826l-134.713-.077v-86.048l66.33-93.947 67.459 90.434z"/><path class="st6" d="M289.704 61.432l59.113 78.805 2.587-3.304-62.316-82.996-40.609 55.805 6.777 8.317-3.081-4.004z"/><path class="st6" d="M346.536 143.472l3.081-3.696-60.375-81.116-37.529 52.622 3.081 4.005 34.396-49.421z"/><path class="st9" d="M346.498 144.777l-57.289-77.529-34.384 49.404-4.115-5.352 38.517-54.007 61.415 82.512-4.144 4.972zM289.17 64.483l57.404 77.684 2.017-2.419-59.335-79.719-36.54 51.237 2.045 2.657 34.409-49.44z"/><path class="st11" d="M247.452 115.8l-47.643 64.893.411 45.794 88.098.616 20.946-28.647z"/><path class="st6" d="M64.531 241.067h100.984v3.697H64.531z"/><path class="st6" d="M66.739 244.558h100.008v4.107H66.739z"/><path class="st9" d="M167.554 249.472H65.933v-5.719h101.621v5.719zM67.545 247.86h98.397v-2.495H67.545v2.495z"/><path d="M153.958 241.058s2.002 7.855 2.233 7.855c.231 0 11.782.308 11.782.308l.231-8.163h-14.246z" fill="#c1b28f" opacity=".3"/><path class="st18" d="M293.452 149.889v-26.08s6.109-4.21 9.395-4.21l-.154 30.29h-9.241zM314.193 149.838v-26.08s-6.109-4.21-9.395-4.21l.154 30.29h9.241z"/><g class="st19"><path class="st20" d="M287.494 152.16l-5.896-.194-17.978-23.326-.48-4.077.249-.272c.105-.113 10.625-11.327 23.392-.691l.284.236.429 28.324zm-5.084-1.78l3.447.115-.393-25.89c-10.555-8.535-19.056-1.048-20.635.516l.34 2.89 17.241 22.369z"/></g><g class="st19"><path class="st20" d="M256.524 122.4l30.577-39.602-.466 35.899-1.34-1.289c-10.057-9.669-23.449.767-23.583.872l-5.188 4.12zm18.811-10.712c3.199 0 6.574.886 9.736 3.385l.356-27.467-20.851 27.004c2.71-1.412 6.585-2.922 10.759-2.922z"/></g><g class="st19"><path class="st20" d="M322.965 122.217l-5.166-4.091c-.55-.434-13.546-10.522-23.583-.872l-1.341 1.289-.467-35.899 30.557 39.573zm-28.881-34.765l.357 27.467c7.287-5.755 15.706-2.956 20.495-.463l-20.852-27.004z"/></g><g class="st19"><path class="st20" d="M343.94 150.298l-23.913-.173-.688-29.761 24.601 29.934zm-22.337-1.773l18.905.135-19.45-23.665.545 23.53z"/></g><g class="st19"><path class="st20" d="M312.312 193.057l-20.336-27.763.087-9.217 22.936-.331v32.764l-2.687 4.547zm-18.719-28.282l18.574 25.358 1.219-2.062v-30.69l-19.726.287-.067 7.107z"/></g><g class="st19"><path class="st20" d="M319.903 181.455l-.526-26.168 19.494.176-18.968 25.992zm1.118-24.54l.398 19.73 14.3-19.598-14.698-.132z"/></g><path class="st13" d="M345.92 129.687l43.433-.128 34.91 37.375-41.071-.411-27.569-34.962-4.219 5.372z"/><path class="st11" d="M76.699 249.898v73.928l90.254-.616v-73.929z"/><path class="st6" d="M388.223 174.327l33.473-.206-.308-3.491-35.116.411z"/><path class="st10" d="M393.357 180.385c.411-.103 22.795 0 22.795 0l-.308-5.955-27.107.205 4.62 5.75z"/><path class="st5" d="M413.071 180.487l.719 27.21-20.433-27.312z"/><g class="st19"><path class="st20" d="M408.775 201.648l-.196-16.556H396.13v-1.612h14.042l.215 18.149z"/></g><path class="st6" d="M427.344 252.773h12.527v6.161h-12.527z"/><path class="st6" d="M428.986 258.728h9.036v37.375h-9.036z"/><path class="st21" d="M76.545 317.46h90.202v7.803H76.545z"/><path d="M264.962 218.222v-33.191c0-5.889-7.193-11.187-16.769-10.707-8.174 0-14.863 4.818-14.863 10.707v33.139l31.632.052z" fill="#9a917c"/><path class="st18" d="M235.952 180.59h10.781v32.446h-10.781zM251.148 180.59h10.781v32.446h-10.781z"/><path class="st23" d="M224.965 175.456s5.647-.308 8.214 2.978l-.103 38.094-8.317-.103.206-40.969zM273.378 175.764s-5.647-.308-8.214 2.978l.103 38.094 8.317-.103-.206-40.969z"/><path fill="#c8c1ab" d="M261.981 193.549H251.2V180.59h-4.698v12.959h-10.588v2.139h10.588V215.5h4.698v-19.812h10.781z"/><path class="st25" d="M248.171 247.972h1.848v60.914h-1.848z"/><g><path class="st13" d="M155.761 237.782c.821-.411 44.305-11.911 44.305-11.911l85.479-.205 3.08.205-9.395 12.321-123.469-.41z"/></g><g><path class="st18" d="M203.917 269.535c0 4.381-3.448 7.932-7.701 7.932s-7.701-3.551-7.701-7.932c0-4.38 3.448-7.932 7.701-7.932s7.701 3.551 7.701 7.932z"/></g><g><path class="st6" d="M311.728 194.76l2.926-3.697-68.024-88.919-69.898 98.006c2.31.154 4.312.077 6.238.154l64.276-90.665 64.482 85.121z"/><path class="st6" d="M308.848 199.358l2.881-4.599-64.276-85.325-65.098 90.331c1.643 0 3.85.154 5.699.077l60.015-79.729 60.779 79.245z"/><path class="st9" d="M308.914 200.771l-60.839-79.327-59.607 79.187-.381.017c-1.169.049-2.443.009-3.677-.032a65.498 65.498 0 0 0-2.056-.046h-1.574l66.658-92.496 65.268 86.641-3.792 6.056zm-125.007-1.782l.555.017c1.068.033 2.168.068 3.179.043l60.421-80.269.646.841 60.072 78.326 1.97-3.145-63.284-84.009-63.559 88.196z"/></g><g><path class="st5" d="M199.809 185.005l.206 9.447 52.776-69-4.775-5.731z"/></g><g><path class="st13" d="M188.515 200.92l11.551 24.951-.257-40.866z"/></g><g><path class="st25" d="M248.581 128.532l55.241 74.339 3.286-5.339-57.602-75.776z"/></g><g><path class="st18" d="M338.476 293.946V231.62c0-8.81 7.208-16.018 16.018-16.018 10.319-.718 18.944 6.9 18.944 15.71l-.873 62.017c0 .21.147.616-.057.616-6.694 0-24.329.305-34.018.305-.101.001-.014-.201-.014-.304z"/><path class="st6" d="M365.511 294.595l-.146-.825.449-.075-.426-.043v-55.101c0-6.295-.983-10.023-3.189-12.084-1.585-1.483-3.847-2.1-6.907-1.897l-.002-.016c-5.227.295-8.861 6.015-8.861 13.997l-.814 55.523-1.612-.025.814-55.51c0-8.98 4.359-15.401 10.6-15.604l.001.013c3.409-.191 5.995.578 7.882 2.342 3.279 3.065 3.699 8.698 3.699 13.261v55.83l-.748.153-.74.061z"/><path class="st18" d="M316.965 234.188h16.634v59.45h-16.634z"/><path class="st6" d="M316.939 248.973h16.685v2.002h-16.685zM316.939 252.362h16.66v2.002h-16.66z"/><path class="st6" d="M324.46 234.188h1.643v34.089h-1.643z"/><path class="st6" d="M317.042 267.404h16.66v2.002h-16.66zM316.99 263.862h16.66v2.002h-16.66z"/><path class="st18" d="M377.648 234.188h16.634v59.45h-16.634z"/><path class="st6" d="M377.622 248.973h16.685v2.002h-16.685zM377.622 252.362h16.66v2.002h-16.66z"/><path class="st6" d="M385.143 234.188h1.643v34.089h-1.643z"/><path class="st6" d="M377.725 267.404h16.659v2.002h-16.659zM377.673 263.862h16.66v2.002h-16.66z"/><g><path class="st6" d="M338.322 248.871h34.603v4.107h-34.603z"/></g><g><path class="st6" d="M312.344 296.103h86.455v3.697h-86.455z"/></g><g><path class="st6" d="M354.766 215.603h1.612v8.598h-1.612z"/></g><g><path transform="rotate(-29.167 367.91 226.629)" class="st6" d="M363.789 225.835h8.219v1.612h-8.219z"/><path transform="rotate(-89.914 369.856 238.53)" class="st6" d="M369.044 234.778h1.612v7.508h-1.612z"/></g><g><path transform="rotate(-61.802 343.843 226.686)" class="st6" d="M343.01 222.379h1.612v8.6h-1.612z"/><path class="st6" d="M338.464 238.033h7.508v1.612h-7.508z"/></g></g><g><path class="st6" d="M386.272 171.041c.513 0 39.12-.513 39.12-.513l-.205-3.491-42.509-.411 3.594 4.415z"/><path class="st9" d="M386.273 171.848h-.383l-4.919-6.045 44.978.436.299 5.085-.843.011c-1.577.02-38.62.513-39.132.513zm-1.885-4.399l2.265 2.782c3.677-.042 32.55-.427 37.886-.497l-.112-1.898-40.039-.387z"/></g><g><path fill="#9c4031" d="M200.066 225.871l79.165 11.089 8.317-11.243-87.482.154z"/></g><g><path class="st5" d="M76.391 249.281h89.33v6.982h-89.33z"/></g><g><path fill="#b0a794" d="M441.667 252.763h3.491v41.389h-3.491z"/></g><g><path class="st6" d="M204.533 264.52c1.741-7.252 12.835-19.243 12.835-19.243l-4.107.103c-3.117 1.673-6.947 7.94-8.728 11.084v-6.977h1.232v-3.594h-7.393v3.594h1.232v7.145c-1.687-3.013-5.679-9.673-8.909-11.406l-4.107-.103s11.426 12.346 12.912 19.56c.013.065.055.102.104.128v31.908h-3.08v2.772h1.078v16.531h8.368v-16.531h1.848v-2.772h-3.286V264.52z"/></g><g><path fill="#ede3ce" d="M428.897 258.908h9.126v2.285h-9.126z"/></g><g><path class="st5" d="M421.388 228.027l-51.499-63.752.16-.216-13.964-18.071-39.017 52.16-31.215 47.232-.308 30.392 80.192-105.039 56.062 69.924z"/></g><g><path class="st23" d="M224.401 305.396l.329-51.194s21.723-12.037 47.615.87l.11 52.355v1.305l-47.944-.435-.11-2.901z"/><path class="st18" d="M229.175 257.599h14.786v38.196h-14.786zM253.51 257.599h14.786v38.196H253.51z"/><path class="st23" d="M265.433 278.575v-7.753h4.095v-1.094h-4.095v-7.655h4.095v-1.094h-4.095l.078-3.906h-1.172v3.906h-7.148v-4.023h-1.094v4.023l-2.929.117-.039.937 2.969.039v7.655l-2.851-.078-.078 1.172h2.929v7.768l-2.89.005-.391 2.031 16.711-.027v-2.031l-4.095.008zm-1.094.002l-7.148.012v-7.766h7.148v7.754zm0-8.848h-7.148v-7.655h7.148v7.655zM241.406 278.78v-7.752h4.095v-1.094h-4.095v-7.655h4.095v-1.094h-4.095l.078-3.906h-1.172v3.906h-7.148v-4.023h-1.094v4.023l-2.929.117-.039.937 2.969.039v7.655l-2.851-.078-.078 1.172h2.929v7.768l-2.89.005-.391 2.031 16.711-.027v-2.031l-4.095.007zm-1.093.002l-7.148.012v-7.766h7.148v7.754zm0-8.848h-7.148v-7.655h7.148v7.655z"/></g><g><path class="st6" d="M92.563 321.207l.47-54.368s31.052-12.783 68.064.924l.157 55.6v1.386l-68.535-.462-.156-3.08z"/><path class="st9" d="M162.06 325.561l-70.108-.471-.196-3.888.476-54.903.494-.203c.315-.131 31.773-12.745 68.651.913l.524.194.159 58.358zm-68.574-2.074l66.962.452v-.576l-.156-55.035c-33.563-12.222-62.367-2.453-66.458-.932l-.466 53.795.118 2.296z"/><path class="st18" d="M146.468 270.074h10.781v8.933h-10.781zM130.605 270.074h10.781v8.933h-10.781zM113.817 270.074h10.781v8.933h-10.781zM97.337 270.074h10.781v8.933H97.337z"/><g><path class="st6" d="M96.567 282.549h60.375v41.832H96.567z"/><path class="st9" d="M157.748 325.187H95.761v-43.444h61.987v43.444zm-60.375-1.612h58.763v-40.22H97.373v40.22z"/><path class="st6" d="M96.259 289.326h60.683"/><path class="st9" d="M96.259 288.52h60.683v1.612H96.259z"/><path class="st6" d="M96.721 296.719h60.683"/><path class="st9" d="M96.721 295.913h60.683v1.612H96.721z"/><g><path class="st6" d="M96.721 303.341h60.683"/><path class="st9" d="M96.721 302.536h60.683v1.612H96.721z"/></g><g><path class="st6" d="M96.721 310.58h60.683"/><path class="st9" d="M96.721 309.774h60.683v1.612H96.721z"/></g><g><path class="st6" d="M96.567 316.279h60.683"/><path class="st9" d="M96.567 315.473h60.683v1.612H96.567z"/></g></g></g><g><path class="st6" d="M154.221 237.782H284.93v3.902H154.221zM165.053 242.094h115.615v4.312H165.053z"/><path class="st9" d="M281.474 247.212H164.247v-5.924h117.228v5.924zM165.859 245.6h114.004v-2.7H165.859v2.7z"/></g><g><path class="st6" d="M291.141 296.719h-.566l-.204-57.5-4.518 6.161.029 7.343c-1.522-2.7-3.655-5.84-5.881-7.035l-4.107-.103s6.783 6.264 10.009 12.505l.153 38.629h-4.927v2.772h1.078v25.413h8.779v-25.413h.154v-2.772z"/></g><g><path fill="#e0d5bc" d="M421.799 248.666h38.094v4.158h-38.094z"/></g><g><path class="st21" d="M291.347 314.995h130.671v7.804H291.347z"/></g><g><path class="st6" d="M233.103 212.934h32.267v5.545h-32.267z"/></g><g><path class="st6" d="M437.817 239.835l-82.194-108.274-81.475 114.23 6.777 6.571 75.262-106.099 74.032 99.528z"/><path class="st9" d="M281.038 253.594l-7.949-7.708L355.602 130.2l83.336 109.779-8.873 6.955-73.863-99.301-75.164 105.961zm-5.831-7.899l5.605 5.434 75.359-106.237.663.889 73.539 98.865 6.323-4.956-81.052-106.769-80.437 112.774z"/><g><path class="st6" d="M434.12 242.3l-77.881-103.243-78.6 110.019 3.286 3.286 75.262-105.668 74.032 99.097z"/><path class="st9" d="M281.029 253.605l-4.443-4.442 79.636-111.468 78.989 104.712-5.111 4.573-.527-.707-73.371-98.21-75.173 105.542zm-2.336-4.615l2.128 2.128 75.35-105.792.661.886 73.506 98.39 2.693-2.41-76.774-101.774-77.564 108.572z"/></g></g><g><path class="st6" d="M222.604 301.75h52.571v14.067h-52.571z"/></g></g></svg>