<svg id="Layer_1" xmlns="http://www.w3.org/2000/svg" viewBox="0 0 506.3 751.806"><style>.st0{fill:#e30073}.st1{fill:#4d4d4f}.st2{fill:#ee97bf}.st4{fill:#f9deea}.st5{fill:#fff206}.st6{fill:#fff}</style><path class="st0" d="M180.28 393.788c10.487-9.857 20.995-18.871 34.143-24.42-.523-10.472-1.454-20.885 3.984-30.733-19.2 2.393-38.127 1.002-57.811-1.152-11.353-2.006-23.344-9.582-30.027-20.931-3.159-7.328-4.916-17.049 1.257-23.6 5.805-5.563 13.997-6.326 23.239-3.185 14.666-10.826 25.858-2 25.858-2 6.701-4.161 17.302-5.183 23.854-.25 4.809 3.408 4.537 9.602 4.039 14.523 5.257.645 12.998 2.273 19.738 3.619-.514-3.655-1.233-3.739-1.813-7.619-7.191-24.868-9.866-46.396-11.61-73.252-1.084-16.843-1.084-39.44-1.084-39.44 12.133-2.892 25.672-6.241 36.537-9.656 34.461-9.33 67.396-23.343 100.467-33.559 7.19-1.962 14.885-.551 17.324 5.721 4.351-12.221 5.4-23.278 5.4-23.278-20.318-2.523-41.391-6.049-60.826 2.656-6.176 5.418-13.004 14.003-22.727 10.604-17.171-8.965-19.572-30.927-19.069-48.47.38-.118.258-.499.258-.885l-5.488-1.028c-1.944-5.932-4.381-12.916-5.347-18.66-1.798-10.377-.41-20.817 5.162-29.652-1.139-2.77-1.771-6.427-.631-9.474 2.19-3.295 5.522-3.295 10.607-2.639 26.864 4.793 53.274 11.917 79.138 19.229.339-1.132.627-2.425 1.111-3.453-2.737-.733-5.072-1.468-8.179-2.148l8.886-.618c2.267-7.055 9.28-13.281 16.23-15.42 4.27-.372 8.438.134 11.206 3.031 2.775 3.241 3.997 6.748 4.793 11.756 4.93-5.7 12.383-11.253 20.959-8.466 9.594 3.648 12.135 13.881 12.36 23.346.065 2.22-.514 7.99-.514 7.99 2.778 2.024 5.452 3.608 7.84 5.642 0 0-4.39-1.362-8.417-2.989l-.393 1.162 13.355 5.484c1.142-3.4 1.391-7.069 3.291-10.107 2.139-2.627 4.798-5.411 8.204-5.67 8.85-1.498 16.348 8.96 16.348 8.96 3.325-1.736 6.998-2.274 6.998-2.274 6.553-1.642 12.868 1.262 17.917 5.434 4.678 4.425 8.832 10.472 7.575 17.532-1.273 9.343-12.074 12.491-18.796 14.89-2.689 1.077-4.97 1.604-13.017 3.292.642 7.191 2.859 15.745-1.558 22.06-10.08 9.83-24.969 5.409-36.921 4.579-7.197-.514-13.02-.383-20.329-1.155-3.041 6.695-5.936 14.264-8.206 20.582 3.04-1.765 7.156-1.51 10.499.071 14.996 9.727 12.753 28.651 11.088 43.472-.998 8.745-1.61 15.339-2.781 23.972-2.698 20.144-3.667 41.905-6.063 62.731-.502 7.198-.122 15.129-1.513 22.342-.243 8.582-.612 17.171-1.254 24.856-.987 16.425-1.145 81.173-1.145 81.173 23.111-3.256 46.125-3.679 69.68.369 17.967 3.081 28.386 10.103 31.81 23.85 1.007 6.307.25 13.379-4.93 17.92-4.182 2.149-8.168 3.629-12.948 1.091-5.427 3.581-10.972 2.835-10.972 2.835-7.104 6.095-22.648 7.564-30.865 2.767-6.041-3.162-11.98-6.436-19.047-7.334-6.064 9.102-17.94 9.851-27.877 8.226-14.009-2.048-29.789-12.627-33.329-27.281-.487-3.637.759-7.447 2.388-10.585 3.928-4.672 8.543-6.093 13.474-8.751.127-38.884-3.24-75.929-3.24-115.035 0-13.191 1.376-35.603 1.376-35.603-12.87 31.804-29.28 59.806-48.847 88.838-8.324 9.839-15.641 20.326-25.991 29.024 13.564 78.957 20.918 171.177 20.918 171.177-17.916 5.801-40.982 10.432-58.784 15.354-.118 9.837 1.154 21.947 2.398 31.57 1.245 27.108 5.308 56.147 9.347 83.526 1.271 11.741 3.286 24.615 4.535 36.979-2.768 3.161-5.992 3.595-9.962 4.921-37.351 12.261-74.472 25.26-114.472 28.398-21.956 2.779-48.954 1.013-69.914-6.677-3.798-1.139-.523-4.292 0-6.31 9.204-15.28 22.835-27.521 37.863-36.609 0 0-7.545-47.682 3.53-83.299 4.547-20.431 15.017-39.503 25.738-57.928 1.274-1.13 1.145-3.673 3.409-3.673 26.883-.865 50.867-3.525 76.359-8.061 1.139-1.765-.627-2.899 0-4.525 1.011-5.946-.627-11.629-1.008-17.305-1.521-20.317-3.29-42.294-6.072-62.739-3.158-17.15-4.15-33.447-8.059-49.971-1.533-6.947-2.163-12.868-3.666-19.685-12.756 9.577-23.479 20.326-32.679 32.684l-.995 1.318c-3.958 5.3-8.621 11.27-11.504 16.598-8.167 15.021-16.623 31.453-21.92 47.748 0 0-4.757 12.784-7.655 23.352-.534 2.892-1.61 4.517-2.24 7.269-4.779 19.204-7.311 40.794-12.996 59.709-.121 3.539-2.519 7.962-3.28 12.11-1.507 4.68-2.479 8.553-4.036 13.643-1.613 5.492-4.534 11.475-6.054 17.02-7.315 18.054-15.152 33.204-24.736 50.003-12.883 22.326-37.088 39.299-68.166 36.841-6.38-.508-13.856-.32-17.757-6.375-2.02-2.275-3.631-5.934-3.174-9.256.547-4.024 2.11-9.094 8.321-10.023 15.61-2.314 26.755-3.002 39.506-11.565 30.539-18.576 38.232-53.03 50.607-82.437 5.043-15.004 9.589-30.65 12.353-46.314 2.06-9.907 3.163-14.666 4.972-22.033.315-1.224.723-3.622 1.101-5.218 2.345-9.852 4.312-16.696 7.063-26.25 1.338-4.633 3.331-9.862 4.784-15.129 6.788-17.555 14.089-35.769 23.014-49.36 8.929-13.581 28.483-34.335 28.483-34.335zm114.879-199.931c-16.937 6.32-33.578 13.004-49.762 20.965-3.646 30.167-.372 61.718 4.309 91.123 7.447-7.961 15.138-15.53 22.714-24.246 6.041-6.934 12.478-14.368 18.166-21.194 11.628-16.666 25.376-33.314 33.842-52.122l-.264-.243c4.915-8.084 8.588-16.797 10.867-26.009-13.251 3.019-27.642 6.944-39.872 11.726zm-12.855 267.619c-5.623-30.297-15.68-59.488-15.68-59.488-1.268.377-2.658.377-3.652 1.263-.383 41.254-.891 95.795 2.765 135.928 9.212-2.51 17.301-5.063 26.368-7.815 0-.002-4.167-39.573-9.801-69.888zm-91.157 129.2c6.695 28.253 4.797 58.063 3.017 86.947-.044.887-.044 1.546-.5 2.648 10.47-1.382 21.466-1.007 31.181-.505 3.917.255 7.298 1.373 11.23 2.029-.381-20.814 1.521-46.454.88-66.252.259-15.412.642-27.646-.369-42.17 0 .001-26.16 9.371-45.439 17.303z"/><path class="st1" d="M269.159 65.344l-.422 2.064c-23.001-5.926-73.568-9.36-73.568-9.36 40.279-3.433 73.99 7.296 73.99 7.296zM268.487 73.225l-.157 2.073c-24.196-.52-76.006 7.483-76.006 7.483 40.41-12.246 76.163-9.556 76.163-9.556z"/><path class="st2" d="M380.458 30.316c4.681 4.147 5.018 9.481 5.438 16.023-.588 1.075-.876 1.89-1.149 2.767-7.198-4.157-15.153-6.57-23.346-8.449 1.26-4.434 5.308-11.118 10.864-12.124 3.132-.242 5.911.114 8.193 1.783z"/><path class="st0" d="M284.413 64.758l1.008 1.024c9.358-5.557 20.318-9.343 30.79-12.38-10.722-6.942-21.498-13.99-33.373-18.484-4.008-1.506-8.559-3.83-11.429-2.204-3.079 2.204 1.837 12.668 4.8 18.094 2.971 5.397 8.204 13.95 8.204 13.95z"/><path class="st2" d="M415.293 41.536c3.147 6.051 3.147 12.749 2.767 18.805-9.843-4.153-19.537-8.326-30.288-9.967 1.769-5.682 5.872-10.056 10.956-13.696 6.2-3.558 13.421-1.213 16.565 4.858z"/><path d="M364.417 54.525c-14.378-.493-29.769-1.373-43.278-1.503-8.452-6.321-17.67-11.237-26.634-16.273 23.094 5.414 47.207 10.457 69.912 17.776z" fill="#e970a8"/><path class="st4" d="M282.653 67.524c-5.307-7.568-11.368-14.89-14.257-23.593-2.179 4.924-3.799 10.101-3.917 15.783.012 8.722 2.46 16.927 4.926 24.856 3.514.374 7.498.816 11.154.439.196-9.069 2.094-17.485 2.094-17.485z"/><path class="st5" d="M383.42 52.351c-.275 1.02-.356 1.982-.614 3.488l-23.555-8.246c.093-1.028.392-2.531.892-3.661 7.812 2.287 15.953 5.262 23.277 8.419zM416.817 63.625c-1.287 7.058-7.21 15.527-14.785 17.542-3.397.382-6.436-.262-8.82-2.398-7.065-6.309-7.824-16.79-6.306-25.11 9.831 2.653 20.289 5.672 29.911 9.966z"/><path class="st2" d="M244.792 582.465c-.146 33.313.605 68.4-1.77 100.339 3.894 1.896 9.463.745 12.36 4.537-9.462-.282-16.673-1.634-24.854-1.263-22.345-2.761-40.775 1.789-60.211 5.433-3.669.996-8.701 1.766-12.737 3.415-17.681 6.166-33.196 15.634-47.592 28.14-4.916 4.921-10.092 9.577-13.005 15.771 3.296.384 7.082 1.641 10.606 1.142 9.203-12.496 20.695-23.222 34.588-29.418l.253.38c-11.616 8.836-22.467 18.565-31.566 30.285 8.458.512 13.778 2.91 22.479 2.667 6.436-11.744 14.746-23.48 25.991-32.318.645.387.262 1.146.381 1.78-7.956 9.593-17.786 19.433-21.834 31.159 17.049.255 31.807-1.498 48.208-3.899 31.061-6.57 61.729-15.661 91.114-24.874-1.745-7.198-2.621-13.491-3.893-19.943.134-2.006-.146-4.285-.892-6.685-.393-4.41-1.011-8.327-1.534-12.984.399-.636-.981-1.652 0-2.413-3.644-15.271-3.001-26.517-5.529-42.157-6.815-71.689-10.851-139.2-8.088-214.419l.104-1.353c1.021-22.493 1.745-42.228 3.201-62.888.784-8.128 2.725-14.247 2.725-14.247 0 5.76.919 14.868 1.181 19.159 46.799-46.448 82.781-100.701 102.974-160.27 2.521-6.321 3.255-12.221 6.06-18.432 2.369-5.25 5.728-8.478 11.783-7.856 8.847 4.02 8.897 13.753 8.728 22.341-.393 18.57-2.936 33.819-7.352 50.137l-.289 17.275c-1.274 28.015-.995 64.505-.487 95.311-.377 19.916 1.995 37.357 1.498 57.8l-1.498 2.126c-4.939 2.04-10.742 3.794-13.881 9.107-1.545 4.523.815 9.162 3.632 12.734 9.15 11.584 25.495 17.027 40.268 12.627 6.934-2.029 10.956-10.158 9.108-15.15-9.346-9.334-24.508-7.438-36.624-5.444l-1.005-.624.628-.502c11.875-4.662 29.03-7.561 39.134 2.404 2.883 3.29 4.428 8.232 2.218 13.578 14.968 3.073 29.962 16.333 44.351 3.964 3.673-3.964 5.149-7.538 2.736-11.815-11.857-13.516-25.449-16.464-43.628-15.078l-4.549-.358.383-.256c18.428-4.175 40.264-1.141 53.643 13.873 3.147 4.936 1.691 8.41-1.26 13.634 0 0 6.57-.844 8.182-4.092 1.641-3.236 2.844-8.315-.356-14.336-8.359-12.247-36.619-14.892-36.619-14.892 15.415.14 28.862 1.908 39.584 11.768 6.066 5.941 3.969 12.728 1.57 19.418l1.901-.253c3.747-1.287 5.533-5.952 5.161-9.977-1.414-15.485-15.227-20.196-26.364-22.458-23.489-4.309-51.145-6.22-74.856-1.179l.262-2.116c-.362-21.198-1.376-45.81-1.519-67.894.265-28.656 1.599-56.421 4.392-83.168l-.102-1.396.641-.497c2.03-23.724 4.151-46.778 8.467-70.05 1.492-8.241 2.134-20.318-3.052-28.149-2.886-5.057-8.562-7.061-14.25-6.057 0 0-2.165 6.107-6.695 9.609 3.822-13.953 7.691-24.376 10.995-37.508 1.246-3.159 1.754-3.402 4.155-3.02 12.868 2.265 32.674 2.827 44.927 1.264l4.55-1.519c5.689-4.294 6.684-14.844 4.692-21.537 0 0 8.179-2.275 13.774-4.02 7.485-2.343 16.867-6.378 18.14-15.076-1.272-5.299-6.067-9.862-10.867-12.393-3.771-1.631-7.796-2.023-12.503-.812-7.168 2.464-8.82 9.917-10.822 15.705l-3.924-1.244c-10.614-4.151-20.534-8.038-31.53-11.316l-4.537 6.3c-4.402 5.965-12.371 8.886-18.848 6.624-10.3-3.61-12.74-15.104-13.251-24.712-1.625-.506-3.263-1.115-4.928-1.763l-51.72-1.501 7.825 10.832c4.771 7.328 2.755 18.567-.628 25.754 10.458 4.163 23.447 1.881 32.164-4.173-4.784-4.534-7.195-10.973-5.166-17.531 1.38-1.896 1.508-4.187 3.896-5.551-.636 6.173-2.14 13.507 3.664 18.548 5.56 4.92 11.997 4.795 19.07 3.274.503.137 2.848-.546 2.98-.047-5.953 3.153-13.724 6.368-20.291 3.465-10.446 6.31-25.545 10.143-38.532 5.974l-2.098 4.707c-2.295 5.548-5.94 10.992-9.605 16.065 15.028-3.795 34.22-2.007 50.234.519 5.61.872 12.96 2.97 16.803 4.546-.642 1.253-5.784.105-6.66.869l-.407 1.524c-1.531 10.096-3.551 18.429-7.584 27.888 1.411 3.908 2.505 6.196 2.253 11.421 0 0-4.72-11.325-12.217-15.459-5.439-2.526-11.873-.366-17.299 1.014-39.373 15.512-79.622 31.801-121.646 39.631 0 0-.885 7.011-1.058 13.926.116 15.257 1.914 35.951 4.06 54.234 0 0 1.509 10.69 3.604 22.407 2.098 11.69 6.306 29.147 6.121 37.869l-2.789-6.276s-18.321-6.647-33.686-5.242c-24.273 1.747-45.4 8.196-45.4 8.196 2.99-2.954 9.697-4.589 9.697-4.589-2.525-6.813-6.383-16.531-13.881-16.912-5.058.506-10.351.755-13.391 5.411-2.518 3.56-1.513 8.47-.892 12.132 3.43 7.702 10.877 14.773 18.82 17.931 19.935 4.155 39.296 5.046 60.199 3.29 11.898-1.022 24.639-2.241 31.536-11.251-3.646-24.978-6.422-51.361-6.937-75.346 1.008-15.517-.118-30.663 4.562-44.55 0 0 .826 2.359.628 6.312 31.667-15.133 64.184-25.007 100.293-31.203 2.126 0 6.096-.862 9.017.029-3.958 1.554-8.612 2.517-12.124 4.535-.743 5.061-2.791 10.354-4.297 14.27-16.028 41.399-43.647 82.476-79.376 113.664-2.096 1.919-4.179 3.132-6.58 4.469.265 4.401.5 8.196 1.141 12.102-7.455 7.834-17.67 11.364-28.398 12.77 0 0-2.819 8.55-3.319 15.177-.525 6.624.5 17.622 1.911 27.569 1.395 9.961 7.471 43.565 7.471 43.565 3.647 12.496 3.647 25.486 6.307 38.749 1.261 6.678 1.261 13.254 2.767 19.688.131 1.526-.496 3.034.631 4.537 5.096 43.337 5.7 95.042 5.7 95.042z"/><path class="st4" d="M286.942 68.793c9.961-5.804 21.326-8.324 32.294-11.859 8.601 8.849 15.15 21.72 10.981 33.946-1.388 5.176-6.933 3.912-10.981 5.815-12.737 1.878-25.479-3.54-35.961-10.604 1.646-11.554 3.667-17.298 3.667-17.298z"/><path class="st2" d="M456.556 68.553c-1.756 3.277-4.154 6.678-4.301 10.216-3.907-1.901-9.446-3.609-13.366-5.616 1.008-4.051 1.23-9.774 7.314-10.669 5.779-1.035 7.704 2.444 10.353 6.069z"/><path class="st4" d="M275.147 88.508c1.02 15.774.223 31.652 13.091 40.499 4.182 2.276 10.553 1.385 14.339-.511 11.171-5.608 17.055-18.55 23.354-29.655-8.202 1.379-17.286 3.78-25.36.243-11.27-4.823-19.133-10.234-19.133-10.234l-6.291-.342zM390.72 183.648c1.625 56.648-27.929 103.994-55.689 150.181-18.059 26.144-42.297 50.752-71.696 62.732.631-11.738.631-23.717 1.509-34.204 39.243-34.2 68.417-78.619 89.858-123.681 8.716-17.922 15.833-35.731 19.964-55.557.85-4.181 4.534-9.42 8.556-9.188 4.3.894 6.636 5.632 7.498 9.717z"/><path class="st2" d="M178.797 292.555c3.54 3.156 3.819 7.891 4.197 12.047-5.18 1.249-10.657 2.625-17.272 4.715 0-4.916-2.981-10.185-6.387-14.866 4.547-4.291 14.047-6.304 19.462-1.896zM200.848 291.672c2.918 2.657 2.175 6.313 1.911 9.472-5.047.393-10.969 1.141-16.16 2.392-.262-4.032-.509-8.068-2.007-11.483 5.414-2.01 10.856-2.895 16.256-.381zM164.265 443.746c5.674-8.065 10.209-16.383 16.896-24.199 8.846-10.986 16.249-18.029 27.655-27.29 2.635-2.124 8.217-5.09 8.217-5.09l-2.099-12.179c-16.837 9.21-32.49 23.574-43.477 37.607-13.51 17.275-24.845 37.857-32.057 56.9-8.704 24.622-18.256 47.438-20.785 73.45l-.172.793c-2.255 16.007-7.063 29.394-11.103 45.159-1.887 5.18-2.894 9.352-5.191 14.143-.481.886-.363 2.265-.861 2.509-1.521 7.709-5.938 14.267-8.601 22.098l-.468.835c-1.85 5.15-4.771 10.176-7.343 14.934-11.574 21.548-30.143 39.571-52.739 45.058-9.492 2.31-18.743.336-23.607 5.435-1.613 1.68-1.153 5.053-.271 7.065.773 2.273 3.052 3.537 5.189 3.914 28.007 3.911 55.152-9.091 69.043-33.316 19.658-30.934 32.663-65.625 41.51-101.468 3.789-15.536 6.188-32.562 10.22-47.842.503-1.891.752-2.55 1.277-4.289 4.282-21.2 13.745-41.411 22.083-61.462 3.145-6.845 6.684-12.765 6.684-12.765zM318.756 546.111c-17.293 3.539-34.276 8.455-51.882 13.01-.522-4.05-.378-9.352-.903-14.13 13.139-4.185 25.427-7.738 39.138-13.133 1.207-.472 2.976-.216 2.755-1.099-1.917-1.005-7.171-1.555-9.203-1.3 0 0-1.011-34.237-5.977-59.741-6.921-35.518-18.481-71.025-18.481-71.025 8.202-4.531 17.145-8.566 24.208-14.646 9.865 57.096 20.345 162.064 20.345 162.064zM236.324 559.487l.262 8.211-1.477.734c-11.039 2.969-25.116 6.933-45.98 14.424-.436-1.625-2.203-4.626-4.382-6.783.856 9.536 3.204 20.808 3.819 29.266.262 4.163.511 8.861.668 13.59.631 9.073.077 18.886-.719 28.026-.184 1.977-.184 3.953-.645 6.437-.393 9.465-1.153 18.303-2.151 27.896-4.939.268-10.743 1.771-15.4 2.653 9.584-32.314 11.118-72.065-.38-104.511-2.41-5.295-4.544-10.841-7.198-16.018 24.119-.762 50.975-3.412 73.584-10.608-.001 2.009-.25 4.3-.001 6.683z"/><path class="st2" d="M133.965 696.676l3.037-1.504c8.969-4.428 18.925-7.183 28.143-10.609 11.115-37.607 14.012-83.92-4.8-119.625h-.629c-3.029 7.296-7.825 13.857-10.592 21.194-7.587 15.142-10.089 31.542-13.013 48.193l-.592 1.935c-.892 5.055-1.466 9.584-1.977 14.137 0 14.384-1.599 26.128-.458 40.874.195 2.282.881 5.405.881 5.405z"/><path class="st1" d="M385.046 0l1.783 9.592-22.791 8.59-3.488-7.362zM423.789 7.706l-10.08 7.245 19.269 23.064 7.524-5.839z"/><path d="M397.801 63.316c1.111 3.801 4.271 6.435 7.088 5.845 2.817-.562 4.362-4.185 3.04-7.928l-.419-1.261c-1.545-.66-8.98-3.007-8.98-3.007-1.439 2.263-.729 6.351-.729 6.351z"/><path class="st6" d="M404.273 58.841c.446 1.495-.315 3.014-1.575 3.283-1.244.265-2.657-.736-3.052-2.247-.327-1.14.262-2.373.262-2.373 1.903.505 4.365 1.337 4.365 1.337z"/><path d="M370.654 47.346l-.104.493c-.722 3.139.865 4.036 3.147 4.877 2.303.826 4.205.745 5.281-1.818l.011-.306c-3.181-1.523-8.335-3.246-8.335-3.246z"/><path class="st6" d="M371.769 47.76c-.342 1.155.115 2.623 1.138 2.994.999.375 2.137-.234 2.482-1.381l.021-.304c-1.701-.707-3.641-1.309-3.641-1.309z"/><path class="st1" d="M320.547 80.799l-.773 1.89c26.295 8.812 78.624 35.78 78.624 35.78-38.139-26.371-77.851-37.67-77.851-37.67zM316.708 87.477l-1.076 1.712c24.395 13.815 71.395 50.632 71.395 50.632-33.187-33.476-70.319-52.344-70.319-52.344z"/><path class="st0" d="M457.84 91.982c7.129-1.159 18.505-3.756 20.418-7.917 1.575-3.267-.233-6.125-3.432-7.313-4.547-1.774-9.308.051-13.144 4.567-3.032 3.545-3.842 10.663-3.842 10.663z"/><path class="st4" d="M460.434 89.746c4.366-.7 12.796-3.467 13.947-5.979.968-1.964-.131-3.688-2.087-4.403-2.772-1.062-5.583.297-7.994 2.992-3.04 3.385-3.866 7.39-3.866 7.39z"/><path d="M145.68 669.87c-.107 4.622-2.255 8.304-4.784 8.247-2.544-.06-4.484-3.854-4.377-8.481.107-4.615 2.267-8.298 4.77-8.232 2.542.062 4.51 3.851 4.391 8.466zM162.263 670.343c-.107 4.601-2.27 8.309-4.803 8.237-2.514-.06-4.469-3.839-4.365-8.469.125-4.609 2.271-8.307 4.787-8.229 2.529.063 4.496 3.843 4.381 8.461z"/></svg>