<svg id="Layer_1" xmlns="http://www.w3.org/2000/svg" viewBox="0 0 327.836 287.966"><style>.st0{fill:#fff}.st1{fill:#da0e30}</style><path class="st0" d="M264.349.452l.087.001c-24.447.997-46.883 5.509-66.648 11.579C104.939 40.492 37.801 109.124 9.381 201.8c-5.023 16.371-7.006 33.773-9.187 53.357l-.002-.168v32.797h7.821c0-13.167.486-25.494 1.37-37.314.883-11.879 3.84-23.416 6.06-34.006 9.026-43.221 31.251-82.079 55.308-110.626 13.834-16.421 28.842-31.607 46.514-44.172 26.725-19.003 46.165-31.38 93.618-45.022 6.023-1.733 12.313-2.865 18.742-3.991 4.568-.788 9.217-1.707 13.9-2.263 9.332-1.112 18.801-1.946 28.731-2.153.842-.014 10.15-.266 14.463.071l.008-7.841-22.378-.017z"/><path class="st1" d="M272.255 8.239c.842-.014 10.15-.266 14.463.071v247.63c0 6.873-.12 15.368-.197 21.889-.053 4.497-5.018 9.279-9.572 9.971-2.553.375-5.44 0-8.018 0H8.014c0-13.172.485-25.504 1.37-37.328.883-11.879 3.84-23.416 6.06-34.006 9.026-43.221 31.251-82.079 55.308-110.626 13.834-16.421 28.842-31.607 46.514-44.172 26.725-19.003 46.165-31.38 93.618-45.022 6.023-1.733 12.313-2.865 18.742-3.991 4.568-.788 9.217-1.707 13.9-2.263 9.331-1.112 18.8-1.947 28.729-2.153z"/><path class="st1" d="M9.967.727C18.304-.38 28.411.106 36.94.106h171.012c18.711 0 37.729 0 56.484.346-24.447.997-46.883 5.509-66.648 11.579C104.939 40.492 37.801 109.124 9.381 201.8c-5.023 16.371-7.006 33.773-9.187 53.357C0 235.803 0 215.43 0 195.747V83.168 32.19c0-6.978.193-22.076.193-22.076C1.025 5.878 5.58 1.307 9.967.727z"/><path class="st0" d="M267.586 153.696l.199 6c-3.4-1.3-9-2.399-12 .4-1 1.1-1.199 2.8-.699 4.1 4.799 7 18.699 11.101 14.1 21.601-2.9 5.1-8.701 6.2-14.6 5.5-2.5-.1-4.801-.7-7.201-1.2l-.5-6c3.6 1.2 9.701 3.1 13.701.3 1.5-1.2 1.5-3.6.699-5.1-5.4-6.601-19.1-12-13.4-22.3 4.401-5.8 13.301-4.5 19.701-3.301zM128.7 153.196c1.101 10.001 3.5 19.301 5.3 29.001 3.301-9.4 5.9-19.2 8.2-29.001h11.5c2.2 9.801 4.9 19.5 7.9 29.001 2.41-9.501 4.02-19.501 5.82-29.001h9.1l-1.5 3.801c-2.5 11.199-5.398 22.8-7.6 33.6H156.8c-2.4-10.2-5.9-20-8.9-30-2.9 10-6.6 19.7-8.9 30h-10.8c-1.8-12.4-5.601-24.7-8.601-36.9l-.199-.5h9.3v-.001zM205.065 159.196l-18.4-.3-.301 9.601.701.5c5.299-.101 10.9.399 15.9-.5v6.3c-5.102-.9-10.701-.3-16.102-.5v10.6c6.102-.2 12.5.4 18.201-.5l-.201 6.2h-27.1c.701-12.2.701-25.2 0-37.4h27.1l.202 5.999zM218.198 153.196c6.1 9.4 12 19.001 18.4 28.301l-.201-28.301h7.9l-.199 36.2.5 1.2h-10.602l-18.5-27.8-.199 27.8h-7.699c.799-11.8.5-24.3.199-36.2l-.4-1.2h10.801zM63.112 199.297l.2 7.399c-6.6-2.3-15.2-2.699-21.4 1.001-5.399 3.899-6.8 10.1-6 16.5.2 4.699 3.7 9.1 8 11.1 6.101 2.799 14 2 20.1-.301l-.499 7.699c-10.9 2-24.2 2.502-32.4-6-5.3-5.398-6.6-12.699-5.5-20.398 1.101-6.601 5.601-13.701 12.3-16.1 7.399-3.1 17.099-2.2 25.199-.9zM267.985 206.197c.5 1.999.201 4.199.301 6.299-6.6-2.499-16.5-3.9-22.301 1.201-4.398 3.498-5.699 9-4.398 14.398.799 3.1 3 6.301 6 7.9 4.5 2.301 9.6 1.701 14.398.5-.1-5.1.4-10.4-.398-15.199h8.799c-.799 6.5-.299 13.5-.4 20.199-10.199 2.1-24.6 4.199-32.398-4.6-4.602-4.9-5.5-12.1-3.9-18.699 2.199-7.701 10-12.601 17.5-13.401 5.898-.298 11.498.202 16.797 1.402zM136.905 214.096c.101 3.5-1.399 8.201-5.5 9.9l-4.3 1.4 12.5 17.1h-9.2l-12.4-20.4c3.101.5 6.601.301 9.101-1.699 2-1.701 2.199-4.4 1.699-6.699-2.299-5.201-8.699-2.4-13.199-3.201l-.301 30.499c.301.5.601.9.5 1.5h-8.6c.7-12.1.7-25.1 0-37.2 10.4 1.701 27-4.9 29.7 8.8zM151.088 205.297c6.501 9.299 12.204 18.901 18.721 28.299.201-9.299.801-19.898-.5-28.299h8.201l-.201 37.2h-10.1c-6.322-9.199-12.522-18.699-18.722-27.6-.3 9-.6 18.699.2 27.6h-7.9c.801-11.699.5-24 .2-35.8l-.5-1.399h10.601v-.001zM190.538 205.297c-1.102 12.2 0 24.799 0 37.2h-9.102c.701-12.1.701-25.1 0-37.2h9.102zM223.108 233.596l-.199-28.299h8.199c-.799 12.1-.799 25.1 0 37.2h-10.6l-18.5-27.6c-.301 9-.5 18.699.301 27.6h-8.201c.701-12.1.701-25.1 0-37.2h10.6l18.4 28.299zM117.934 158.196c-3.1-6.699-10.2-11.1-17.1-12.199-9.801-1.101-20.101-.301-26.9 7.699-5.2 6.301-5.9 16.4-3.301 24.2 3.201 9.7 13.4 13.8 22.801 14.2 9.6.3 19.6-2.9 24.199-12.3 3-6.299 2.701-15.099.301-21.6zm-10.401 19.901c-3.5 5.5-9.6 7.6-16 6.5-4.5-.3-8.8-3.6-10.6-7.7-2.1-5.399-2.4-12.7.699-17.7 3.801-5.399 10.1-7.699 16.801-6.3 3.699 1 7.4 3.4 9.4 7 2.8 5.2 2.501 13.1-.3 18.2z"/><path class="st0" d="M103.538 215.096c-2.399-5.499-8.2-8.999-13.7-10.099-8.199-.9-17-.3-22.8 6-4.2 4.8-4.601 11.8-3.601 18.3 1.301 5.898 7.001 11.6 13.001 12.9 9.2 1.799 20.1.898 25.899-7.4 3.6-5.5 3.302-13.599 1.201-19.701zm-9.1 17.301c-3.501 4.4-9.2 5.699-14.7 4.299-2.801-1.1-6-3.199-7.2-6.199-1.8-5.1-1.899-12.5 2.2-16.6 3.4-3.2 8.199-3.9 13-3.1 2.8.7 5.6 2.5 7.199 5.299 2.501 4.701 2.601 11.801-.499 16.301z"/><path class="st1" d="M314.536 236.348c7.342 0 13.301-5.996 13.301-13.383 0-7.307-5.959-13.294-13.301-13.294-7.381 0-13.375 5.988-13.375 13.294 0 7.387 5.994 13.383 13.375 13.383zm0-2.125c-6.531 0-11.248-4.689-11.248-11.258 0-6.482 4.717-11.168 11.248-11.168 6.492 0 11.172 4.686 11.172 11.168 0 6.569-4.68 11.258-11.172 11.258zm-3.061-10.475h3.271l4.283 6.779h2.209l-4.539-6.779c2.65-.209 4.705-1.309 4.705-4.254 0-2.736-1.342-4.221-5.31-4.221h-6.565v15.254h1.945v-6.779zm0-1.767v-4.936h4.195c1.842 0 3.617.291 3.617 2.418 0 2.867-2.986 2.518-5.115 2.518h-2.697z"/></svg>