<svg id="Layer_1" xmlns="http://www.w3.org/2000/svg" viewBox="0 0 214.042 61.595"><style>.st0{fill:#092859}.st1{fill:#6d6e70}</style><path class="st0" d="M33.779 36.869c-4.587.282-15.821 6.051-22.341 10.254-3.093 1.996-1.397-.599.399-4.388 1.795-3.79 8.578-20.346 9.974-21.942 1.396-1.595 1.147-5.785-1.247-6.183-2.395-.399-3.303-.155-4.14 1.795 0 0-15.758 36.701-16.356 38.697-.075.248-.524 1.746 2.394 2.195 2.594.398 5.383-2.195 7.776-3.99 2.395-1.794 17.756-11.171 21.944-12.167 0 0 2.993-.799 3.391-1.198.399-.397 2.794-3.355-1.794-3.073zM106.077 22.114c2.675-5.159 3.156-12.835-1.401-17.177-2.602-2.48-5.929-3.898-9.36-4.459C87.78-.757 79.647.512 72.428 2.997c-2.221.765-19.769 7.228-17.597 10.269.84 1.173 1.12 1.575 2.252 1.183 1.819-.632 3.097-1.127 4.256-1.666 0 0 4.769-2.287 10.79-3.33-.706 3.811-2.004 7.963-3.288 11.539-2.495 6.948-5.677 13.571-8.957 20.175-.469.945-3.668 7.553.174 5.94 2.143-.899 4.591-1.92 5.498-3.581 1.872-3.431 2.497-5.012 4.126-8.569.775-1.689 3.274-8.021 3.89-9.774 2.119-6.026 3.646-9.339 5.038-15.551.213-.949.479-1.529.777-1.907 4.4-.893 8.845-1.471 12.353-1.217.261.026.524.051.781.079 3.775.41 8.475 1.913 9.445 6.128.895 3.88-1.354 7.857-3.456 10.952-3.562 5.241-7.69 9.959-12.615 13.958a144.39 144.39 0 0 1-8.506 6.411c-5.699 3.962-11.828 7.348-18.169 10.166a115.6 115.6 0 0 1-8.688 3.455c-.927.325-4.955 1.059-4.129 2.685.343.675 1.451.9 2.11 1.023 1.067.194 2.381.32 3.458.156 3.932-.599 14.723-4.986 21.401-8.578 2.823-1.518 7.107-4.102 10.4-6.544a166.717 166.717 0 0 0 4.742-3.636c5.575-4.459 10.347-9.505 14.275-15.477 1.127-1.712 2.341-3.349 3.288-5.172zM212.996 26.521c-.994-1.176-1.809-1.973-3.066-1.979-10.412-.041-18.695 1.187-29.851 4.063-4.169 1.075-5.569 1.784-8.372 2.615a220.516 220.516 0 0 1-7.9 2.198c-1.171.299-1.963.528-3.559.707-.818.092-2.644.012-3.021-.845 3.142-2.176 8.252-6.181 10.012-8.371 1.549-1.753 2.672-3.953 1.846-6.288-.953-2.692-4.256-2.815-6.561-2.046-4.013 1.338-7.76 4.424-10.211 7.818-1.004 1.389-1.888 2.934-2.391 4.579-.397 1.304-.669 3.42-.163 4.936-4.702 1.753-11.282 2.277-14.049-.536-1.728-1.758-1.201-1.266.198-1.448 1.497-.195 5.036-.719 6.484-1.129 1.642-.465 2.98-1.186 4.389-2.163 2.377-1.649 3.59-5.213 2.726-7.111-.963-2.111-3.299-2.367-5.369-2.44-1.102-.039-1.563.051-2.767.224-.709.103-3.215.816-3.591 1.446 1.541-2.586 4.54-6.732 6.081-8.835 2.194-2.993 4.661-7.522 5.6-8.872 1.248-1.795-3.561-3.045-4.737-1.067 0 0-10.829 15.882-15.495 22.466-3.889 5.482-5.356 8.333-7.525 11.523-1.459 1.579-2.233 1.02-2.422.833a2.564 2.564 0 0 1-.275-.395c-.12-.208.157-1.191.25-1.412.639-1.539.724-1.6 1.587-2.916 1.386-2.113 2.872-4.163 4.204-6.312.876-1.416.709-2.803-.842-3.683-1.859-1.055-3.494.802-4.255 1.847-1.991 2.729-3.709 5.648-5.704 8.375-1.114 1.521-2.24 3.119-3.833 4.173-.894.591-2.622 1.528-3.747 1.223-2.787-.754 1.033-6.729 1.82-7.994.905-1.452 1.823-2.896 2.816-4.29.463-.65 1.753-1.997 1.268-2.875-.499-.903-1.721-.871-2.543-.901-1.081-.038-1.59.667-2.224 1.425a34.141 34.141 0 0 0-2.26 2.989c-2.198 3.317-4.783 7.504-5.166 11.521-.134 1.401.332 3.707 1.496 4.712 3.46 2.987 8.786-.053 11.954-1.912.511-.298.831-.737 1.338-.503 4.306 6.102 9.331.395 10.711-1.407a20.68 20.68 0 0 0 1.706-2.112c.559-.791 1.072-1.493 1.556-2.332.17-.294.481-.878.821.015.326.858.727 1.54 1.311 2.266 4.633 5.771 14.354 3.51 20.26.597 1.475 1.57 4.011 2.765 8.383 2.147l-.004-.002c.155-.019.311-.036.467-.054 3.432-.427 6.77-.99 10.098-1.951 2.357-.68 4.727-1.358 7.061-2.11 4.7-1.515 7.869-2.432 10.175-2.87 4.506-.856 7.705-1.466 12.265-1.977 5.495-.617 8.967-1.017 13.587-1.23 1.155-.052-.075-1.749-.567-2.33zm-77.796.592c.35-.349.723-.681 1.096-1.004a16.574 16.574 0 0 1 3.64-2.393 8.025 8.025 0 0 1 1.423-.519c.167-.043.335-.083.504-.118.836-.173 1.832-.331 2.63.06.397.195.778.587.743 1.057-.034.468-.402.825-.754 1.095a8.934 8.934 0 0 1-2.42 1.3c-.351.125-.71.231-1.071.324a21.21 21.21 0 0 1-2.293.437c-.768.11-1.354.123-2.13.141-.118.004-.969.051-1.556.033-.202-.005.177-.403.188-.413zm20.335-.176c1.282-2.429 3.375-4.68 5.596-5.91.746-.412 2.119-1.079 2.975-.603.924.516.446 1.786-.036 2.419-1.118 1.472-2.225 2.544-3.502 3.607-.542.45-1.091.891-1.632 1.341l-.015.012c-.428.326-.865.667-1.309 1.024a42.461 42.461 0 0 1-2.583 1.898c-.388-1.307.08-2.813.506-3.788z"/><path class="st0" d="M48.84 38.099v2.608c0 1.795 1.353 1.976 2.243 2.18 2.595.591 7.23-1.698 6.171-2.769-.923-.934-3.403-.748-3.329-3.942.064-2.757 4.19-9.596 4.19-9.596 1.383-2.656 1.201-2.265.748-3.292-.793-1.791-5.137-2.293-9.127-.299-3.989 1.995-8.663 7.395-11.568 12.602-4.986 8.941-1.597 10.662 3.191 8.941 2.841-1.021 7.481-6.433 7.481-6.433zm-5.35.598c-1.568-.598-.454-2.897.113-3.889.784-1.374 1.97-3.036 2.991-4.239.975-1.146 2.482-2.703 3.74-3.541 1.454-.969 2.443-1.051 3.341-.848.619.14.479.932.2 1.297-1.79 2.339-2.805 3.598-5.088 6.283-1.606 1.891-2.833 3.383-3.173 3.823.001 0-1.339 1.413-2.124 1.114z"/><g><path class="st1" d="M96.347 50.654c.883-.902 2.006-1.353 3.369-1.353 1.824 0 3.157.605 4.001 1.814.466.679.716 1.361.751 2.045h-2.29c-.146-.525-.333-.922-.562-1.189-.408-.476-1.013-.714-1.813-.714-.816 0-1.459.336-1.931 1.007-.471.672-.706 1.622-.706 2.852s.248 2.15.745 2.762 1.129.918 1.895.918c.786 0 1.385-.263 1.797-.788.228-.283.417-.707.567-1.271h2.275c-.196 1.194-.698 2.166-1.505 2.915s-1.84 1.123-3.1 1.123c-1.56 0-2.786-.505-3.679-1.517-.893-1.016-1.339-2.409-1.339-4.179.002-1.914.51-3.388 1.525-4.425zM114.447 59.495c-.827.853-2.024 1.279-3.591 1.279s-2.764-.426-3.592-1.279c-1.11-1.046-1.665-2.553-1.665-4.521 0-2.008.555-3.515 1.665-4.521.828-.853 2.025-1.279 3.592-1.279s2.764.426 3.591 1.279c1.105 1.006 1.658 2.513 1.658 4.521 0 1.969-.552 3.475-1.658 4.521zm-1.431-1.665c.532-.669.799-1.621.799-2.855 0-1.229-.267-2.18-.799-2.852-.533-.672-1.253-1.008-2.16-1.008s-1.631.335-2.171 1.004c-.541.669-.811 1.621-.811 2.855s.27 2.186.811 2.855c.54.669 1.264 1.004 2.171 1.004s1.627-.334 2.16-1.003zM117.526 49.509h2.4l4.351 7.642v-7.642h2.134v10.96h-2.289l-4.462-7.776v7.776h-2.134v-10.96zM129.922 57.086c.071.501.21.875.418 1.123.379.451 1.029.676 1.95.676.552 0 1-.059 1.344-.178.653-.228.979-.652.979-1.271 0-.362-.159-.642-.479-.84-.32-.193-.827-.364-1.521-.513l-1.187-.26c-1.166-.258-1.968-.538-2.403-.84-.739-.506-1.108-1.296-1.108-2.372 0-.981.361-1.797 1.084-2.446s1.784-.974 3.184-.974c1.17 0 2.167.306 2.992.918s1.259 1.501 1.299 2.666h-2.201c-.041-.659-.335-1.127-.884-1.405-.366-.183-.821-.275-1.364-.275-.605 0-1.088.119-1.449.357a1.13 1.13 0 0 0-.541.996c0 .392.178.684.534.877.229.129.714.28 1.456.454l1.923.454c.843.198 1.475.463 1.896.795.653.516.98 1.262.98 2.238 0 1.001-.388 1.833-1.161 2.495-.774.662-1.868.993-3.281.993-1.442 0-2.577-.326-3.404-.978-.826-.652-1.239-1.548-1.239-2.688h2.183zM146.101 49.509v1.941h-3.279v9.019h-2.305V51.45h-3.294v-1.941h8.878zM154.175 49.792a2.7 2.7 0 0 1 1.025.766c.232.278.416.585.552.922.135.337.203.721.203 1.152 0 .521-.132 1.032-.395 1.535-.263.503-.696.859-1.301 1.067.505.203.863.492 1.074.866.21.374.315.945.315 1.714v.736c0 .501.021.84.061 1.019.061.283.201.491.423.625v.275h-2.527a7.696 7.696 0 0 1-.149-.587 5.347 5.347 0 0 1-.097-.944l-.015-1.019c-.01-.699-.13-1.165-.362-1.398-.232-.233-.667-.35-1.305-.35h-2.236v4.298h-2.238v-10.96h5.242c.749.016 1.325.11 1.73.283zm-4.734 1.621v2.944h2.465c.489 0 .856-.06 1.102-.179.433-.208.649-.62.649-1.234 0-.664-.21-1.11-.629-1.338-.235-.128-.588-.193-1.059-.193h-2.528zM157.858 49.509h2.327v6.731c0 .752.089 1.302.267 1.649.276.614.879.921 1.808.921.924 0 1.523-.307 1.801-.921.178-.347.267-.896.267-1.649v-6.731h2.327v6.737c0 1.165-.181 2.072-.542 2.721-.673 1.189-1.957 1.785-3.853 1.785s-3.182-.595-3.859-1.785c-.361-.649-.542-1.557-.542-2.721v-6.737zM169.613 50.654c.883-.902 2.006-1.353 3.369-1.353 1.824 0 3.157.605 4.001 1.814.466.679.716 1.361.751 2.045h-2.29c-.146-.525-.333-.922-.562-1.189-.408-.476-1.013-.714-1.813-.714-.816 0-1.459.336-1.931 1.007-.471.672-.706 1.622-.706 2.852s.248 2.15.745 2.762 1.129.918 1.895.918c.786 0 1.385-.263 1.797-.788.228-.283.417-.707.567-1.271h2.275c-.196 1.194-.698 2.166-1.505 2.915s-1.84 1.123-3.1 1.123c-1.56 0-2.786-.505-3.679-1.517-.893-1.016-1.339-2.409-1.339-4.179.002-1.914.509-3.388 1.525-4.425zM187.237 49.509v1.941h-3.279v9.019h-2.305V51.45h-3.294v-1.941h8.878zM190.376 60.469H188.1v-10.96h2.275v10.96zM200.666 59.495c-.827.853-2.024 1.279-3.591 1.279s-2.764-.426-3.592-1.279c-1.11-1.046-1.665-2.553-1.665-4.521 0-2.008.555-3.515 1.665-4.521.828-.853 2.025-1.279 3.592-1.279s2.764.426 3.591 1.279c1.105 1.006 1.658 2.513 1.658 4.521 0 1.969-.553 3.475-1.658 4.521zm-1.431-1.665c.532-.669.799-1.621.799-2.855 0-1.229-.267-2.18-.799-2.852-.533-.672-1.253-1.008-2.16-1.008s-1.631.335-2.171 1.004c-.541.669-.811 1.621-.811 2.855s.27 2.186.811 2.855c.54.669 1.264 1.004 2.171 1.004s1.627-.334 2.16-1.003zM203.746 49.509h2.4l4.351 7.642v-7.642h2.134v10.96h-2.289l-4.462-7.776v7.776h-2.134v-10.96z"/></g><g><path class="st1" d="M156.25 71.038c-.03.637.127 1.086.472 1.347.346.261.817.391 1.416.391a3 3 0 0 0 .615-.069c.219-.046.416-.121.593-.225.176-.104.323-.238.442-.403.119-.165.179-.37.179-.616a.957.957 0 0 0-.167-.575 1.368 1.368 0 0 0-.438-.385 3.024 3.024 0 0 0-.627-.265 23.602 23.602 0 0 0-.736-.213 10.916 10.916 0 0 1-.656-.19 2.955 2.955 0 0 1-.736-.357 2.122 2.122 0 0 1-.604-.615c-.165-.253-.248-.576-.248-.967 0-.368.069-.709.208-1.024.138-.314.337-.585.598-.812.261-.226.581-.403.961-.529s.812-.19 1.295-.19c.43 0 .832.046 1.208.138.376.092.702.242.978.449.276.207.491.478.645.812.153.333.223.742.207 1.225h-1.381c-.007-.514-.149-.884-.426-1.11-.275-.226-.694-.339-1.254-.339-.1 0-.237.012-.414.035s-.353.077-.529.161-.33.205-.46.362c-.131.157-.196.374-.196.65 0 .199.046.364.139.495.092.13.217.242.374.333.157.092.339.169.546.23s.426.119.656.172c.291.077.585.161.88.253a3 3 0 0 1 .806.385c.242.165.438.382.587.65.149.269.225.618.225 1.047 0 .322-.062.641-.185.955-.122.314-.32.598-.592.852-.272.253-.626.458-1.06.616-.433.157-.96.236-1.582.236-.483 0-.92-.056-1.312-.167a2.578 2.578 0 0 1-.995-.518 2.22 2.22 0 0 1-.621-.903c-.143-.369-.206-.81-.19-1.324h1.379zM163.268 67.805h1.313l-1.231 5.949h-1.312l1.23-5.949zm.472-2.267h1.301l-.253 1.243h-1.301l.253-1.243zM166.042 67.805h1.231l-.184.863.022.023a2.496 2.496 0 0 1 2.049-1.047c.598 0 1.037.142 1.317.426.279.284.42.667.42 1.15 0 .107-.004.23-.012.368s-.023.261-.046.368l-.794 3.797h-1.312l.759-3.67c.023-.1.044-.196.063-.288.02-.092.029-.18.029-.265 0-.046-.003-.117-.006-.213a.642.642 0 0 0-.087-.288.658.658 0 0 0-.271-.247c-.126-.069-.309-.104-.546-.104-.261 0-.493.056-.696.167a2.397 2.397 0 0 0-.547.409 2.092 2.092 0 0 0-.396.569 3.134 3.134 0 0 0-.248.708l-.667 3.222h-1.312l1.234-5.948zM176.134 69.773c.015-.368-.085-.642-.3-.823-.215-.18-.506-.271-.874-.271-.33 0-.618.085-.863.253a2.122 2.122 0 0 0-.609.645 3.116 3.116 0 0 0-.363.857c-.08.311-.12.608-.12.892 0 .222.022.428.068.615.046.188.121.351.225.489s.24.248.408.328c.169.081.376.121.622.121.391 0 .711-.104.961-.311.249-.207.427-.495.534-.863h1.313c-.215.767-.575 1.327-1.082 1.68-.506.353-1.154.529-1.944.529-.392 0-.736-.062-1.036-.184a2.036 2.036 0 0 1-.753-.523c-.204-.227-.359-.495-.467-.806s-.161-.654-.161-1.03c0-.499.077-.974.23-1.427s.376-.85.667-1.191a3.203 3.203 0 0 1 1.064-.812 3.272 3.272 0 0 1 1.422-.299c.329 0 .64.046.932.138.291.092.545.227.76.403.214.177.383.399.506.667s.181.575.173.92h-1.313zM183.532 71.913c-.207.698-.557 1.207-1.048 1.525-.49.318-1.097.478-1.817.478-.376 0-.724-.06-1.042-.178a2.315 2.315 0 0 1-1.363-1.335 2.836 2.836 0 0 1-.195-1.087c0-.46.072-.909.219-1.346.146-.438.358-.829.639-1.174.279-.345.625-.623 1.035-.834s.881-.316 1.41-.316.958.088 1.288.265c.33.176.587.399.771.667.184.269.309.564.374.886.064.322.098.629.098.92 0 .146-.008.28-.023.403-.016.123-.03.234-.046.333h-4.43a1.436 1.436 0 0 0-.018.104.7.7 0 0 0-.006.092v.184c0 .414.109.748.328 1.001.219.253.581.38 1.087.38.354 0 .656-.081.909-.242s.426-.403.518-.725h1.312zm-.955-1.657c.007-.038.012-.071.012-.098v-.27c0-.353-.111-.643-.334-.869-.223-.227-.529-.34-.921-.34-.491 0-.882.148-1.174.443-.291.295-.502.673-.633 1.133h3.05zM189.066 67.034c.545 0 1.055-.105 1.53-.316s.848-.551 1.116-1.019h1.048l-1.691 8.055h-1.393l1.22-5.88c-.346.077-.685.128-1.019.155s-.677.041-1.03.041l.219-1.036zM195.28 71.717c.008.345.107.616.299.811.191.196.476.293.852.293s.688-.081.938-.242c.25-.161.451-.368.604-.621.153-.253.276-.533.368-.84.092-.307.173-.602.242-.886l-.023-.023c-.207.276-.459.478-.754.604s-.627.19-.995.19c-.153 0-.36-.016-.621-.046-.261-.031-.522-.127-.783-.288s-.484-.412-.673-.753c-.188-.341-.282-.819-.282-1.433 0-.414.073-.8.219-1.156.146-.357.346-.667.599-.932s.554-.474.903-.627c.349-.153.727-.23 1.134-.23.514 0 .938.073 1.271.219.333.146.602.332.805.558s.354.476.449.748a4 4 0 0 1 .195.771c.035.242.048.455.04.639-.007.184-.011.303-.011.357a7.571 7.571 0 0 1-.34 2.203 5.808 5.808 0 0 1-.466 1.087c-.192.345-.426.652-.702.92s-.599.481-.967.639-.786.236-1.254.236c-.338 0-.648-.048-.932-.144a2.11 2.11 0 0 1-.736-.42 1.976 1.976 0 0 1-.495-.685 2.401 2.401 0 0 1-.195-.949h1.311zm1.853-1.749c.261 0 .492-.05.696-.149.203-.1.372-.236.506-.409.135-.173.236-.37.305-.593a2.391 2.391 0 0 0 .03-1.288c-.05-.176-.129-.332-.236-.466s-.243-.24-.408-.317a1.406 1.406 0 0 0-.593-.115c-.276 0-.518.054-.725.161-.207.107-.38.251-.518.431a1.977 1.977 0 0 0-.316.61 2.223 2.223 0 0 0-.109.685c0 .422.109.769.328 1.041.216.273.564.409 1.04.409zM201.666 65.699h5.569l-.253 1.243a85.11 85.11 0 0 0-.443.449c-.219.223-.474.506-.765.852-.292.345-.603.748-.933 1.208-.33.46-.645.967-.943 1.519-.238.445-.445.899-.621 1.364-.177.464-.33.938-.461 1.421h-1.461a14.434 14.434 0 0 1 1.634-3.682 18.9 18.9 0 0 1 2.521-3.199h-4.097l.253-1.175zM208.075 71.717c.008.345.107.616.299.811.191.196.476.293.852.293s.688-.081.938-.242c.25-.161.451-.368.604-.621.153-.253.276-.533.368-.84.092-.307.173-.602.242-.886l-.023-.023c-.207.276-.459.478-.754.604s-.627.19-.995.19c-.153 0-.36-.016-.621-.046-.261-.031-.522-.127-.783-.288s-.484-.412-.673-.753c-.188-.341-.282-.819-.282-1.433 0-.414.073-.8.219-1.156.146-.357.346-.667.599-.932s.554-.474.903-.627c.349-.153.727-.23 1.134-.23.514 0 .938.073 1.271.219.333.146.602.332.805.558s.354.476.449.748a4 4 0 0 1 .195.771c.035.242.048.455.04.639-.007.184-.011.303-.011.357a7.571 7.571 0 0 1-.34 2.203 5.808 5.808 0 0 1-.466 1.087c-.192.345-.426.652-.702.92s-.599.481-.967.639-.786.236-1.254.236c-.338 0-.648-.048-.932-.144a2.11 2.11 0 0 1-.736-.42 1.976 1.976 0 0 1-.495-.685 2.401 2.401 0 0 1-.195-.949h1.311zm1.853-1.749c.261 0 .492-.05.696-.149.203-.1.372-.236.506-.409.135-.173.236-.37.305-.593a2.391 2.391 0 0 0 .03-1.288c-.05-.176-.129-.332-.236-.466s-.243-.24-.408-.317a1.406 1.406 0 0 0-.593-.115c-.276 0-.518.054-.725.161s-.38.251-.518.431a1.977 1.977 0 0 0-.316.61 2.223 2.223 0 0 0-.109.685c0 .422.109.769.328 1.041.216.273.564.409 1.04.409z"/></g></svg>