<svg id="Layer_1" xmlns="http://www.w3.org/2000/svg" viewBox="0 0 330.709 126.853"><style>.st0{fill:#635458}.st1{fill:#e42c18}</style><path class="st0" d="M30.952 97.405c-3.857 4.713-8.021 7.065-12.484 7.065-6.003 0-10.579-2.254-13.737-6.76C1.576 93.198 0 87.759 0 81.383c0-6.367 1.576-11.808 4.73-16.319 3.158-4.507 7.734-6.76 13.737-6.76 4.464 0 8.523 2.168 12.189 6.51a23.912 23.912 0 0 1 1.664 2.723l-3.998 2.19a27.32 27.32 0 0 0-.921-1.658c-2.771-3.435-5.749-5.151-8.934-5.151-4.727 0-8.213 1.807-10.469 5.415-2.254 3.607-3.383 7.964-3.383 13.051 0 5.097 1.129 9.446 3.383 13.06 2.256 3.609 5.742 5.414 10.469 5.414 3.185 0 6.262-1.908 9.234-5.729.139-.227.277-.459.416-.691l4.203 1.797a23.872 23.872 0 0 1-1.368 2.17zM35.423 81.383c0-5.66 1.352-9.394 4.052-11.196 2.7-1.797 5.969-2.699 9.8-2.699 3.832 0 7.1.902 9.801 2.699 2.701 1.803 4.051 3.979 4.051 6.537V90.62c0 5.633-1.35 9.344-4.051 11.148-2.701 1.803-5.969 2.701-9.801 2.701-3.831 0-7.1-.899-9.8-2.701-2.7-1.805-4.052-3.979-4.052-6.535v-13.85zm23.09-4.659c0-1.279-.904-2.369-2.705-3.263-1.803-.903-3.98-1.354-6.533-1.354-2.557 0-4.73.451-6.536 1.354-1.798.894-2.7 3.54-2.7 7.922v13.851c0 1.279.902 2.369 2.7 3.273 1.806.895 3.979 1.35 6.536 1.35 2.553 0 4.73-.455 6.533-1.35 1.801-.904 2.705-3.527 2.705-7.887V76.724zM68.411 67.536h4.617v1.846c1.986-1.229 4.297-1.846 6.927-1.846 3.188 0 5.911.898 8.173 2.7.416.335.796.685 1.131 1.037a6.023 6.023 0 0 1 1.016-1.037c2.248-1.802 4.963-2.7 8.15-2.7s5.91.898 8.173 2.7c2.231 1.784 3.358 3.948 3.371 6.487h-4.618c-.014-1.261-.693-2.338-2.03-3.236-1.354-.891-2.986-1.332-4.896-1.332-1.91 0-3.541.441-4.896 1.332-1.337.899-2.013 3.527-2.03 7.896v23.087h-4.613V76.769h.32v-.045h-.32c-.019-1.261-.694-2.338-2.035-3.236-1.354-.891-2.986-1.332-4.896-1.332-1.905 0-3.541.441-4.892 1.332-1.337.899-2.021 3.527-2.035 7.896v23.087h-4.617V67.536zm41.558 9.233v27.701h-4.618V76.769h4.618zM122.151 56.336c2.706-1.798 5.975-2.695 9.801-2.695v4.618c-2.553 0-4.73.447-6.532 1.346-1.802.898-2.695 3.546-2.695 7.932h9.228v4.619h-9.228v32.315h-4.622V72.155h-4.615v-4.619h4.615c-.001-5.664 1.349-9.398 4.048-11.2zM133.173 81.383c0-5.66 1.351-9.394 4.051-11.196 2.705-1.797 5.969-2.699 9.797-2.699 3.836 0 7.104.902 9.801 2.699 2.703 1.803 4.055 3.979 4.055 6.537V90.62c0 5.633-1.352 9.344-4.055 11.148-2.697 1.803-5.965 2.701-9.801 2.701-3.828 0-7.092-.899-9.797-2.701-2.7-1.805-4.051-3.979-4.051-6.535v-13.85zm23.084-4.659c0-1.279-.898-2.369-2.7-3.263-1.798-.903-3.979-1.354-6.536-1.354-2.549 0-4.73.451-6.527 1.354-1.803.894-2.701 3.54-2.701 7.922v13.851c0 1.279.898 2.369 2.701 3.273 1.797.895 3.978 1.35 6.527 1.35 2.557 0 4.738-.455 6.536-1.35 1.802-.904 2.7-3.527 2.7-7.887V76.724zM170.778 81.383v23.087h-4.613V67.536h4.613v2.33c2.59-1.557 5.666-2.33 9.238-2.33v4.619c-2.557 0-4.734.446-6.533 1.35-1.801.894-2.705 3.523-2.705 7.878zM187.733 72.155h-4.615v-4.619h4.615V53.641h4.623v13.896h9.227v4.619h-9.227v18.441c0 4.373.898 7.006 2.695 7.91 1.803.895 3.979 1.35 6.531 1.35v4.613c-3.826 0-7.094-.899-9.791-2.701-2.705-1.805-4.059-5.516-4.059-11.148V72.155z"/><path class="st1" d="M180.016 38.322v14.343l-72.296-38.32-72.297 38.32V38.322L107.72 0l72.296 38.322zm26.656 66.148h4.617v-.992c3.082.662 6.158.992 9.238.992 3.83 0 7.096-1.35 9.801-4.049 2.699-2.701 4.049-5.967 4.049-9.801 0-3.832-1.346-7.1-4.037-9.811-.648-.634-1.457-1.192-2.428-1.689a4.43 4.43 0 0 0 .51-.295c2.428-1.712 3.648-4.318 3.648-7.828 0-3.51-1.238-6.501-3.715-8.982-2.486-2.478-5.473-3.711-8.982-3.711l-12.701-.027v46.193zm4.617-41.553h8.084c2.23 0 4.137.791 5.715 2.365 1.572 1.578 2.365 3.483 2.365 5.715 0 2.23-.77 3.751-2.309 4.546-1.402.743-6.016 1.149-13.855 1.226V62.917zm2.313 18.448v.018c7.172 0 11.654.902 13.457 2.7 1.801 1.805 2.701 3.982 2.701 6.537 0 2.557-.9 4.73-2.701 6.535-1.803 1.799-3.979 2.701-6.531 2.701-3.08 0-6.156-.34-9.238-1.02V81.383c1.095 0 1.865-.005 2.312-.018zm54.572-13.878h-4.623v23.088c0 4.385-.895 7.027-2.699 7.932-1.799.895-3.98 1.35-6.529 1.35-2.557 0-4.728-.455-6.537-1.35-1.801-.904-2.699-1.994-2.699-3.273V67.487h-4.619v27.746c0 2.557 1.355 4.73 4.055 6.535 2.701 1.803 5.965 2.701 9.801 2.701 3.568 0 6.645-.777 9.229-2.328v2.283h4.623V67.487zm6.315.049v4.619h4.617v32.315h4.619V67.536h-9.236zm5.775-4.619c.949 0 1.762-.34 2.445-1.015a3.336 3.336 0 0 0 1.016-2.445c0-.956-.34-1.771-1.016-2.45-.684-.675-1.496-1.016-2.445-1.016-.957 0-1.771.341-2.451 1.016a3.339 3.339 0 0 0-1.014 2.45c0 .952.336 1.771 1.014 2.445.68.675 1.494 1.015 2.451 1.015zm17.768-9.354h-4.613v43.861c.018 1.932.688 3.559 2.029 4.895 1.354 1.355 2.986 2.035 4.891 2.035v-4.613c-.625 0-1.162-.234-1.609-.699-.447-.43-.68-.969-.697-1.617V53.563zm11.57 37.057c0 5.633 1.355 9.344 4.051 11.148 2.701 1.803 5.975 2.701 9.805 2.701v-4.613c-2.557 0-4.734-.455-6.531-1.35-1.807-.904-2.699-3.537-2.699-7.91V72.155h9.23v-4.619h-9.23V53.641h-4.625v13.896h-4.613v4.619h4.613V90.62zm-59.941 26.756c-1.578-.293-3.773-.613-4.857.816-1.406 2.541 1.973 3.871 3.305 5.5.197.369.197.961-.174 1.258-.984.689-2.49.223-3.379-.076l.125 1.48c.592.123 1.16.273 1.775.297 1.453.172 2.885-.1 3.602-1.357 1.133-2.59-2.295-3.6-3.479-5.326-.123-.322-.074-.74.172-1.012.742-.689 2.123-.418 2.961-.098l-.051-1.482zm-34.254-.121h-2.291l.049.121c.738 3.012 1.676 6.045 2.121 9.102h2.662c.568-2.541 1.481-4.932 2.195-7.396.742 2.465 1.604 4.881 2.195 7.396h2.619c.543-2.662 1.26-5.523 1.875-8.285l.371-.938h-2.246c-.443 2.342-.84 4.809-1.436 7.154a87.945 87.945 0 0 1-1.949-7.154h-2.836c-.566 2.416-1.207 4.834-2.021 7.154-.441-2.394-1.035-4.687-1.308-7.154zm18.836 1.48l-.051-1.48h-6.684a81.544 81.544 0 0 1 0 9.223h6.684l.051-1.527c-1.408.223-2.984.074-4.49.123v-2.615c1.334.051 2.715-.098 3.971.125v-1.555c-1.232.221-2.613.098-3.92.123l-.174-.123.076-2.369 4.537.075zm3.238-1.48h-2.664l.1.295c.074 2.938.146 6.02-.049 8.928h1.898l.049-6.855 4.563 6.855h2.615l-.123-.295.047-8.928h-1.947l.049 6.979c-1.579-2.294-3.034-4.663-4.538-6.979zm-24.727 1.232c-.768-1.652-2.516-2.736-4.219-3.008-2.418-.271-4.957-.074-6.633 1.896-1.285 1.557-1.455 4.047-.814 5.971.789 2.393 3.303 3.402 5.621 3.502 2.369.074 4.836-.717 5.971-3.033.738-1.554.664-3.724.074-5.328zm-2.492.42c.691 1.281.617 3.23-.074 4.488-.865 1.357-2.367 1.875-3.945 1.604-1.109-.074-2.17-.889-2.615-1.898-.518-1.334-.592-3.133.172-4.365.939-1.332 2.492-1.9 4.145-1.555.911.246 1.825.84 2.317 1.726zm55.33-3.058c-1.998-.322-4.391-.545-6.215.221-1.65.59-2.762 2.342-3.033 3.971-.273 1.898.049 3.699 1.355 5.031 2.021 2.096 5.303 1.973 7.99 1.477l.123-1.896c-1.504.566-3.451.764-4.955.074-1.063-.494-1.926-1.578-1.973-2.736-.199-1.58.148-3.109 1.479-4.07 1.527-.914 3.65-.814 5.275-.246l-.046-1.826zm50.528 1.699a15.158 15.158 0 0 0-4.145-.344c-1.85.195-3.773 1.406-4.315 3.303-.395 1.629-.174 3.406.961 4.613 1.924 2.172 5.475 1.652 7.99 1.135.025-1.654-.098-3.379.1-4.982h-2.17c.195 1.184.072 2.49.098 3.748-1.186.297-2.441.445-3.551-.123-.74-.393-1.285-1.186-1.48-1.947-.32-1.332 0-2.689 1.084-3.553 1.432-1.256 3.873-.912 5.5-.295-.024-.518.051-1.063-.072-1.555zm-32.328 1.949c-.666-3.379-4.76-1.752-7.324-2.17a81.617 81.617 0 0 1 0 9.174h2.119c.027-.148-.049-.246-.123-.371l.074-7.52c1.109.195 2.689-.496 3.256.787.125.568.074 1.232-.42 1.654-.617.492-1.48.541-2.242.418l3.057 5.031h2.27l-3.084-4.217 1.061-.346c1.01-.418 1.379-1.577 1.356-2.44zm3.497-2.17h-2.615l.123.346c.074 2.908.148 5.941-.049 8.828h1.947c-.197-2.195-.123-4.588-.049-6.807 1.529 2.195 3.059 4.537 4.619 6.807h2.49l.051-9.174h-2.023c.32 2.07.174 4.684.123 6.979-1.607-2.317-3.013-4.686-4.617-6.979zm9.729 0h-2.244a81.617 81.617 0 0 1 0 9.174h2.244c0-3.059-.271-6.166 0-9.174zm8.033 6.979l-4.537-6.979h-2.615a80.68 80.68 0 0 1 0 9.174h2.023c-.199-2.195-.148-4.588-.074-6.807l4.561 6.807h2.615a71.277 71.277 0 0 1 0-9.174H305l.051 6.979zm-29.488-4.563c-.592-1.355-2.021-2.221-3.381-2.49-2.022-.223-4.191-.074-5.623 1.479-1.035 1.184-1.133 2.91-.887 4.516.322 1.453 1.728 2.859 3.207 3.18 2.27.443 4.957.223 6.387-1.826.889-1.355.816-3.355.297-4.859zm-2.121.246c.617 1.16.639 2.912-.125 4.019-.861 1.088-2.268 1.406-3.625 1.063-.69-.271-1.479-.791-1.773-1.531-.447-1.256-.471-3.082.539-4.092.84-.791 2.023-.963 3.207-.766.691.174 1.382.618 1.777 1.307zm-104.589 6.514h1.185l1.884-5.698h.032l1.835 5.698h1.152l2.825-7.761h-1.348l-2.013 5.699h-.033l-1.818-5.699h-1.136l-1.852 5.699h-.032l-1.932-5.699h-1.445l2.696 7.761zm10.381-10.033h1.331v-1.526h-1.331v1.526zm0 10.033h1.331v-7.761h-1.331v7.761zm2.721-6.624h1.283v5.293c0 .877 0 1.525 1.38 1.525.438 0 .877-.064 1.314-.162v-1.137a2.4 2.4 0 0 1-.827.163c-.536 0-.536-.374-.536-.747v-4.936h1.445v-1.137h-1.445v-2.419h-1.331v2.419h-1.283v1.138zm5.613 6.624h1.332v-4.676c0-1.25.844-2.046 2.078-2.046.941 0 1.64.406 1.64 1.737v4.984h1.331v-5.114c0-2.159-1.186-2.841-2.744-2.841-1.006 0-1.77.454-2.272 1.233h-.033v-4.838h-1.332v11.561zM327.09 53.73c-2.025 0-3.641 1.573-3.641 3.534 0 2.004 1.616 3.577 3.641 3.577 2.048 0 3.62-1.573 3.62-3.577-.001-1.961-1.573-3.534-3.62-3.534zm0 .711c1.574 0 2.714 1.271 2.714 2.844 0 1.552-1.14 2.802-2.693 2.802-1.593 0-2.758-1.25-2.758-2.823 0-1.552 1.165-2.823 2.737-2.823zm-.56 3.254h.388c.453 0 .669.173.732.561.109.409.174.732.281.861h.884c-.088-.129-.151-.345-.26-.883-.107-.474-.302-.733-.646-.861v-.043c.43-.13.732-.432.732-.819 0-.345-.151-.625-.344-.776-.26-.151-.56-.259-1.228-.259-.583 0-1.035.043-1.358.108v3.534h.819v-1.423zm.021-1.594c.086-.022.237-.044.453-.044.518 0 .754.216.754.539 0 .367-.367.518-.819.518h-.388v-1.013z"/><g><path class="st1" d="M320.103 117.22c-.927 0-1.667.72-1.667 1.618 0 .917.74 1.637 1.667 1.637.937 0 1.657-.72 1.657-1.637 0-.898-.72-1.618-1.657-1.618zm.01 2.91c-.729 0-1.263-.572-1.263-1.292 0-.71.533-1.292 1.253-1.292.721 0 1.243.582 1.243 1.302 0 .71-.523 1.282-1.233 1.282z"/><path class="st1" d="M320.774 119.281c-.049-.217-.138-.335-.296-.394v-.02c.197-.059.335-.198.335-.375a.45.45 0 0 0-.157-.355c-.119-.069-.256-.118-.562-.118-.267 0-.474.02-.622.049v1.618h.375v-.651h.178c.207 0 .306.079.335.257.05.187.079.335.129.394h.405c-.042-.059-.071-.158-.12-.405zm-.74-.513h-.177v-.463a.879.879 0 0 1 .207-.02c.237 0 .345.099.345.247 0 .167-.168.236-.375.236z"/></g></svg>